<?xml version="1.0" encoding="utf-8"?>
<!-- Generator: Adobe Illustrator 17.0.0, SVG Export Plug-In . SVG Version: 6.00 Build 0)  -->
<!DOCTYPE svg PUBLIC "-//W3C//DTD SVG 1.1//EN" "http://www.w3.org/Graphics/SVG/1.1/DTD/svg11.dtd">
<svg version="1.1" id="Capa_1" xmlns="http://www.w3.org/2000/svg" xmlns:xlink="http://www.w3.org/1999/xlink" x="0px" y="0px"
	 width="18.31px" height="21.88px" viewBox="0 0 18.31 21.88" enable-background="new 0 0 18.31 21.88" xml:space="preserve">
<g>
	<path fill="#459B82" d="M16.45,5.58c0.01,0.23-0.02,0.26-0.25,0.31c-0.32,0.06-0.64,0.02-0.95-0.06c-0.04-0.01-0.08-0.02-0.12-0.03
		c-0.01,0-0.01,0-0.03,0.01C15.09,5.86,15.08,5.93,15.07,6c-0.05,0.23-0.18,0.34-0.42,0.36c-0.2,0.01-0.4-0.02-0.59-0.09
		c-0.08-0.03-0.12-0.02-0.16,0.07c-0.15,0.35-0.4,0.47-0.79,0.38c-0.15-0.03-0.29-0.08-0.43-0.12c-0.05-0.01-0.09-0.02-0.12,0.04
		c-0.13,0.3-0.39,0.37-0.69,0.28c-0.18-0.05-0.35-0.14-0.52-0.22c-0.09-0.04-0.16-0.06-0.23,0.03c-0.02,0.02-0.04,0.04-0.06,0.06
		c-0.21,0.25-0.48,0.31-0.79,0.24c-0.25-0.06-0.5-0.14-0.76-0.21C9.46,6.8,9.44,6.78,9.44,6.72C9.45,6.16,9.46,5.6,9.47,5.03
		c0-0.02,0.01-0.04,0.01-0.05c0.12,0,0.24,0.01,0.35,0c0.21-0.03,0.37-0.15,0.46-0.34c0.11-0.23,0.21-0.46,0.31-0.69
		c0.14-0.3,0.31-0.57,0.57-0.78c0.24-0.19,0.5-0.26,0.79-0.15c0.35,0.14,0.7,0.29,1.04,0.46c0.61,0.3,1.21,0.63,1.84,0.88
		c0.53,0.2,1.07,0.35,1.65,0.35c0.3,0,0.58-0.06,0.86-0.15c0.15-0.05,0.31-0.08,0.46-0.1c0.18-0.02,0.23,0.06,0.16,0.23
		c-0.13,0.29-0.37,0.48-0.64,0.64c-0.25,0.15-0.53,0.22-0.82,0.24c-0.02,0-0.03,0-0.05,0C16.48,5.57,16.46,5.57,16.45,5.58z"/>
	<path fill="#459B82" d="M3.11,5.8C2.97,5.84,2.85,5.87,2.73,5.89C2.47,5.94,2.2,5.96,1.94,5.89C1.89,5.87,1.84,5.86,1.8,5.82
		C1.77,5.79,1.74,5.73,1.75,5.7c0.03-0.11-0.02-0.13-0.1-0.13c-0.44-0.02-0.81-0.2-1.13-0.5c-0.1-0.09-0.18-0.22-0.26-0.33
		c-0.02-0.03-0.03-0.06-0.04-0.1c-0.05-0.14,0-0.22,0.14-0.2c0.16,0.02,0.32,0.04,0.47,0.1c0.48,0.17,0.96,0.2,1.46,0.12
		C3.01,4.53,3.67,4.23,4.33,3.9C4.87,3.63,5.4,3.35,5.94,3.09C6.1,3.02,6.28,2.97,6.45,2.94c0.27-0.05,0.48,0.1,0.67,0.27
		C7.4,3.45,7.55,3.79,7.69,4.12c0.06,0.15,0.12,0.31,0.2,0.46c0.16,0.33,0.42,0.46,0.77,0.4c0.02,0,0.03-0.01,0.06-0.01
		c0.01,0.1,0.01,0.19,0.02,0.28c0.01,0.5,0.01,1,0.02,1.5c0,0.05,0,0.09-0.06,0.11C8.42,6.93,8.14,7.02,7.86,7.08
		C7.6,7.15,7.37,7.07,7.18,6.87C7,6.68,6.99,6.68,6.76,6.81C6.56,6.91,6.35,7,6.13,7C5.92,7.01,5.76,6.92,5.67,6.72
		C5.63,6.64,5.59,6.63,5.51,6.65C5.35,6.7,5.18,6.75,5.02,6.78C4.68,6.84,4.45,6.71,4.31,6.39C4.27,6.29,4.23,6.27,4.13,6.3
		C3.91,6.37,3.69,6.42,3.46,6.37C3.26,6.33,3.15,6.2,3.13,5.99C3.12,5.93,3.11,5.87,3.11,5.8z"/>
	<path fill="#459B82" d="M9.39,11.42c-0.15-0.1-0.3-0.21-0.44-0.32c-0.04-0.03-0.07-0.05-0.11-0.08L8.79,9.25
		c0.18-0.07,0.39-0.15,0.63-0.24L9.39,11.42z"/>
	<path fill="#459B82" d="M8.95,16.14c0.11-0.11,0.24-0.24,0.37-0.36l-0.04,2.65c-0.09-0.13-0.19-0.25-0.28-0.38L8.95,16.14z"/>
	<path fill="#459B82" d="M8.93,15.05l-0.06-2.84c0.19,0.13,0.36,0.24,0.51,0.35l-0.03,2.07C9.2,14.78,9.06,14.91,8.93,15.05z"/>
	<path fill="#459B82" d="M9.04,19.01c0.09,0.12,0.16,0.24,0.22,0.36l-0.03,1.9l-0.08,0.26l-0.08-0.26l-0.05-2.29
		C9.02,18.99,9.03,19,9.04,19.01z"/>
	<path fill="#459B82" d="M16.37,5.4c0.01,0.23-0.02,0.26-0.25,0.3c-0.32,0.06-0.63,0.02-0.95-0.06c-0.04-0.01-0.08-0.02-0.12-0.03
		c-0.01,0-0.01,0-0.03,0.01c-0.01,0.07-0.02,0.14-0.03,0.2c-0.05,0.23-0.18,0.34-0.41,0.35c-0.2,0.01-0.4-0.02-0.58-0.09
		c-0.08-0.03-0.12-0.02-0.16,0.07c-0.15,0.35-0.39,0.46-0.79,0.38c-0.15-0.03-0.29-0.08-0.43-0.12c-0.05-0.01-0.09-0.02-0.12,0.04
		c-0.13,0.3-0.39,0.36-0.68,0.28c-0.18-0.05-0.35-0.14-0.52-0.22c-0.09-0.04-0.16-0.06-0.22,0.03c-0.02,0.02-0.04,0.04-0.06,0.06
		c-0.21,0.25-0.48,0.31-0.78,0.23C9.99,6.78,9.75,6.7,9.5,6.63C9.45,6.62,9.42,6.6,9.42,6.54c0.01-0.56,0.02-1.11,0.03-1.67
		c0-0.02,0.01-0.04,0.01-0.05c0.12,0,0.23,0.01,0.34,0c0.21-0.03,0.36-0.15,0.45-0.33c0.11-0.23,0.21-0.46,0.31-0.69
		c0.14-0.3,0.31-0.57,0.57-0.77c0.24-0.19,0.5-0.26,0.78-0.15c0.35,0.14,0.7,0.29,1.04,0.45c0.6,0.3,1.2,0.63,1.83,0.87
		c0.53,0.2,1.06,0.35,1.63,0.34c0.29,0,0.58-0.06,0.85-0.15c0.15-0.05,0.3-0.08,0.46-0.1c0.18-0.02,0.23,0.06,0.16,0.23
		c-0.13,0.29-0.37,0.48-0.63,0.64C17,5.3,16.73,5.37,16.44,5.39c-0.02,0-0.03,0-0.05,0C16.39,5.39,16.39,5.39,16.37,5.4z"/>
	<path fill="#459B82" d="M1.72,5.4C1.71,5.63,1.74,5.66,1.97,5.7C2.29,5.76,2.6,5.73,2.91,5.64c0.04-0.01,0.08-0.02,0.12-0.03
		c0.01,0,0.01,0,0.03,0.01c0.01,0.07,0.02,0.14,0.03,0.2C3.13,6.05,3.27,6.16,3.5,6.18c0.2,0.01,0.4-0.02,0.58-0.09
		c0.08-0.03,0.12-0.02,0.16,0.07c0.15,0.35,0.39,0.46,0.79,0.38c0.15-0.03,0.29-0.08,0.43-0.12C5.51,6.41,5.55,6.4,5.58,6.46
		c0.13,0.3,0.39,0.36,0.68,0.28C6.44,6.69,6.61,6.6,6.78,6.52C6.87,6.48,6.94,6.46,7,6.55c0.02,0.02,0.04,0.04,0.06,0.06
		c0.21,0.25,0.48,0.31,0.78,0.23C8.1,6.78,8.35,6.7,8.6,6.63c0.05-0.01,0.08-0.04,0.08-0.1C8.66,5.98,8.65,5.42,8.64,4.86
		c0-0.02-0.01-0.04-0.01-0.05c-0.12,0-0.23,0.01-0.34,0C8.08,4.78,7.92,4.66,7.83,4.48C7.72,4.25,7.62,4.02,7.52,3.79
		c-0.14-0.3-0.31-0.57-0.57-0.77c-0.24-0.19-0.5-0.26-0.78-0.15c-0.35,0.14-0.7,0.29-1.04,0.45c-0.6,0.3-1.2,0.63-1.83,0.87
		C2.78,4.4,2.24,4.55,1.67,4.54c-0.29,0-0.58-0.06-0.85-0.15c-0.15-0.05-0.3-0.08-0.46-0.1C0.18,4.27,0.13,4.35,0.2,4.51
		C0.34,4.8,0.57,4.99,0.84,5.15C1.09,5.3,1.36,5.37,1.65,5.39c0.02,0,0.03,0,0.05,0C1.7,5.39,1.71,5.39,1.72,5.4z"/>
	<g>
		<path fill="#459B82" d="M10.63,8.84c-0.99-0.57-2.3-1.06-2.81-1.42c-0.2-0.14-0.42-0.26-0.62-0.41c-0.14-0.1-0.32-0.24-0.36-0.43
			c-0.01-0.04-0.01-0.08,0-0.12c0.01-0.05,0.03-0.09,0.06-0.13C6.99,6.24,7.1,6.18,7.2,6.22c0.14,0.04,0.63-0.2,0.9-0.4
			c0.27-0.2,0.31-0.37,0.18-0.35c0,0,0.01-0.05,0.06-0.08c0.05-0.03-0.1-0.52-0.65-0.53C7.14,4.86,6.7,5.06,6.54,5.25
			c-0.17,0.19-0.1,0.28-0.2,0.35c-0.11,0.07-0.5,0.46-0.56,1.01C5.72,7.16,6.31,7.88,7.27,8.27c0.96,0.39,2.16,0.77,2.58,1
			c0.42,0.23,1.18,0.76,0.59,1.2c-0.59,0.44-1.47,1.04-2.03,1.46c-0.56,0.42-1.13,1.04-1.08,1.61c0.05,0.57,0.72,1.29,1.1,1.6
			c0.38,0.31,1.35,1.2,1.44,1.47c0.09,0.27,0.28,0.52-0.16,1.11c-0.03,0.04-0.06,0.08-0.09,0.12c-0.17,0.22-0.35,0.44-0.52,0.67
			c-0.18,0.26-0.34,0.54-0.43,0.85c-0.05,0.16-0.08,0.33-0.09,0.5c-0.01,0.09-0.01,0.18,0,0.27c0.01,0.17,0.06,0.35,0.14,0.5
			c0.05,0.09,0.1,0.19,0.11,0.18c0.01-0.01-0.11-0.39-0.14-0.56c-0.04-0.28,0.04-0.81,0.43-1.32c0.39-0.52,1.09-1.05,1.24-1.44
			c0.15-0.39,0.35-0.79-0.38-1.6c-0.74-0.81-1.97-1.8-1.95-2.36c0.02-0.56,0.57-0.96,1.56-1.6c0.4-0.26,0.82-0.5,1.22-0.78
			c0.41-0.29,0.8-0.67,0.77-1.21C11.56,9.42,11.04,9.07,10.63,8.84z M7.66,5.13c0.09,0,0.16,0.04,0.16,0.08
			c0,0.05-0.07,0.08-0.16,0.08C7.57,5.3,7.5,5.26,7.5,5.21C7.5,5.16,7.57,5.13,7.66,5.13z"/>
		<ellipse fill="#459B82" cx="7.66" cy="5.21" rx="0.15" ry="0.08"/>
	</g>
	<g>
		<path fill="#459B82" d="M9,18.43c0.02-0.04,0.05-0.07,0.07-0.1c-0.07-0.1-0.15-0.19-0.22-0.29c-0.08-0.11-0.17-0.21-0.25-0.32
			c-0.44-0.59-0.25-0.84-0.16-1.11c0.05-0.14,0.32-0.43,0.62-0.73c-0.13-0.12-0.26-0.24-0.39-0.36c-0.12,0.12-0.24,0.24-0.35,0.36
			c-0.74,0.81-0.53,1.21-0.38,1.6c0.12,0.31,0.57,0.7,0.95,1.1C8.93,18.54,8.96,18.49,9,18.43z"/>
		<path fill="#459B82" d="M8.43,11.75c0.18-0.14,0.39-0.29,0.61-0.44c-0.41-0.29-0.84-0.59-1.17-0.84c-0.59-0.44,0.17-0.97,0.59-1.2
			c0.12-0.06,0.29-0.14,0.5-0.22C8.82,9,8.67,8.94,8.51,8.88c-0.18-0.06-0.36-0.13-0.55-0.2c-0.1,0.05-0.19,0.1-0.29,0.16
			c-0.55,0.31-1.16,0.84-0.88,1.53c0.22,0.54,0.77,0.84,1.24,1.13C8.17,11.58,8.3,11.67,8.43,11.75z"/>
		<path fill="#459B82" d="M9.45,18.92c-0.02-0.03-0.04-0.07-0.06-0.1C9.34,18.88,9.29,18.94,9.24,19c0.12,0.17,0.23,0.35,0.27,0.55
			c0.05,0.24-0.04,0.51-0.13,0.73c0.02-0.01,0.05-0.04,0.06-0.05c0.02-0.02,0.04-0.05,0.05-0.08c0.15-0.28,0.2-0.55,0.11-0.85
			C9.58,19.18,9.52,19.04,9.45,18.92z"/>
		<path fill="#459B82" d="M9.9,11.93c-0.01,0-0.01-0.01-0.02-0.01c-0.07,0.04-0.14,0.08-0.2,0.13c-0.15,0.09-0.28,0.18-0.4,0.27
			c0.63,0.44,0.98,0.78,1,1.22c0.01,0.35-0.47,0.88-1.02,1.42C9.3,15,9.35,15.05,9.4,15.1c0.08,0.08,0.16,0.16,0.24,0.24
			c0.09-0.08,0.17-0.15,0.23-0.2c0.38-0.31,1.05-1.04,1.1-1.6C11.03,12.97,10.46,12.35,9.9,11.93z"/>
		<g>
			<path fill="#459B82" d="M12.53,6.61c-0.06-0.55-0.45-0.94-0.56-1.01c-0.11-0.07-0.04-0.16-0.2-0.35
				c-0.17-0.19-0.6-0.39-1.15-0.38c-0.55,0.01-0.71,0.5-0.65,0.53c0.05,0.03,0.06,0.08,0.06,0.08C9.9,5.45,9.94,5.61,10.21,5.82
				c0.27,0.2,0.76,0.44,0.9,0.4c0.1-0.03,0.21,0.02,0.28,0.11c0.03,0.04,0.05,0.08,0.06,0.13c0.01,0.04,0.01,0.08,0,0.12
				c-0.03,0.2-0.22,0.33-0.36,0.43c-0.2,0.15-0.41,0.27-0.62,0.41c-0.24,0.17-0.67,0.37-1.16,0.6c0.34,0.16,0.7,0.33,1.05,0.51
				c0.23-0.09,0.46-0.17,0.68-0.26C12,7.88,12.59,7.16,12.53,6.61z M10.65,5.3c-0.09,0-0.16-0.04-0.16-0.08
				c0-0.05,0.07-0.08,0.16-0.08s0.16,0.04,0.16,0.08C10.8,5.26,10.73,5.3,10.65,5.3z"/>
			<ellipse fill="#459B82" cx="10.64" cy="5.22" rx="0.15" ry="0.08"/>
		</g>
	</g>
	<path fill="#459B82" d="M9.09,8.52c-0.11,0.03-0.23,0.07-0.34,0.1l-0.2-5.53c0.15,0.06,0.32,0.1,0.51,0.1
		c0.19,0,0.36-0.04,0.51-0.1L9.43,8.42C9.32,8.45,9.21,8.48,9.09,8.52z"/>
	<g>
		<path fill="#459B82" d="M10.52,8.84c-0.99-0.57-2.3-1.06-2.81-1.42C7.51,7.28,7.3,7.16,7.1,7.01c-0.14-0.1-0.32-0.24-0.36-0.43
			c-0.01-0.04-0.01-0.08,0-0.12C6.75,6.41,6.77,6.37,6.8,6.33c0.07-0.09,0.17-0.14,0.28-0.11c0.14,0.04,0.63-0.2,0.9-0.4
			c0.27-0.2,0.31-0.37,0.18-0.35c0,0,0.01-0.05,0.06-0.08c0.05-0.03-0.1-0.52-0.65-0.53c-0.55-0.01-0.99,0.2-1.15,0.38
			c-0.17,0.19-0.1,0.28-0.2,0.35c-0.11,0.07-0.5,0.46-0.56,1.01C5.6,7.16,6.19,7.88,7.15,8.27c0.96,0.39,2.16,0.77,2.58,1
			c0.42,0.23,1.18,0.76,0.59,1.2c-0.59,0.44-1.47,1.04-2.03,1.46c-0.56,0.42-1.13,1.04-1.08,1.61c0.05,0.57,0.72,1.29,1.1,1.6
			c0.38,0.31,1.35,1.2,1.44,1.47c0.09,0.27,0.28,0.52-0.16,1.11c-0.03,0.04-0.06,0.08-0.09,0.12c-0.17,0.22-0.35,0.44-0.52,0.67
			c-0.18,0.26-0.34,0.54-0.43,0.85c-0.05,0.16-0.08,0.33-0.09,0.5c-0.01,0.09-0.01,0.18,0,0.27c0.01,0.17,0.06,0.35,0.14,0.5
			c0.05,0.09,0.1,0.19,0.11,0.18c0.01-0.01-0.11-0.39-0.14-0.56C8.53,19.97,8.61,19.45,9,18.93c0.39-0.52,1.09-1.05,1.24-1.44
			c0.15-0.39,0.35-0.79-0.38-1.6c-0.74-0.81-1.97-1.8-1.95-2.36c0.02-0.56,0.57-0.96,1.56-1.6c0.4-0.26,0.82-0.5,1.22-0.78
			c0.41-0.29,0.8-0.67,0.77-1.21C11.44,9.42,10.92,9.07,10.52,8.84z M7.54,5.13c0.09,0,0.16,0.04,0.16,0.08
			c0,0.05-0.07,0.08-0.16,0.08c-0.09,0-0.16-0.04-0.16-0.08C7.38,5.16,7.46,5.13,7.54,5.13z"/>
		<ellipse fill="#459B82" cx="7.54" cy="5.21" rx="0.15" ry="0.08"/>
	</g>
	<g>
		<path fill="#459B82" d="M8.87,18.43c0.02-0.04,0.05-0.07,0.07-0.1c-0.07-0.1-0.15-0.19-0.22-0.29c-0.08-0.11-0.17-0.21-0.25-0.32
			c-0.44-0.59-0.25-0.84-0.16-1.11c0.05-0.14,0.32-0.43,0.62-0.73c-0.13-0.12-0.26-0.24-0.39-0.36c-0.12,0.12-0.24,0.24-0.35,0.36
			c-0.74,0.81-0.53,1.21-0.38,1.6c0.12,0.31,0.57,0.7,0.95,1.1C8.8,18.54,8.84,18.49,8.87,18.43z"/>
		<path fill="#459B82" d="M8.3,11.75c0.18-0.14,0.39-0.29,0.61-0.44c-0.41-0.29-0.84-0.59-1.17-0.84c-0.59-0.44,0.17-0.97,0.59-1.2
			c0.12-0.06,0.29-0.14,0.5-0.22C8.7,9,8.54,8.94,8.38,8.88c-0.18-0.06-0.36-0.13-0.55-0.2c-0.1,0.05-0.19,0.1-0.29,0.16
			C7,9.15,6.39,9.67,6.67,10.37c0.22,0.54,0.77,0.84,1.24,1.13C8.04,11.58,8.17,11.67,8.3,11.75z"/>
		<path fill="#459B82" d="M9.33,18.92c-0.02-0.03-0.04-0.07-0.06-0.1C9.22,18.88,9.16,18.94,9.12,19c0.12,0.17,0.23,0.35,0.27,0.55
			c0.05,0.24-0.04,0.51-0.13,0.73c0.02-0.01,0.05-0.04,0.06-0.05c0.02-0.02,0.04-0.05,0.05-0.08c0.15-0.28,0.2-0.55,0.11-0.85
			C9.45,19.18,9.39,19.04,9.33,18.92z"/>
		<path fill="#459B82" d="M9.77,11.93c-0.01,0-0.01-0.01-0.02-0.01c-0.07,0.04-0.14,0.08-0.2,0.13c-0.15,0.09-0.28,0.18-0.4,0.27
			c0.63,0.44,0.98,0.78,1,1.22c0.01,0.35-0.47,0.88-1.02,1.42c0.05,0.05,0.1,0.1,0.15,0.15c0.08,0.08,0.16,0.16,0.24,0.24
			c0.09-0.08,0.17-0.15,0.23-0.2c0.38-0.31,1.05-1.04,1.1-1.6C10.9,12.97,10.34,12.35,9.77,11.93z"/>
		<g>
			<path fill="#459B82" d="M12.4,6.61c-0.06-0.55-0.45-0.94-0.56-1.01c-0.11-0.07-0.04-0.16-0.2-0.35c-0.17-0.19-0.6-0.39-1.15-0.38
				c-0.55,0.01-0.71,0.5-0.65,0.53C9.9,5.42,9.9,5.47,9.9,5.47c-0.13-0.02-0.09,0.14,0.18,0.35c0.27,0.2,0.76,0.44,0.9,0.4
				c0.1-0.03,0.21,0.02,0.28,0.11c0.03,0.04,0.05,0.08,0.06,0.13c0.01,0.04,0.01,0.08,0,0.12c-0.03,0.2-0.22,0.33-0.36,0.43
				c-0.2,0.15-0.41,0.27-0.62,0.41c-0.24,0.17-0.67,0.37-1.16,0.6c0.34,0.16,0.7,0.33,1.05,0.51c0.23-0.09,0.46-0.17,0.68-0.26
				C11.87,7.88,12.46,7.16,12.4,6.61z M10.52,5.3c-0.09,0-0.16-0.04-0.16-0.08c0-0.05,0.07-0.08,0.16-0.08
				c0.09,0,0.16,0.04,0.16,0.08C10.68,5.26,10.61,5.3,10.52,5.3z"/>
			<ellipse fill="#459B82" cx="10.52" cy="5.22" rx="0.15" ry="0.08"/>
		</g>
	</g>
	<circle fill="#459B82" cx="9.04" cy="1.86" r="1.52"/>
</g>
</svg>
