<svg id="Capa_1" data-name="Capa 1" xmlns="http://www.w3.org/2000/svg" xmlns:xlink="http://www.w3.org/1999/xlink" viewBox="0 0 251.16 248.6"><defs><style>.cls-1,.cls-10,.cls-13,.cls-14,.cls-16,.cls-3,.cls-7{fill:none;}.cls-2{fill:#f3f2f2;}.cls-14,.cls-3{stroke:#122930;}.cls-10,.cls-13,.cls-14,.cls-16,.cls-3{stroke-miterlimit:10;}.cls-3{stroke-width:2.86px;}.cls-4{fill:#194b76;}.cls-5{fill:#3b3b3a;}.cls-6{fill:#1d1516;}.cls-7{stroke:#3b3b3a;}.cls-13,.cls-7{stroke-width:0.95px;}.cls-8{clip-path:url(#clip-path);}.cls-9{fill:url(#linear-gradient);}.cls-10{stroke:#113a58;stroke-width:0.96px;}.cls-11{fill:#fff;}.cls-12{fill:#a0251b;}.cls-13{stroke:#fff;}.cls-14{stroke-width:1.44px;}.cls-15{fill:#122930;}.cls-16{stroke:#f3f2f2;stroke-width:0.84px;}</style><clipPath id="clip-path" transform="translate(-1.22 -1.25)"><path class="cls-1" d="M125.49,218.5c-32.36-30.92-90.22-23.63-106.8-78.19-1.38,8.78-2.46,17.12-3.3,25.08A71.86,71.86,0,0,1,2,165.32c25.33,55.9,97.71,46.13,123.52,83.68,25.81-37.55,98.19-27.78,123.52-83.68a72,72,0,0,1-13.4.07c-.83-8-1.92-16.3-3.3-25.08-16.58,54.56-74.49,47.27-106.85,78.19"/></clipPath><linearGradient id="linear-gradient" x1="-170.98" y1="545.75" x2="-170" y2="545.75" gradientTransform="matrix(255.12, 0, 0, -255.12, 43621.18, 139426.55)" gradientUnits="userSpaceOnUse"><stop offset="0" stop-color="#0f354e"/><stop offset="0.48" stop-color="#104b75"/><stop offset="0.96" stop-color="#0f354e"/><stop offset="1" stop-color="#0f354e"/></linearGradient></defs><title>LOGO FADE COLOR</title><path class="cls-2" d="M22.38,170.83s6.27-48.67,9.13-63c0,0,3-63.37-11.89-74.48L44.14,2.68H206.59l25.08,30.63s-21.34,43.77-15.79,65.54l8.72,74.7-100.27,69.5Z" transform="translate(-1.22 -1.25)"/><path class="cls-3" d="M22.38,170.83c-.37-.27.66-5.08.73-5.54,1.53-11.64,3.1-23.28,4.78-34.9,1.77-12.18,3.88-23.89,3.86-36.06q0-4.45-.13-8.91c-.19-6.93-.58-13.88-1.36-20.78-1.07-9.49-2.18-25-10.64-31.33L44.14,2.68H206.59l25.08,30.63c-4,7.66-6,15.68-9,23.77-3.83,10.36-6.22,20.07-6.67,31-.49,11.68,1.35,23.31,2.7,34.88L223,160q.79,6.78,1.58,13.56l-100.27,69.5Z" transform="translate(-1.22 -1.25)"/><path class="cls-4" d="M90.61,13.28a6.67,6.67,0,0,1,.19.73,2.32,2.32,0,0,1,0,.5,1,1,0,0,1-.1.31.32.32,0,0,1-.21.15l-6,1.86,1.52,5L91.68,20a.53.53,0,0,1,.25,0,.69.69,0,0,1,.25.19,1.79,1.79,0,0,1,.26.43,6.61,6.61,0,0,1,.25.7,4.7,4.7,0,0,1,.18.72,1.48,1.48,0,0,1,0,.5.64.64,0,0,1-.09.32.32.32,0,0,1-.21.15L87,24.79l2.11,6.87a.51.51,0,0,1,0,.3.63.63,0,0,1-.25.28,2.6,2.6,0,0,1-.54.3,8,8,0,0,1-.9.32,7,7,0,0,1-.92.24,2.44,2.44,0,0,1-.61.06.67.67,0,0,1-.36-.1.43.43,0,0,1-.18-.24L80.16,16.1a1.17,1.17,0,0,1,0-1,1.24,1.24,0,0,1,.71-.52l8.67-2.67a.36.36,0,0,1,.25,0,.65.65,0,0,1,.26.2,1.59,1.59,0,0,1,.26.44,5.71,5.71,0,0,1,.26.72" transform="translate(-1.22 -1.25)"/><path class="cls-4" d="M120.55,25.72a4.8,4.8,0,0,1,.3.82.51.51,0,0,1-.07.48.94.94,0,0,1-.56.25q-.42.07-1.14.15c-.5,0-.9.07-1.18.09a3.11,3.11,0,0,1-.66,0,.64.64,0,0,1-.33-.16,1,1,0,0,1-.17-.3l-1.66-3.73-7.21.68L107,27.84a1.17,1.17,0,0,1-.13.36.61.61,0,0,1-.29.25,2.33,2.33,0,0,1-.6.17c-.26,0-.6.09-1,.12a7.84,7.84,0,0,1-1.08.06.8.8,0,0,1-.55-.16.61.61,0,0,1-.15-.48,5.44,5.44,0,0,1,.14-.85l4.32-17.59a1.33,1.33,0,0,1,.17-.43.74.74,0,0,1,.36-.27,2.73,2.73,0,0,1,.71-.17c.3,0,.71-.09,1.21-.14s1.05-.09,1.4-.11a3.38,3.38,0,0,1,.82,0,.7.7,0,0,1,.43.2,1.17,1.17,0,0,1,.26.43ZM110.41,12.47h0l-1.94,8.42,5.45-.52Z" transform="translate(-1.22 -1.25)"/><path class="cls-4" d="M145.66,19.48a13.2,13.2,0,0,1-1.23,4.43,7.8,7.8,0,0,1-2.34,2.82,8.22,8.22,0,0,1-3.34,1.36,15.36,15.36,0,0,1-4.46,0l-4.57-.54a1.22,1.22,0,0,1-.79-.39,1.2,1.2,0,0,1-.22-1l2-16.69a1.22,1.22,0,0,1,.44-.91,1.31,1.31,0,0,1,.86-.19l4.91.6a13.45,13.45,0,0,1,4.27,1.12A7.83,7.83,0,0,1,144,12.26a7.68,7.68,0,0,1,1.51,3.13,11.65,11.65,0,0,1,.16,4.09m-4-.35a10,10,0,0,0,0-2.57,5.64,5.64,0,0,0-.77-2.15,5,5,0,0,0-1.65-1.56,7.49,7.49,0,0,0-2.84-.82l-2-.24-1.56,13,2,.25a7.61,7.61,0,0,0,2.74-.09,4.48,4.48,0,0,0,2-1,5.52,5.52,0,0,0,1.35-2,11.17,11.17,0,0,0,.71-2.86" transform="translate(-1.22 -1.25)"/><path class="cls-4" d="M163.94,32a5.14,5.14,0,0,1-.27.67,1.83,1.83,0,0,1-.25.41.62.62,0,0,1-.26.19.39.39,0,0,1-.26,0l-9.19-3.09a1.08,1.08,0,0,1-.7-1.54l5.35-15.94a1.18,1.18,0,0,1,.62-.79,1.21,1.21,0,0,1,.88,0L169,14.93a.41.41,0,0,1,.21.15.6.6,0,0,1,.08.3,2.24,2.24,0,0,1,0,.49c0,.19-.11.43-.2.71a6.07,6.07,0,0,1-.26.66,1.62,1.62,0,0,1-.26.41.66.66,0,0,1-.25.19.43.43,0,0,1-.25,0l-6.53-2.2L160,20.12,165.5,22a.37.37,0,0,1,.21.16.59.59,0,0,1,.1.3,1.74,1.74,0,0,1-.05.47,4.24,4.24,0,0,1-.19.68,5.59,5.59,0,0,1-.26.67,2,2,0,0,1-.25.4.53.53,0,0,1-.25.17.46.46,0,0,1-.26,0L159,23l-1.73,5.15,6.59,2.21a.53.53,0,0,1,.2.16.57.57,0,0,1,.1.31,1.77,1.77,0,0,1-.05.48,5.06,5.06,0,0,1-.19.7" transform="translate(-1.22 -1.25)"/><path class="cls-5" d="M194.5,65l-1.35,1c-.89.64-2.17,1.62-3.88,2.74s-3.79,2.49-6.24,4l-4,2.23c-1.43.73-2.91,1.52-4.51,2.27s-3.24,1.53-5,2.23l-2.67,1.1-2.8,1c-1.88.73-3.88,1.29-5.89,2s-4.11,1.19-6.26,1.65a114.84,114.84,0,0,1-13.36,2.33,118,118,0,0,1-14,.77,127,127,0,0,1-14-.93,125.29,125.29,0,0,1-13.33-2.52A108.76,108.76,0,0,1,85.18,81c-3.79-1.38-7.26-3-10.43-4.49-1.57-.79-3.06-1.58-4.48-2.33L66.34,71.9,63,69.76c-1-.66-2-1.34-2.8-1.91-1.7-1.15-2.95-2.15-3.84-2.81L55,64l1.37,1c.9.63,2.17,1.61,3.9,2.7.86.56,1.79,1.21,2.85,1.84l3.41,2,4,2.18L75,76c3.18,1.47,6.65,3,10.44,4.32A119.68,119.68,0,0,0,97.48,84a121.66,121.66,0,0,0,13.24,2.44,127.21,127.21,0,0,0,13.88.87,118.42,118.42,0,0,0,13.87-.7,113.32,113.32,0,0,0,13.27-2.26c2.14-.44,4.19-1.08,6.23-1.59s4-1.17,5.88-1.87l2.8-1,2.67-1.06c1.77-.66,3.41-1.45,5-2.15s3.08-1.5,4.52-2.18l4-2.12c2.46-1.42,4.61-2.68,6.31-3.81s3-2,3.94-2.65l1.38-1" transform="translate(-1.22 -1.25)"/><path class="cls-6" d="M31.51,125l28.8-.27,29.53-.14,33.85-.07,33.85.07,29.53.14,28.81.27-28.81.27-29.53.14-33.85.07-33.85-.07-29.53-.14L31.51,125" transform="translate(-1.22 -1.25)"/><path class="cls-7" d="M216.71,125c0,50.61-41.56,91.65-92.83,91.65s-92.83-41-92.83-91.65,41.56-91.64,92.83-91.64S216.71,74.34,216.71,125Z" transform="translate(-1.22 -1.25)"/><path class="cls-5" d="M53.8,184.52l1.36-1c.89-.64,2.17-1.64,3.89-2.77s3.81-2.51,6.26-4c1.25-.7,2.57-1.48,4-2.25s2.93-1.53,4.53-2.28,3.26-1.55,5-2.25l2.69-1.11,2.81-1c1.89-.74,3.9-1.3,5.92-2s4.13-1.2,6.3-1.66A111.57,111.57,0,0,1,110,161.84a119,119,0,0,1,14.06-.77,125.86,125.86,0,0,1,14,1,126.6,126.6,0,0,1,13.4,2.55,109,109,0,0,1,12.15,3.83c3.81,1.4,7.29,3,10.47,4.55,1.58.8,3.08,1.59,4.5,2.35l3.94,2.31,3.39,2.16c1.05.67,2,1.35,2.81,1.93,1.71,1.16,3,2.18,3.85,2.83l1.34,1s-.47-.35-1.37-1-2.18-1.62-3.91-2.73c-.86-.56-1.79-1.22-2.85-1.86l-3.43-2.08-4-2.2-4.51-2.27c-3.19-1.48-6.67-3-10.48-4.37a119.82,119.82,0,0,0-12.11-3.68A125.41,125.41,0,0,0,138,162.91a126,126,0,0,0-14-.88,115.28,115.28,0,0,0-13.94.7A112.1,112.1,0,0,0,96.76,165c-2.16.44-4.22,1.09-6.27,1.6s-4,1.18-5.91,1.89l-2.81,1-2.68,1.07c-1.78.66-3.43,1.46-5,2.16s-3.1,1.52-4.55,2.2-2.76,1.48-4,2.15c-2.48,1.43-4.63,2.69-6.34,3.83s-3,2.05-4,2.67l-1.38,1" transform="translate(-1.22 -1.25)"/><path class="cls-5" d="M89.88,207.27l-1.55-1.5c-1-1-2.53-2.35-4.29-4.29s-3.91-4.29-6.23-7.1c-1.1-1.45-2.32-3-3.52-4.63l-1.79-2.59c-.61-.88-1.24-1.79-1.8-2.75-1.19-1.92-2.44-3.9-3.57-6-.56-1.07-1.2-2.13-1.74-3.26l-1.66-3.43A106.37,106.37,0,0,1,58,156.53c-.2-.67-.4-1.35-.61-2s-.35-1.38-.52-2.07c-.34-1.39-.7-2.78-1-4.19-.54-2.85-1.15-5.72-1.48-8.66s-.61-5.9-.87-8.87c-.07-3-.24-6-.09-9,.07-1.5,0-3,.19-4.49l.39-4.48c.11-1.5.4-3,.59-4.44s.4-3,.72-4.39.59-2.89.88-4.32.73-2.83,1.09-4.23c.18-.7.37-1.4.55-2.09l.66-2c.44-1.36.86-2.72,1.32-4s1-2.62,1.5-3.91c.25-.64.47-1.29.75-1.92s.57-1.24.84-1.86c.57-1.23,1.1-2.46,1.67-3.65l1.81-3.47.88-1.71c.33-.54.65-1.09,1-1.63l1.88-3.18c1.31-2,2.61-4,3.88-5.84s2.59-3.56,3.89-5.15,2.54-3.07,3.75-4.43L85.1,46.7c1.1-1.13,2.17-2.11,3.1-3,1.85-1.85,3.48-3.12,4.51-4.06l1.63-1.41-1.6,1.44c-1,1-2.62,2.26-4.43,4.15-.91.93-2,1.93-3,3.08l-3.4,3.79c-1.18,1.38-2.36,2.92-3.65,4.5s-2.48,3.37-3.81,5.17-2.52,3.81-3.79,5.85l-1.84,3.19L67.84,71,67,72.7c-.58,1.14-1.16,2.3-1.75,3.47s-1.07,2.42-1.62,3.65c-1.14,2.43-2,5-3,7.64-.45,1.32-.86,2.67-1.3,4-.21.67-.42,1.35-.64,2l-.54,2.08c-.35,1.4-.71,2.8-1.07,4.2s-.56,2.86-.85,4.3-.5,2.89-.71,4.35-.46,2.92-.56,4.4-.25,3-.37,4.43-.11,3-.18,4.47c-.16,3,0,5.94.06,8.92.25,3,.38,5.91.83,8.81s.92,5.76,1.43,8.59c.31,1.4.67,2.78,1,4.17.18.68.32,1.37.51,2.05s.4,1.35.6,2a113,113,0,0,0,5.58,15.09L66,174.82c.52,1.13,1.15,2.18,1.7,3.25,1.1,2.16,2.32,4.14,3.48,6.05.56,1,1.16,1.88,1.77,2.77s1.18,1.75,1.74,2.6c1.16,1.68,2.35,3.21,3.42,4.68,2.26,2.85,4.28,5.3,6.08,7.2s3.22,3.38,4.2,4.37l1.52,1.53" transform="translate(-1.22 -1.25)"/><path class="cls-5" d="M114.67,202l-1.25-1.44c-.8-.95-2-2.31-3.44-4.15s-3.14-4.07-5-6.7c-.89-1.35-1.89-2.75-2.86-4.29-.48-.77-1-1.57-1.46-2.38s-1-1.65-1.49-2.52c-1-1.74-2-3.54-2.94-5.48-.48-1-1-1.92-1.46-2.94s-.92-2-1.39-3.08-.9-2.11-1.34-3.2-.91-2.18-1.3-3.31c-.8-2.27-1.62-4.58-2.28-7s-1.28-4.87-1.9-7.36-1-5.07-1.33-7.68-.57-5.23-.8-7.87c-.07-2.64-.23-5.34-.11-8a110.77,110.77,0,0,1,1.49-15.81l.69-3.85c.27-1.27.58-2.53.86-3.78.15-.63.29-1.25.44-1.87l.51-1.84c.35-1.21.7-2.42,1-3.62.83-2.36,1.51-4.72,2.45-6.93l1.33-3.31,1.43-3.16c.24-.52.47-1,.71-1.55s.51-1,.76-1.5l1.5-2.91c1-1.89,2.09-3.68,3.09-5.4s2.08-3.31,3.12-4.8,2-2.88,3-4.17l2.81-3.56c.89-1.08,1.76-2,2.51-2.92,1.5-1.78,2.82-3,3.66-4L117,48.27l-1.29,1.41c-.82.93-2.11,2.22-3.56,4-.74.9-1.58,1.87-2.45,3L107,60.28c-.94,1.31-1.89,2.74-2.92,4.23s-2,3.14-3,4.82-2,3.52-3,5.41L96.6,77.66c-.25.49-.49,1-.74,1.49s-.46,1-.68,1.55l-1.39,3.16-1.28,3.3c-.9,2.21-1.58,4.55-2.39,6.89-.33,1.19-.67,2.39-1,3.61l-.51,1.82-.42,1.86c-.28,1.24-.58,2.49-.84,3.75s-.44,2.55-.67,3.83a108.66,108.66,0,0,0-1.42,15.68c-.13,2.66,0,5.27.08,7.91.22,2.62.36,5.24.76,7.81s.84,5.1,1.29,7.61c.6,2.47,1.11,4.95,1.85,7.31A115.35,115.35,0,0,0,94,168.7l1.34,3.08c.45,1,1,2,1.42,2.94.91,1.93,1.91,3.74,2.86,5.49s2,3.34,2.87,4.92,1.89,3,2.76,4.34c1.81,2.66,3.43,5,4.86,6.79s2.56,3.26,3.35,4.22l1.21,1.47" transform="translate(-1.22 -1.25)"/><path class="cls-5" d="M146.67,39.19l1.74,1.42c1.12.94,2.86,2.22,4.85,4.1,1,.93,2.16,1.92,3.35,3.06l3.78,3.79c1.32,1.38,2.65,2.92,4.09,4.5s2.78,3.4,4.27,5.22,2.83,3.88,4.32,5.93l2.1,3.25c.71,1.1,1.45,2.2,2.09,3.39l2,3.56c.71,1.19,1.27,2.47,1.93,3.73s1.32,2.52,1.87,3.86l1.72,4a107.93,107.93,0,0,1,5.45,17.29c.79,3,1.16,6.1,1.71,9.18.16,1.55.33,3.12.49,4.68.07.78.17,1.56.22,2.34l.08,2.36c0,1.57.14,3.13.12,4.72s-.09,3.12-.14,4.68a23,23,0,0,1-.14,2.34l-.19,2.33-.2,2.33c-.08.77-.21,1.54-.31,2.3A110.8,110.8,0,0,1,182,177.13c-1.22,2.4-2.34,4.78-3.65,7-.64,1.09-1.23,2.2-1.88,3.23l-1.94,3-.95,1.47-1,1.39-1.93,2.67c-1.26,1.73-2.6,3.27-3.78,4.77-2.48,2.9-4.71,5.37-6.68,7.28s-3.53,3.38-4.61,4.38l-1.66,1.51,1.63-1.54c1.06-1,2.67-2.45,4.52-4.46s4.11-4.46,6.54-7.39c1.15-1.52,2.45-3.07,3.67-4.82.62-.87,1.24-1.77,1.89-2.69l1-1.39.93-1.47,1.9-3c.64-1,1.21-2.14,1.83-3.23,1.28-2.18,2.38-4.55,3.57-6.95.6-1.2,1.07-2.47,1.63-3.73s1.11-2.54,1.56-3.87,1-2.65,1.47-4,.85-2.76,1.29-4.15a108,108,0,0,0,3.7-17.61c.1-.76.22-1.52.3-2.29l.19-2.3.18-2.3c.07-.77.13-1.55.13-2.33l.12-4.68c0-1.53-.09-3.1-.13-4.65l-.07-2.34c-.05-.77-.15-1.55-.22-2.32-.15-1.55-.31-3.1-.46-4.64-.53-3.06-.9-6.13-1.67-9.1a106.73,106.73,0,0,0-5.34-17.18c-.58-1.35-1.14-2.68-1.7-4s-1.24-2.58-1.83-3.85-1.18-2.54-1.88-3.73l-2-3.56c-.63-1.19-1.36-2.29-2-3.39s-1.38-2.19-2.05-3.26c-1.46-2.06-2.84-4.07-4.24-5.94s-2.8-3.64-4.2-5.26-2.7-3.16-4-4.56L156.44,48c-1.17-1.16-2.3-2.18-3.28-3.12-2-1.91-3.68-3.22-4.78-4.19l-1.71-1.45" transform="translate(-1.22 -1.25)"/><path class="cls-5" d="M132.18,48.44l1.25,1.4c.81.92,2.06,2.22,3.48,4,.71.9,1.55,1.85,2.37,3L142,60.41l2.86,4.22c.93,1.53,1.93,3.13,2.91,4.83a113,113,0,0,1,5.64,11.39c.94,2.05,1.71,4.24,2.56,6.45.41,1.11.75,2.26,1.13,3.41s.75,2.31,1,3.5.64,2.39,1,3.6.54,2.45.82,3.69.5,2.49.71,3.76.47,2.52.62,3.81a122.75,122.75,0,0,1,1.1,15.64,155.92,155.92,0,0,1-.91,15.63c-.13,1.29-.35,2.55-.52,3.83s-.35,2.53-.6,3.77-.46,2.48-.68,3.71-.56,2.43-.83,3.63-.59,2.38-.91,3.54-.62,2.33-1,3.46c-.76,2.25-1.43,4.47-2.28,6.56a108.52,108.52,0,0,1-5.21,11.59c-.93,1.73-1.88,3.36-2.77,4.92s-1.89,2.93-2.75,4.28l-2.63,3.62c-.8,1.13-1.64,2.08-2.35,3-1.41,1.81-2.67,3.1-3.48,4l-1.26,1.4,1.23-1.43c.78-.93,2-2.25,3.38-4.09.69-.91,1.5-1.89,2.29-3s1.62-2.36,2.53-3.67l2.65-4.32c.84-1.58,1.79-3.2,2.68-4.94a103.11,103.11,0,0,0,5-11.59c.83-2.08,1.47-4.3,2.19-6.54.35-1.12.62-2.28,1-3.44s.64-2.32.89-3.52.54-2.39.81-3.61.44-2.45.67-3.69.42-2.48.58-3.75.37-2.52.49-3.8a153.53,153.53,0,0,0,.85-15.55,122.76,122.76,0,0,0-1-15.5c-.14-1.28-.4-2.53-.6-3.79s-.4-2.5-.69-3.73-.53-2.45-.8-3.66-.63-2.39-.95-3.57-.66-2.35-1-3.49-.69-2.28-1.09-3.39c-.82-2.21-1.55-4.39-2.46-6.44a110.36,110.36,0,0,0-5.47-11.4c-.95-1.71-1.94-3.3-2.83-4.85s-1.88-2.92-2.75-4.26L139.09,57c-.79-1.13-1.61-2.1-2.31-3-1.37-1.82-2.59-3.15-3.38-4.09l-1.22-1.43" transform="translate(-1.22 -1.25)"/><path class="cls-5" d="M125.75,48.91s.08,9.45.22,23.62c0,7.09.06,15.36.09,24.22s0,18.31,0,27.75-.09,18.9-.13,27.76-.13,17.13-.19,24.22c-.19,14.17-.32,23.62-.32,23.62s-.09-9.45-.22-23.63c0-7.08-.06-15.35-.09-24.21s0-18.31,0-27.76.09-18.9.12-27.76.14-17.12.2-24.21c.19-14.17.32-23.62.32-23.62" transform="translate(-1.22 -1.25)"/><path class="cls-5" d="M102,213.92l.29-.56a16.22,16.22,0,0,1,.87-1.55c.4-.67.94-1.44,1.58-2.31.35-.41.71-.86,1.1-1.32s.86-.9,1.33-1.37a27.17,27.17,0,0,1,3.35-2.7,23.55,23.55,0,0,1,4.21-2.32,28.74,28.74,0,0,1,4.91-1.58,30,30,0,0,1,5.29-.59c.93,0,1.76,0,2.67.13l1.33.15,1.3.24a25.28,25.28,0,0,1,4.94,1.48c.78.29,1.51.69,2.23,1s1.4.77,2,1.22a26.57,26.57,0,0,1,3.39,2.64c.49.45.93.92,1.36,1.35l1.12,1.3c.65.86,1.21,1.62,1.61,2.27a15.64,15.64,0,0,1,.9,1.55l.3.55-.34-.52c-.23-.35-.54-.86-1-1.47s-1-1.34-1.73-2.15l-1.18-1.21c-.45-.4-.89-.85-1.39-1.27a25.88,25.88,0,0,0-3.4-2.45,26.81,26.81,0,0,0-4.19-2.08A25,25,0,0,0,130.1,201a26.46,26.46,0,0,0-5.13-.44,27.27,27.27,0,0,0-5.12.51,26.42,26.42,0,0,0-4.77,1.46,27.07,27.07,0,0,0-7.52,4.65l-1.36,1.29L105,209.73a27,27,0,0,0-1.69,2.17c-.46.61-.76,1.14-1,1.49l-.34.53" transform="translate(-1.22 -1.25)"/><path class="cls-5" d="M147.89,36.3l-.31.54a15.91,15.91,0,0,1-.9,1.52c-.41.65-1,1.39-1.62,2.23L144,41.88c-.43.42-.87.87-1.36,1.31a23.92,23.92,0,0,1-3.37,2.6c-.61.44-1.31.79-2,1.2s-1.44.73-2.22,1a25.57,25.57,0,0,1-4.88,1.46,27.65,27.65,0,0,1-5.25.52,29.7,29.7,0,0,1-5.23-.58,28.1,28.1,0,0,1-4.86-1.53,24.14,24.14,0,0,1-4.18-2.28A26.51,26.51,0,0,1,107.28,43c-.47-.46-.91-.91-1.33-1.34l-1.1-1.3c-.64-.85-1.19-1.6-1.58-2.25a16.87,16.87,0,0,1-.88-1.54l-.3-.55.34.53c.23.33.53.85,1,1.45s1,1.33,1.7,2.13l1.16,1.21,1.36,1.26A25.93,25.93,0,0,0,111,45a27.86,27.86,0,0,0,4.12,2.09,27.51,27.51,0,0,0,4.72,1.43,28.31,28.31,0,0,0,5.08.49,26,26,0,0,0,5.06-.43,25.36,25.36,0,0,0,4.74-1.35,26.25,26.25,0,0,0,4.15-2,24.38,24.38,0,0,0,3.38-2.41c.5-.41.93-.85,1.38-1.24s.81-.81,1.17-1.19a24.45,24.45,0,0,0,1.73-2.1c.47-.6.79-1.11,1-1.45s.35-.51.35-.51" transform="translate(-1.22 -1.25)"/><g class="cls-8"><rect class="cls-9" x="0.78" y="139.06" width="250.38" height="108.69"/></g><path class="cls-10" d="M235.44,165.39c-.83-8-1.91-16.3-3.29-25.08-16.57,54.56-74.43,47.27-106.77,78.19-32.33-30.92-90.13-23.63-106.7-78.19-1.38,8.78-2.47,17.12-3.3,25.08A71.75,71.75,0,0,1,2,165.32c25.3,55.9,97.62,46.13,123.41,83.68,25.79-37.55,98.11-27.78,123.42-83.68A71.85,71.85,0,0,1,235.44,165.39Z" transform="translate(-1.22 -1.25)"/><path class="cls-11" d="M26.64,172.64l-3.61,10-.74-.73,1.17-3.3-2.93-2.92-3.29,1.18-.75-.76,10-3.58ZM25.11,174l-3.62,1.29,2.33,2.32Z" transform="translate(-1.22 -1.25)"/><path class="cls-11" d="M24.77,184l5.82-7.62,1.58,1.21a10.25,10.25,0,0,1,2.28,2.17,4.21,4.21,0,0,1,.7,2.67A5.21,5.21,0,0,1,34,185.22a5.08,5.08,0,0,1-2,1.63,4,4,0,0,1-2.26.31,6.15,6.15,0,0,1-2.54-1.29Zm1.28-.16.88.68A11.05,11.05,0,0,0,29.27,186a3.21,3.21,0,0,0,2.12,0,3.91,3.91,0,0,0,1.86-1.4,4.08,4.08,0,0,0,.9-2.29,3.38,3.38,0,0,0-.67-2.21,10.75,10.75,0,0,0-2.19-2l-.54-.41Z" transform="translate(-1.22 -1.25)"/><polygon class="cls-11" points="31.72 188.9 37.76 181.33 37.9 181.41 37.27 190.17 44.59 185.34 44.72 185.42 41.05 194.39 40.24 193.91 42.9 187.52 36.5 191.71 36.28 191.59 36.83 183.89 32.51 189.37 31.72 188.9"/><polygon class="cls-11" points="47.33 186.7 48.18 187.13 43.86 195.7 43 195.27 47.33 186.7"/><polygon class="cls-11" points="46.02 196.81 49.98 188.07 50.17 188.15 52.95 197.48 55.99 190.79 56.85 191.18 52.89 199.91 52.69 199.83 49.92 190.59 46.92 197.21 46.02 196.81"/><polygon class="cls-11" points="58.75 191.94 59.63 192.31 55.96 201.16 55.07 200.8 58.75 191.94"/><path class="cls-11" d="M58.91,201.21l.94-.15c.14,1.19.56,1.93,1.26,2.2a2,2,0,0,0,.93.13,1.71,1.71,0,0,0,.82-.32,1.62,1.62,0,0,0,.5-.67,1.6,1.6,0,0,0,0-1,7.9,7.9,0,0,0-1-2,8.36,8.36,0,0,1-.9-1.77,2.4,2.4,0,0,1,.06-1.55,2.26,2.26,0,0,1,.7-1,2.16,2.16,0,0,1,1.08-.44,2.39,2.39,0,0,1,1.21.16,2.55,2.55,0,0,1,1.06.77,4.42,4.42,0,0,1,.71,1.61l-1,.27a3.81,3.81,0,0,0-.51-1.22,1.62,1.62,0,0,0-.69-.52,1.31,1.31,0,0,0-1,0,1.12,1.12,0,0,0-.66.67,1.45,1.45,0,0,0-.1.62,2.39,2.39,0,0,0,.2.76c.08.17.34.61.8,1.35a6.92,6.92,0,0,1,1,2.15,2.62,2.62,0,0,1-.1,1.51,2.44,2.44,0,0,1-1.4,1.4,2.66,2.66,0,0,1-2.07,0,2.81,2.81,0,0,1-1.31-1,4.3,4.3,0,0,1-.64-1.94" transform="translate(-1.22 -1.25)"/><polygon class="cls-11" points="66.3 195.97 66.64 195.09 71.55 196.96 71.22 197.83 69.22 197.07 66.16 205.17 65.24 204.82 68.3 196.73 66.3 195.97"/><path class="cls-11" d="M74,198.67l1.79.67a11.82,11.82,0,0,1,2,.87,2.55,2.55,0,0,1,1,1.27,2.38,2.38,0,0,1,0,1.68,2.55,2.55,0,0,1-.83,1.16,2.2,2.2,0,0,1-1.29.47,4.73,4.73,0,0,1-1.88-.36l1.68,5.37-1.11-.41L73.66,204l-.5-.19L71.6,208l-.89-.33Zm.58,1.22L73.48,203l1.55.59a4.07,4.07,0,0,0,1.39.32,1.51,1.51,0,0,0,.88-.3,1.6,1.6,0,0,0,.55-.75,1.58,1.58,0,0,0,.06-.91,1.41,1.41,0,0,0-.45-.77,3.93,3.93,0,0,0-1.26-.65Z" transform="translate(-1.22 -1.25)"/><path class="cls-11" d="M85.3,202.88l.77,10.55-1-.36-.29-3.49L81,208.11l-2.51,2.42-1-.38,7.64-7.36Zm-.84,1.86-2.77,2.66,3.07,1.17Z" transform="translate(-1.22 -1.25)"/><path class="cls-11" d="M98.67,210.2l-.93.24a4.12,4.12,0,0,0-.9-1.72,4.42,4.42,0,0,0-1.62-1.13,4.27,4.27,0,0,0-2.17-.32,4,4,0,0,0-2,.78,4.06,4.06,0,0,0-1.31,1.72,3.91,3.91,0,0,0,0,3.16,4.13,4.13,0,0,0,2.34,2.26,4.27,4.27,0,0,0,3.72-.15l.48.83a4.92,4.92,0,0,1-2.2.6,5.75,5.75,0,0,1-2.4-.46,5,5,0,0,1-3-3.09,5.11,5.11,0,0,1,.2-3.62,4.76,4.76,0,0,1,2.74-2.7,5.12,5.12,0,0,1,4,.11,5.48,5.48,0,0,1,2,1.43,4.73,4.73,0,0,1,1.06,2.06" transform="translate(-1.22 -1.25)"/><rect class="cls-11" x="94.83" y="213.55" width="9.59" height="0.96" transform="translate(-137.66 212.31) rotate(-64.92)"/><path class="cls-11" d="M108.64,212.93a5,5,0,0,1,2.5,3,5.06,5.06,0,1,1-9.32-1,5,5,0,0,1,1.82-1.93,4.83,4.83,0,0,1,2.49-.75,4.94,4.94,0,0,1,2.51.61m-.41.84a4.09,4.09,0,0,0-4.06.12,4.25,4.25,0,0,0-1.48,1.58,4.05,4.05,0,0,0,1.6,5.51,4.14,4.14,0,0,0,2.08.51,3.83,3.83,0,0,0,2-.59,4.2,4.2,0,0,0,1.47-1.57,4.08,4.08,0,0,0,.52-2.07,3.91,3.91,0,0,0-.61-2,4.14,4.14,0,0,0-1.53-1.47" transform="translate(-1.22 -1.25)"/><polygon class="cls-11" points="108.58 223.69 114.22 215.93 114.39 216.05 115.24 225.75 119.56 219.8 120.32 220.35 114.69 228.12 114.51 227.99 113.66 218.39 109.39 224.27 108.58 223.69"/><path class="cls-11" d="M136.63,229l-5.56-7.82L132.7,220a10.15,10.15,0,0,1,2.74-1.53,4.21,4.21,0,0,1,2.76.12,5.12,5.12,0,0,1,2.31,1.89,4.94,4.94,0,0,1,1,2.43,3.9,3.9,0,0,1-.38,2.25,6,6,0,0,1-2,2Zm.23-1.28.9-.64a10.77,10.77,0,0,0,2.11-1.8,3.23,3.23,0,0,0,.65-2,3.91,3.91,0,0,0-.79-2.18,4.15,4.15,0,0,0-1.92-1.55,3.39,3.39,0,0,0-2.31,0,11.18,11.18,0,0,0-2.58,1.5l-.55.39Z" transform="translate(-1.22 -1.25)"/><polygon class="cls-11" points="138.73 213.88 143.52 211.17 143.98 211.99 140.03 214.22 141.51 216.84 145.42 214.62 145.89 215.45 141.97 217.66 143.82 220.94 147.74 218.73 148.21 219.54 143.45 222.23 138.73 213.88"/><polygon class="cls-11" points="159.43 203.98 164.55 201.97 164.89 202.85 160.66 204.51 161.76 207.3 165.95 205.66 166.29 206.53 162.1 208.18 163.48 211.69 167.67 210.04 168.01 210.92 162.93 212.91 159.43 203.98"/><polygon class="cls-11" points="169.14 210.49 167.09 201.02 167.23 200.96 173.63 206.98 174.51 198.26 174.65 198.2 179.29 206.71 178.41 207.04 175.13 200.94 174.34 208.55 174.11 208.64 168.48 203.35 170.01 210.16 169.14 210.49"/><path class="cls-11" d="M178.87,198.35l1.79-.68a10.34,10.34,0,0,1,2.12-.65,2.43,2.43,0,0,1,1.55.3,2.35,2.35,0,0,1,1,1.3,2.4,2.4,0,0,1,.08,1.66,2.49,2.49,0,0,1-1,1.28,12.45,12.45,0,0,1-2.23,1l-.64.25,1.58,4.17-.9.34Zm1.23.53,1.15,3.05,1.53-.56a4,4,0,0,0,1.28-.68,1.47,1.47,0,0,0,.47-.79,1.65,1.65,0,0,0-.08-.93,1.6,1.6,0,0,0-.55-.73,1.41,1.41,0,0,0-.85-.29,4.08,4.08,0,0,0-1.37.34Z" transform="translate(-1.22 -1.25)"/><path class="cls-11" d="M186.11,195.59l1.77-.7a11.31,11.31,0,0,1,2.06-.69,2.5,2.5,0,0,1,1.6.26,2.4,2.4,0,0,1,1.08,1.27,2.54,2.54,0,0,1,.18,1.42,2.25,2.25,0,0,1-.65,1.22,4.88,4.88,0,0,1-1.64,1l4.86,2.85-1.1.44-4.86-2.85-.5.2,1.66,4.13-.89.36Zm1.24.52,1.21,3,1.54-.61a3.75,3.75,0,0,0,1.25-.7,1.43,1.43,0,0,0,.45-.8,1.56,1.56,0,0,0-.1-.93,1.5,1.5,0,0,0-.57-.72,1.44,1.44,0,0,0-.84-.26,4.17,4.17,0,0,0-1.37.36Z" transform="translate(-1.22 -1.25)"/><polygon class="cls-11" points="192.12 191.41 197.15 189.2 197.53 190.06 193.37 191.88 194.58 194.64 198.7 192.83 199.08 193.69 194.96 195.5 196.48 198.95 200.6 197.14 200.97 198 195.98 200.19 192.12 191.41"/><path class="cls-11" d="M202.28,197.24l.52-.79a2.44,2.44,0,0,0,2.48.54,1.9,1.9,0,0,0,.72-.6,1.54,1.54,0,0,0,.31-.82,1.61,1.61,0,0,0-.15-.82,1.67,1.67,0,0,0-.71-.71,7.67,7.67,0,0,0-2.16-.65,8.59,8.59,0,0,1-1.91-.52,2.41,2.41,0,0,1-1.11-1.1,2.22,2.22,0,0,1-.23-1.15,2.11,2.11,0,0,1,.4-1.1,2.37,2.37,0,0,1,.93-.79,2.52,2.52,0,0,1,1.29-.26,4.34,4.34,0,0,1,1.67.56l-.45.88a3.63,3.63,0,0,0-1.24-.44,1.48,1.48,0,0,0-.85.16,1.31,1.31,0,0,0-.7.73,1.19,1.19,0,0,0,.06.94,1.38,1.38,0,0,0,.38.49,2.13,2.13,0,0,0,.71.36c.16.06.68.16,1.53.32a7,7,0,0,1,2.26.71,2.73,2.73,0,0,1,1.05,1.09,2.43,2.43,0,0,1,.09,2,2.64,2.64,0,0,1-1.39,1.54,2.82,2.82,0,0,1-1.63.28,4.3,4.3,0,0,1-1.87-.83" transform="translate(-1.22 -1.25)"/><path class="cls-11" d="M208.85,185l8.67,6.08-.9.52-2.88-2-3.58,2.06.28,3.48-.93.54-.86-10.58Zm.92,1.83.31,3.83,2.84-1.64Z" transform="translate(-1.22 -1.25)"/><path class="cls-11" d="M217.32,189.06l.39-.86a2.43,2.43,0,0,0,2.54.16,1.8,1.8,0,0,0,.61-.7,1.57,1.57,0,0,0,.19-.86,1.53,1.53,0,0,0-.28-.78,1.6,1.6,0,0,0-.8-.6,7.56,7.56,0,0,0-2.23-.32,8.42,8.42,0,0,1-2-.23,2.37,2.37,0,0,1-1.25-.91,2.28,2.28,0,0,1-.41-1.11,2.22,2.22,0,0,1,.23-1.15,2.62,2.62,0,0,1,.8-.92,2.54,2.54,0,0,1,1.24-.44,4.38,4.38,0,0,1,1.73.3l-.3.93a3.72,3.72,0,0,0-1.3-.25,1.56,1.56,0,0,0-.81.29,1.32,1.32,0,0,0-.58.83,1.12,1.12,0,0,0,.19.92,1.39,1.39,0,0,0,.45.42,2.17,2.17,0,0,0,.76.26c.17,0,.69.05,1.56.08a6.89,6.89,0,0,1,2.34.37,2.63,2.63,0,0,1,1.2.91,2.46,2.46,0,0,1,.39,1.95,2.7,2.7,0,0,1-1.14,1.73,2.83,2.83,0,0,1-1.57.52,4.25,4.25,0,0,1-2-.54" transform="translate(-1.22 -1.25)"/><path class="cls-12" d="M90,150.23a4,4,0,0,0-.72-1.2L84.08,135.6a4.5,4.5,0,0,0-5.89-2.33l-.24.1A4.48,4.48,0,0,0,75.13,139l7.26,18.9a3.86,3.86,0,0,0,.73,1.2" transform="translate(-1.22 -1.25)"/><path class="cls-13" d="M90,150.23a4,4,0,0,0-.72-1.2L84.08,135.6a4.5,4.5,0,0,0-5.89-2.33l-.24.1A4.48,4.48,0,0,0,75.13,139l7.26,18.9a3.86,3.86,0,0,0,.73,1.2" transform="translate(-1.22 -1.25)"/><path class="cls-12" d="M161.9,152.81a3.94,3.94,0,0,1,.73-1.19l5.15-13.43a4.49,4.49,0,0,1,5.89-2.33l.24.09a4.48,4.48,0,0,1,2.82,5.68l-7.26,18.9a3.87,3.87,0,0,1-.72,1.19" transform="translate(-1.22 -1.25)"/><path class="cls-13" d="M161.9,152.81a3.94,3.94,0,0,1,.73-1.19l5.15-13.43a4.49,4.49,0,0,1,5.89-2.33l.24.09a4.48,4.48,0,0,1,2.82,5.68l-7.26,18.9a3.87,3.87,0,0,1-.72,1.19" transform="translate(-1.22 -1.25)"/><polygon class="cls-2" points="108.16 69.58 108.16 159.79 125.56 165.03 143.01 157.6 140.35 69.27 125.59 58.02 108.16 69.58"/><polygon class="cls-14" points="108.16 69.58 108.16 159.79 125.56 165.03 143.01 157.6 140.35 69.27 125.59 58.02 108.16 69.58"/><polyline class="cls-2" points="108.16 151.27 97.91 156.05 81.48 151.27 81.48 116.32 97.91 110.75 108.16 114.28"/><polyline class="cls-14" points="108.16 151.27 97.91 156.05 81.48 151.27 81.48 116.32 97.91 110.75 108.16 114.28"/><polygon class="cls-15" points="125.56 165.03 125.59 58.02 140.35 69.27 143.01 157.79 125.56 165.03"/><polyline class="cls-2" points="140.63 78.62 149.71 74.36 160.34 81.33 162.13 149.03 150.45 156.05 142.87 154.91"/><polyline class="cls-14" points="140.63 78.62 149.71 74.36 160.34 81.33 162.13 149.03 150.45 156.05 142.87 154.91"/><path class="cls-15" d="M109.38,161s3-79,3.59-83.36c.82-6.26,3.65-11.34,13.84-18.41L109.38,70.83Z" transform="translate(-1.22 -1.25)"/><polygon class="cls-15" points="97.91 110.75 97.91 156.05 108.16 151.27 108.16 114.28 97.91 110.75"/><path class="cls-15" d="M150.29,75.91s-7.75,5.31-8,7.1V79.46Z" transform="translate(-1.22 -1.25)"/><path class="cls-15" d="M82.69,152.52s.51-25.67,2.67-31.87c1.5-4.28,13.76-8.65,13.76-8.65l-16.43,5.57Z" transform="translate(-1.22 -1.25)"/><polygon class="cls-15" points="150.45 156.05 149.71 74.36 160.34 81.33 162.13 149.03 150.45 156.05"/><path class="cls-12" d="M83.63,149.41a12.63,12.63,0,0,0-1.19-2.21l-5.16-13.43a4.48,4.48,0,0,0-5.89-2.33l-.24.09a4.48,4.48,0,0,0-2.81,5.67l6.32,18.87c.18.45,1.36.88,1.66,1.23" transform="translate(-1.22 -1.25)"/><path class="cls-13" d="M83.63,149.41a12.63,12.63,0,0,0-1.19-2.21l-5.16-13.43a4.48,4.48,0,0,0-5.89-2.33l-.24.09a4.48,4.48,0,0,0-2.81,5.67l6.32,18.87c.18.45,1.36.88,1.66,1.23" transform="translate(-1.22 -1.25)"/><path class="cls-12" d="M77.89,150.82a42.51,42.51,0,0,0-1.89-4.1l-5.15-13.43A4.5,4.5,0,0,0,65,131l-.24.09a4.48,4.48,0,0,0-2.81,5.67l7.25,18.91a3.89,3.89,0,0,0,.73,1.19" transform="translate(-1.22 -1.25)"/><path class="cls-13" d="M77.89,150.82a42.51,42.51,0,0,0-1.89-4.1l-5.15-13.43A4.5,4.5,0,0,0,65,131l-.24.09a4.48,4.48,0,0,0-2.81,5.67l7.25,18.91a3.89,3.89,0,0,0,.73,1.19" transform="translate(-1.22 -1.25)"/><path class="cls-12" d="M131.62,172.51c-1.9-3.09-7.35-11.49-12.2-14.5" transform="translate(-1.22 -1.25)"/><path class="cls-12" d="M119.42,158a4.79,4.79,0,0,0-1.87-.9l-34.88-7.92a5.59,5.59,0,0,0-2.48,10.9l18.32,4.17,2.43.55H101a.54.54,0,1,1-.24,1.05h-.06v0L78.89,160c-2.27-1.67-2.74-2.68-3-6.21a2.49,2.49,0,0,1,.91-2.23L71.61,146a4.23,4.23,0,0,0-1-.93L61.72,133.7a4.49,4.49,0,0,0-6.32-.51l-.2.16a4.48,4.48,0,0,0-1,6.24l12.45,16a4.14,4.14,0,0,0,1,.93l8.85,11.35a4.07,4.07,0,0,0,1.83,1.3,1.15,1.15,0,0,0,.31.11l27.72,6.3c6,1.37,8.91,10.73,8.91,10.73l17-12.61s-.25-.44-.7-1.16" transform="translate(-1.22 -1.25)"/><path class="cls-13" d="M131.62,172.51c-1.9-3.09-7.35-11.49-12.2-14.5a4.79,4.79,0,0,0-1.87-.9l-34.88-7.92a5.59,5.59,0,0,0-2.48,10.9l18.32,4.17,2.43.55H101a.54.54,0,1,1-.24,1.05h-.06v0L78.89,160c-2.27-1.67-2.74-2.68-3-6.21a2.49,2.49,0,0,1,.91-2.23c-2.69-2.93-5.61-5.78-8.05-8.9q-1.47-1.9-3-3.8-2-2.6-4-5.17a4.49,4.49,0,0,0-6.32-.51l-.2.16a4.48,4.48,0,0,0-1,6.24l12.45,16a4.14,4.14,0,0,0,1,.93l8.85,11.35a4.07,4.07,0,0,0,1.83,1.3,1.15,1.15,0,0,0,.31.11l27.72,6.3c4.51,1,7.27,6.55,8.36,9.25" transform="translate(-1.22 -1.25)"/><path class="cls-12" d="M168.23,152a13,13,0,0,1,1.19-2.21l5.16-13.43a4.49,4.49,0,0,1,5.89-2.33l.24.09a4.5,4.5,0,0,1,2.82,5.68l-6.33,18.86c-.17.45-1.35.89-1.66,1.23" transform="translate(-1.22 -1.25)"/><path class="cls-13" d="M168.23,152a13,13,0,0,1,1.19-2.21l5.16-13.43a4.49,4.49,0,0,1,5.89-2.33l.24.09a4.5,4.5,0,0,1,2.82,5.68l-6.33,18.86c-.17.45-1.35.89-1.66,1.23" transform="translate(-1.22 -1.25)"/><path class="cls-12" d="M174,153.4a39.15,39.15,0,0,1,1.9-4.09L181,135.88a4.5,4.5,0,0,1,5.89-2.34l.24.09a4.51,4.51,0,0,1,2.82,5.68l-7.26,18.9a4,4,0,0,1-.72,1.2" transform="translate(-1.22 -1.25)"/><path class="cls-13" d="M174,153.4a39.15,39.15,0,0,1,1.9-4.09L181,135.88a4.5,4.5,0,0,1,5.89-2.34l.24.09a4.51,4.51,0,0,1,2.82,5.68l-7.26,18.9a4,4,0,0,1-.72,1.2" transform="translate(-1.22 -1.25)"/><path class="cls-12" d="M120.54,174.61c2.12-3.4,7.29-11.15,11.91-14a4.49,4.49,0,0,1,1.86-.9l34.88-7.93a5.59,5.59,0,0,1,2.48,10.91l-18.32,4.16-2.42.55-.07,0a.53.53,0,1,0,.24,1h.06v0L173,162.6c2.27-1.67,2.75-2.68,3-6.21a2.48,2.48,0,0,0-.91-2.24c-.1-.11,7.38-8,8.06-8.91l3-3.84,4-5.12a4.5,4.5,0,0,1,6.32-.51l.2.16a4.49,4.49,0,0,1,1,6.25l-12.45,16a4,4,0,0,1-1,.93l-8.85,11.35a4.06,4.06,0,0,1-1.82,1.31,1.7,1.7,0,0,1-.32.1l-27.71,6.3c-4.28,1-7.21,5.55-8.82,8.39,0,0-2.6,3.88-10.22,3.81s-9.94-3.1-11.53-5Z" transform="translate(-1.22 -1.25)"/><path class="cls-13" d="M120.54,174.61c2.12-3.4,7.29-11.15,11.91-14a4.49,4.49,0,0,1,1.86-.9l34.88-7.93a5.59,5.59,0,0,1,2.48,10.91l-18.32,4.16-2.42.55-.07,0a.53.53,0,1,0,.24,1h.06v0L173,162.6c2.27-1.67,2.75-2.68,3-6.21a2.48,2.48,0,0,0-.91-2.24l5.15-5.59a3.86,3.86,0,0,1,1.05-.93l8.84-11.35a4.5,4.5,0,0,1,6.32-.51l.2.16a4.49,4.49,0,0,1,1,6.25l-12.45,16a4,4,0,0,1-1,.93l-8.85,11.35a4.06,4.06,0,0,1-1.82,1.31,1.7,1.7,0,0,1-.32.1l-27.71,6.3c-4.28,1-6.83,5.84-8.73,8.82,0,0-2.69,3.75-10.31,3.68s-9.58-2.63-11.53-5.27Z" transform="translate(-1.22 -1.25)"/><polygon class="cls-15" points="111.78 107.59 116.87 101.21 116.87 114.8 111.78 120.86 111.78 107.59"/><polygon class="cls-15" points="111.78 83.98 116.87 77.59 116.87 91.18 111.78 97.25 111.78 83.98"/><polygon class="cls-15" points="143.01 98.54 148.1 92.14 148.1 105.75 143.01 111.83 143.01 98.54"/><polygon class="cls-15" points="143.01 124.49 148.1 117.85 148.1 131.97 143.01 138.27 143.01 124.49"/><polygon class="cls-15" points="111.78 134.38 116.87 128.76 116.87 140.72 111.78 146.05 111.78 134.38"/><polygon class="cls-15" points="83.38 128.37 88.47 125.98 88.47 138.85 83.38 141.48 83.38 128.37"/><path class="cls-11" d="M90.14,128.84s-4.21,1.23-4.28,7.23,0,7.2,0,7.2l4.8-1.86Z" transform="translate(-1.22 -1.25)"/><path class="cls-11" d="M118.93,81.46s-4.21,1.29-4.28,7.63,0,7.62,0,7.62l4.8-2Z" transform="translate(-1.22 -1.25)"/><path class="cls-11" d="M118.93,105.15s-4.21,1.3-4.28,7.64,0,7.62,0,7.62l4.8-2Z" transform="translate(-1.22 -1.25)"/><path class="cls-11" d="M118.93,132.68s-4.21,1.29-4.28,7.63,0,7.62,0,7.62l4.8-2Z" transform="translate(-1.22 -1.25)"/><path class="cls-11" d="M150,97.53s-4.21,1.29-4.28,7.63,0,7.62,0,7.62l4.8-2Z" transform="translate(-1.22 -1.25)"/><path class="cls-11" d="M150,123s-4.21,1.29-4.28,7.63,0,7.62,0,7.62l4.8-2Z" transform="translate(-1.22 -1.25)"/><line class="cls-16" x1="110.15" y1="211.07" x2="114.45" y2="211.07"/></svg>