<?xml version="1.0" encoding="utf-8"?>
<!-- Generator: Adobe Illustrator 17.0.0, SVG Export Plug-In . SVG Version: 6.00 Build 0)  -->
<!DOCTYPE svg PUBLIC "-//W3C//DTD SVG 1.1//EN" "http://www.w3.org/Graphics/SVG/1.1/DTD/svg11.dtd">
<svg version="1.1" id="Capa_1" xmlns="http://www.w3.org/2000/svg" xmlns:xlink="http://www.w3.org/1999/xlink" x="0px" y="0px"
	 width="144.48px" height="132.67px" viewBox="0 0 144.48 132.67" enable-background="new 0 0 144.48 132.67" xml:space="preserve">
<g>
	<path opacity="0.9" fill="#003F42" d="M94.754,55.866c0.151,0.804,0.231,1.635,0.231,2.483c0,7.378-5.98,13.358-13.356,13.358
		c-7.378,0-13.358-5.98-13.358-13.358c0-7.378,5.98-13.358,13.358-13.358c1.592,0,3.122,0.279,4.537,0.79
		c-3.972-2.696-8.766-4.272-13.928-4.272c-13.711,0-24.824,11.113-24.824,24.824c0,6.853,2.776,13.058,7.265,17.55l0.621-1.8
		l2.339,2.423l-1.89,0.385c4.384,3.901,10.161,6.269,16.489,6.269c13.711,0,24.827-11.116,24.827-24.827
		C97.065,62.593,96.239,59.045,94.754,55.866z M72.786,70.615L59.497,82.91c-0.424,0.392-1.324,0.11-2.006-0.63
		c-0.447-0.481-0.689-1.038-0.689-1.477c0-0.234,0.069-0.435,0.218-0.573l13.289-12.295c0.426-0.392,1.324-0.11,2.009,0.63
		C73.002,69.305,73.212,70.223,72.786,70.615z M77.674,53.835c-0.609,0-1.102,0.492-1.102,1.099c0,0.609,0.492,1.102,1.102,1.102
		c0.607,0,1.099-0.492,1.099-1.102C78.774,54.327,78.281,53.835,77.674,53.835z M77.674,57.772c-0.609,0-1.102,0.492-1.102,1.099
		c0,0.609,0.492,1.102,1.102,1.102c0.607,0,1.099-0.492,1.099-1.102C78.774,58.264,78.281,57.772,77.674,57.772z M77.674,61.709
		c-0.609,0-1.102,0.492-1.102,1.099c0,0.609,0.492,1.102,1.102,1.102c0.607,0,1.099-0.492,1.099-1.102
		C78.774,62.202,78.281,61.709,77.674,61.709z"/>
	<g>
		<circle fill="#227FA4" cx="77.673" cy="62.809" r="1.101"/>
		<circle fill="#227FA4" cx="77.673" cy="58.871" r="1.101"/>
		<circle fill="#227FA4" cx="77.673" cy="54.934" r="1.101"/>
		<line fill="none" x1="55.75" y1="84.891" x2="54.68" y2="83.884"/>
	</g>
	<circle opacity="0.9" fill="#003F42" cx="77.673" cy="54.934" r="1.101"/>
	<circle opacity="0.9" fill="#003F42" cx="77.673" cy="58.871" r="1.101"/>
	<circle opacity="0.9" fill="#003F42" cx="77.673" cy="62.809" r="1.101"/>
	
		<line opacity="0.9" fill="none" stroke="#003F42" stroke-width="0.3868" stroke-miterlimit="10" x1="78.404" y1="54.935" x2="85.538" y2="54.935"/>
	
		<line opacity="0.9" fill="none" stroke="#003F42" stroke-width="0.3868" stroke-miterlimit="10" x1="78.404" y1="58.872" x2="87.501" y2="58.872"/>
	
		<line opacity="0.9" fill="none" stroke="#003F42" stroke-width="0.3868" stroke-miterlimit="10" x1="78.404" y1="62.81" x2="88.948" y2="62.81"/>
	<polyline opacity="0.9" fill="none" stroke="#003F42" stroke-width="0.3868" stroke-miterlimit="10" points="85.092,58.828 
		86.739,56.987 89.372,56.987 	"/>
	<polyline opacity="0.9" fill="none" stroke="#003F42" stroke-width="0.3868" stroke-miterlimit="10" points="82.952,58.916 
		84.599,60.757 87.232,60.757 	"/>
</g>
</svg>
