<?xml version="1.0" encoding="utf-8"?>
<!-- Generator: Adobe Illustrator 17.0.0, SVG Export Plug-In . SVG Version: 6.00 Build 0)  -->
<!DOCTYPE svg PUBLIC "-//W3C//DTD SVG 1.1//EN" "http://www.w3.org/Graphics/SVG/1.1/DTD/svg11.dtd">
<svg version="1.1" id="Capa_1" xmlns="http://www.w3.org/2000/svg" xmlns:xlink="http://www.w3.org/1999/xlink" x="0px" y="0px"
	 width="148.571px" height="114.286px" viewBox="0 0 148.571 114.286" enable-background="new 0 0 148.571 114.286"
	 xml:space="preserve">
<g>
	<g>
		<path fill="#205493" d="M95.727,26.337H52.843c-5.173,0-9.365,4.191-9.365,9.358v42.89c0,5.173,4.192,9.365,9.365,9.365h42.884
			c5.173,0,9.365-4.191,9.365-9.365v-42.89C105.091,30.529,100.9,26.337,95.727,26.337z M92.007,45.506l-4.088,0.006
			c-3.21,0-3.83,1.524-3.83,3.759v4.934h7.647l-0.995,7.724h-6.652V81.75h-7.976V61.93h-6.672v-7.724h6.672V48.51
			c0-6.613,4.036-10.217,9.933-10.217c2.829,0,5.257,0.213,5.961,0.31C92.007,38.603,92.007,45.506,92.007,45.506z"/>
	</g>
</g>
</svg>
