<?xml version="1.0" encoding="utf-8"?>
<!-- Generator: Adobe Illustrator 17.0.0, SVG Export Plug-In . SVG Version: 6.00 Build 0)  -->
<!DOCTYPE svg PUBLIC "-//W3C//DTD SVG 1.1//EN" "http://www.w3.org/Graphics/SVG/1.1/DTD/svg11.dtd">
<svg version="1.1" id="Capa_1" xmlns="http://www.w3.org/2000/svg" xmlns:xlink="http://www.w3.org/1999/xlink" x="0px" y="0px"
	 width="144.48px" height="132.67px" viewBox="0 0 144.48 132.67" enable-background="new 0 0 144.48 132.67" xml:space="preserve">
<g>
	<g>
		<path fill="#003F42" d="M89.604,41.388H54.876c-4.189,0-7.584,3.394-7.584,7.578v34.733c0,4.189,3.394,7.584,7.584,7.584h34.727
			c4.189,0,7.584-3.394,7.584-7.584V48.966C97.187,44.782,93.793,41.388,89.604,41.388z M86.591,56.91l-3.311,0.005
			c-2.599,0-3.101,1.234-3.101,3.044v3.996h6.192l-0.805,6.255h-5.387v16.051H73.72V70.21h-5.403v-6.255h5.403v-4.613
			c0-5.356,3.269-8.274,8.044-8.274c2.291,0,4.257,0.173,4.827,0.251V56.91z"/>
	</g>
</g>
</svg>
