<?xml version="1.0" encoding="utf-8"?>
<!-- Generator: Adobe Illustrator 17.0.0, SVG Export Plug-In . SVG Version: 6.00 Build 0)  -->
<!DOCTYPE svg PUBLIC "-//W3C//DTD SVG 1.1//EN" "http://www.w3.org/Graphics/SVG/1.1/DTD/svg11.dtd">
<svg version="1.1" id="Capa_1" xmlns="http://www.w3.org/2000/svg" xmlns:xlink="http://www.w3.org/1999/xlink" x="0px" y="0px"
	 width="163px" height="160.5px" viewBox="0 0 163 160.5" enable-background="new 0 0 163 160.5" xml:space="preserve">
<g>
	<g>
		<radialGradient id="SVGID_1_" cx="81.4509" cy="79.8463" r="78.4816" gradientUnits="userSpaceOnUse">
			<stop  offset="0.4049" style="stop-color:#FFFFFF"/>
			<stop  offset="1" style="stop-color:#BADFE7"/>
		</radialGradient>
		<circle fill="url(#SVGID_1_)" cx="81.45" cy="79.85" r="78.48"/>
		<radialGradient id="SVGID_2_" cx="81.2195" cy="78.8586" r="55.9719" gradientUnits="userSpaceOnUse">
			<stop  offset="0.6524" style="stop-color:#FFFFFF"/>
			<stop  offset="0.8584" style="stop-color:#C2DBD4"/>
			<stop  offset="1" style="stop-color:#45A48A"/>
		</radialGradient>
		<circle fill="url(#SVGID_2_)" cx="81.22" cy="78.86" r="55.97"/>
		<g>
			<circle fill="none" cx="81.22" cy="78.86" r="59.1"/>
			<text transform="matrix(-0.3036 -0.9528 0.9528 -0.3036 25.3941 98.3906)"><tspan x="0" y="0" fill="#44877D" font-family="'MyriadPro-Regular'" font-size="15.5055"> </tspan><tspan x="3.06" y="-0.1" fill="#44877D" font-family="'MyriadPro-Regular'" font-size="15.5055" rotate="5.06">F</tspan><tspan x="10.23" y="0.44" fill="#44877D" font-family="'MyriadPro-Regular'" font-size="15.5055" rotate="12.96">A</tspan><tspan x="19.13" y="2.48" fill="#44877D" font-family="'MyriadPro-Regular'" font-size="15.5055" rotate="21.44">C</tspan><tspan x="27.17" y="5.56" fill="#44877D" font-family="'MyriadPro-Regular'" font-size="15.5055" rotate="30.27">U</tspan><tspan x="35.51" y="10.51" fill="#44877D" font-family="'MyriadPro-Regular'" font-size="15.5055" rotate="38.41">L</tspan><tspan x="41.02" y="14.84" fill="#44877D" font-family="'MyriadPro-Regular'" font-size="15.5055" rotate="45.41">T</tspan><tspan x="46.25" y="20.03" fill="#44877D" font-family="'MyriadPro-Regular'" font-size="15.5055" rotate="53.4">A</tspan><tspan x="51.73" y="27.29" fill="#44877D" font-family="'MyriadPro-Regular'" font-size="15.5055" rotate="62.55">D</tspan><tspan x="56.19" y="36.28" fill="#44877D" font-family="'MyriadPro-Regular'" font-size="15.5055" rotate="68.83"> </tspan><tspan x="57.34" y="39.21" fill="#44877D" font-family="'MyriadPro-Regular'" font-size="15.5055" rotate="71.87"> </tspan><tspan x="58.32" y="42.19" fill="#44877D" font-family="'MyriadPro-Regular'" font-size="15.5055" rotate="74.9"> </tspan><tspan x="59.14" y="45.23" fill="#44877D" font-family="'MyriadPro-Regular'" font-size="15.5055" rotate="77.95"> </tspan><tspan x="59.98" y="48.15" fill="#44877D" font-family="'MyriadPro-Regular'" font-size="15.5055" rotate="84.31">D</tspan><tspan x="60.89" y="58.07" fill="#44877D" font-family="'MyriadPro-Regular'" font-size="15.5055" rotate="92.71">E</tspan><tspan x="60.46" y="65.44" fill="#44877D" font-family="'MyriadPro-Regular'" font-size="15.5055" rotate="97.8"> </tspan><tspan x="60.04" y="68.55" fill="#44877D" font-family="'MyriadPro-Regular'" font-size="15.5055" rotate="100.84"> </tspan><tspan x="59.45" y="71.66" fill="#44877D" font-family="'MyriadPro-Regular'" font-size="15.5055" rotate="103.89"> </tspan><tspan x="58.69" y="74.72" fill="#44877D" font-family="'MyriadPro-Regular'" font-size="15.5055" rotate="106.75"> </tspan><tspan x="57.78" y="77.73" fill="#44877D" font-family="'MyriadPro-Regular'" font-size="15.5055" rotate="109.9"> </tspan><tspan x="56.84" y="80.65" fill="#44877D" font-family="'MyriadPro-Regular'" font-size="15.5055" rotate="114.94">S</tspan><tspan x="53.84" y="87.31" fill="#44877D" font-family="'MyriadPro-Regular'" font-size="15.5055" rotate="122.93">A</tspan><tspan x="48.82" y="94.96" fill="#44877D" font-family="'MyriadPro-Regular'" font-size="15.5055" rotate="130.8">L</tspan><tspan x="44.36" y="100.31" fill="#44877D" font-family="'MyriadPro-Regular'" font-size="15.5055" rotate="138.88">U</tspan><tspan x="37.13" y="106.68" fill="#44877D" font-family="'MyriadPro-Regular'" font-size="15.5055" rotate="148.3">D</tspan><tspan x="28.49" y="111.81" fill="#44877D" font-family="'MyriadPro-Regular'" font-size="15.5055" rotate="154.6"> </tspan><tspan x="25.64" y="113.16" fill="#44877D" font-family="'MyriadPro-Regular'" font-size="15.5055" rotate="157.63"> </tspan><tspan x="22.73" y="114.37" fill="#44877D" font-family="'MyriadPro-Regular'" font-size="15.5055" rotate="160.67"> </tspan><tspan x="19.77" y="115.41" fill="#44877D" font-family="'MyriadPro-Regular'" font-size="15.5055" rotate="163.7"> </tspan><tspan x="16.88" y="116.39" fill="#44877D" font-family="'MyriadPro-Regular'" font-size="15.5055" rotate="169.06">P</tspan><tspan x="9.15" y="117.98" fill="#44877D" font-family="'MyriadPro-Regular'" font-size="15.5055" rotate="177.59">Ú</tspan><tspan x="-0.49" y="118.35" fill="#44877D" font-family="'MyriadPro-Regular'" font-size="15.5055" rotate="-173.8">B</tspan><tspan x="-8.53" y="117.46" fill="#44877D" font-family="'MyriadPro-Regular'" font-size="15.5055" rotate="-166.49">L</tspan><tspan x="-15.39" y="115.74" fill="#44877D" font-family="'MyriadPro-Regular'" font-size="15.5055" rotate="-161.39">I</tspan><tspan x="-18.71" y="114.79" fill="#44877D" font-family="'MyriadPro-Regular'" font-size="15.5055" rotate="-155.62">C</tspan><tspan x="-26.59" y="111.27" fill="#44877D" font-family="'MyriadPro-Regular'" font-size="15.5055" rotate="-147">A</tspan></text>
		</g>
		<g>
			<path d="M115.32,57.51c0.04,1.04-0.09,1.21-1.15,1.4c-1.48,0.26-2.93,0.11-4.37-0.28c-0.18-0.05-0.36-0.1-0.54-0.15
				c-0.02-0.01-0.05,0.01-0.13,0.03c-0.05,0.3-0.08,0.63-0.15,0.94c-0.22,1.05-0.84,1.57-1.91,1.64c-0.93,0.06-1.83-0.11-2.7-0.4
				c-0.39-0.13-0.56-0.08-0.73,0.33c-0.68,1.59-1.82,2.14-3.63,1.76c-0.67-0.14-1.33-0.35-1.99-0.53c-0.22-0.06-0.42-0.1-0.53,0.17
				c-0.58,1.37-1.78,1.68-3.15,1.28c-0.83-0.24-1.62-0.63-2.4-1.02c-0.41-0.2-0.73-0.29-1.04,0.13c-0.08,0.1-0.19,0.17-0.28,0.27
				c-0.97,1.15-2.22,1.42-3.61,1.08c-1.16-0.28-2.31-0.64-3.46-0.96c-0.23-0.06-0.35-0.17-0.35-0.45c0.06-2.57,0.1-5.15,0.15-7.72
				c0-0.08,0.03-0.16,0.04-0.23c0.55,0,1.08,0.06,1.59-0.01c0.95-0.14,1.68-0.68,2.1-1.54c0.51-1.04,0.96-2.12,1.44-3.17
				c0.63-1.37,1.42-2.62,2.63-3.57c1.1-0.86,2.29-1.2,3.6-0.67c1.61,0.66,3.22,1.33,4.78,2.1c2.79,1.38,5.52,2.9,8.44,4.02
				c2.43,0.93,4.91,1.61,7.54,1.59c1.35-0.01,2.66-0.27,3.95-0.7c0.68-0.23,1.4-0.39,2.12-0.47c0.81-0.1,1.06,0.29,0.72,1.04
				c-0.62,1.34-1.71,2.21-2.93,2.94c-1.15,0.7-2.41,1.03-3.75,1.1c-0.07,0-0.14,0.01-0.21,0.02
				C115.4,57.47,115.37,57.49,115.32,57.51z"/>
			<path d="M54.2,58.56c-0.6,0.14-1.16,0.31-1.72,0.41c-1.2,0.21-2.42,0.28-3.62-0.04c-0.22-0.06-0.46-0.13-0.62-0.28
				c-0.14-0.14-0.29-0.42-0.25-0.58c0.15-0.51-0.09-0.58-0.48-0.59c-2.01-0.08-3.7-0.92-5.15-2.3c-0.46-0.43-0.8-0.98-1.19-1.49
				c-0.09-0.12-0.15-0.28-0.2-0.44c-0.21-0.64-0.01-0.99,0.63-0.93c0.73,0.07,1.48,0.2,2.17,0.45c2.18,0.8,4.4,0.92,6.67,0.54
				c3.33-0.56,6.37-1.94,9.36-3.45c2.46-1.24,4.91-2.52,7.39-3.72c0.73-0.35,1.54-0.57,2.33-0.72c1.23-0.23,2.18,0.46,3.05,1.22
				c1.29,1.13,1.99,2.67,2.65,4.22c0.3,0.7,0.57,1.41,0.91,2.09c0.75,1.5,1.91,2.09,3.54,1.84c0.07-0.01,0.14-0.02,0.27-0.05
				c0.03,0.44,0.07,0.85,0.07,1.27c0.04,2.29,0.06,4.59,0.1,6.88c0,0.24-0.02,0.42-0.3,0.49c-1.28,0.34-2.56,0.72-3.85,1.03
				c-1.19,0.28-2.21-0.08-3.08-0.99c-0.85-0.89-0.88-0.85-1.94-0.28c-0.9,0.49-1.85,0.87-2.89,0.9c-0.96,0.03-1.7-0.38-2.11-1.29
				c-0.17-0.39-0.37-0.43-0.73-0.32c-0.74,0.22-1.48,0.43-2.24,0.57c-1.55,0.28-2.62-0.3-3.24-1.79c-0.19-0.46-0.38-0.52-0.82-0.38
				c-1,0.33-2.02,0.55-3.08,0.31c-0.89-0.2-1.4-0.8-1.51-1.74C54.28,59.14,54.24,58.87,54.2,58.56z"/>
			
				<linearGradient id="SVGID_3_" gradientUnits="userSpaceOnUse" x1="648.5369" y1="78.74" x2="651.4387" y2="78.74" gradientTransform="matrix(-1 0 0 1 731.6885 0)">
				<stop  offset="0" style="stop-color:#2D2522"/>
				<stop  offset="0.1659" style="stop-color:#FFFFFF"/>
				<stop  offset="1" style="stop-color:#000000"/>
			</linearGradient>
			<path fill="url(#SVGID_3_)" d="M82.98,84.26c-0.67-0.48-1.36-0.96-2.04-1.44c-0.17-0.12-0.33-0.24-0.5-0.35l-0.19-8.13
				c0.8-0.33,1.8-0.71,2.9-1.11L82.98,84.26z"/>
			
				<linearGradient id="SVGID_4_" gradientUnits="userSpaceOnUse" x1="649.0323" y1="110.3283" x2="650.7188" y2="110.3283" gradientTransform="matrix(-1 0 0 1 731.6885 0)">
				<stop  offset="0" style="stop-color:#2D2522"/>
				<stop  offset="0.1659" style="stop-color:#FFFFFF"/>
				<stop  offset="1" style="stop-color:#000000"/>
			</linearGradient>
			<path fill="url(#SVGID_4_)" d="M80.97,105.91c0.52-0.52,1.09-1.09,1.69-1.64l-0.19,12.13c-0.41-0.59-0.85-1.16-1.29-1.72
				L80.97,105.91z"/>
			
				<linearGradient id="SVGID_5_" gradientUnits="userSpaceOnUse" x1="648.7971" y1="94.4032" x2="651.1292" y2="94.4032" gradientTransform="matrix(-1 0 0 1 731.6885 0)">
				<stop  offset="0" style="stop-color:#2D2522"/>
				<stop  offset="0.1659" style="stop-color:#FFFFFF"/>
				<stop  offset="1" style="stop-color:#000000"/>
			</linearGradient>
			<path fill="url(#SVGID_5_)" d="M80.86,100.9l-0.3-12.98c0.88,0.59,1.66,1.12,2.33,1.62l-0.15,9.48
				C82.13,99.64,81.48,100.28,80.86,100.9z"/>
			
				<linearGradient id="SVGID_6_" gradientUnits="userSpaceOnUse" x1="647.9241" y1="58.7801" x2="652.5817" y2="58.7801" gradientTransform="matrix(-1 0 0 1 731.6885 0)">
				<stop  offset="0" style="stop-color:#2D2522"/>
				<stop  offset="0.1659" style="stop-color:#FFFFFF"/>
				<stop  offset="1" style="stop-color:#000000"/>
			</linearGradient>
			<path fill="url(#SVGID_6_)" d="M81.61,70.99c-0.51,0.15-1.04,0.3-1.58,0.46l-0.92-25.33c0.67,0.28,1.47,0.44,2.33,0.44
				s1.66-0.16,2.33-0.44l-0.62,24.43C82.65,70.68,82.14,70.83,81.61,70.99z"/>
			
				<linearGradient id="SVGID_7_" gradientUnits="userSpaceOnUse" x1="649.2938" y1="124.7295" x2="650.4229" y2="124.7295" gradientTransform="matrix(-1 0 0 1 731.6885 0)">
				<stop  offset="0" style="stop-color:#2D2522"/>
				<stop  offset="0.1659" style="stop-color:#FFFFFF"/>
				<stop  offset="1" style="stop-color:#000000"/>
			</linearGradient>
			<path fill="url(#SVGID_7_)" d="M81.38,119.03c0.42,0.55,0.75,1.1,1.02,1.63l-0.14,8.7l-0.36,1.2l-0.39-1.2l-0.24-10.48
				C81.3,118.94,81.34,118.98,81.38,119.03z"/>
			<radialGradient id="SVGID_8_" cx="102.5782" cy="54.1602" r="15.2459" gradientUnits="userSpaceOnUse">
				<stop  offset="0.4975" style="stop-color:#5B5B5F"/>
				<stop  offset="1" style="stop-color:#000000"/>
			</radialGradient>
			<path fill="url(#SVGID_8_)" d="M114.96,56.71c0.03,1.03-0.09,1.2-1.14,1.39c-1.46,0.26-2.91,0.11-4.33-0.28
				c-0.18-0.05-0.35-0.1-0.53-0.14c-0.02-0.01-0.05,0.01-0.13,0.03c-0.05,0.3-0.08,0.62-0.14,0.93c-0.22,1.04-0.84,1.55-1.9,1.62
				c-0.92,0.06-1.81-0.11-2.67-0.39c-0.38-0.13-0.56-0.08-0.73,0.32c-0.68,1.58-1.8,2.12-3.6,1.74c-0.66-0.14-1.31-0.34-1.97-0.53
				c-0.22-0.06-0.42-0.1-0.53,0.17c-0.58,1.36-1.77,1.67-3.13,1.27c-0.82-0.24-1.6-0.63-2.38-1.01c-0.41-0.2-0.73-0.28-1.03,0.13
				c-0.07,0.1-0.19,0.17-0.27,0.27c-0.96,1.14-2.2,1.41-3.58,1.07c-1.15-0.28-2.29-0.63-3.44-0.95c-0.23-0.06-0.35-0.17-0.35-0.45
				c0.06-2.55,0.1-5.1,0.15-7.65c0-0.08,0.03-0.16,0.04-0.23c0.54,0,1.07,0.06,1.58-0.01c0.94-0.14,1.66-0.67,2.08-1.53
				c0.51-1.03,0.95-2.1,1.43-3.15c0.62-1.36,1.41-2.59,2.61-3.54c1.09-0.86,2.27-1.19,3.57-0.66c1.6,0.65,3.2,1.32,4.74,2.08
				c2.77,1.37,5.47,2.88,8.37,3.98c2.41,0.92,4.87,1.6,7.48,1.57c1.34-0.01,2.64-0.26,3.91-0.69c0.68-0.23,1.39-0.39,2.1-0.47
				c0.81-0.1,1.05,0.29,0.71,1.03c-0.61,1.32-1.69,2.19-2.9,2.92c-1.14,0.69-2.39,1.02-3.71,1.09c-0.07,0-0.14,0.01-0.21,0.02
				C115.04,56.67,115.01,56.69,114.96,56.71z"/>
			
				<radialGradient id="SVGID_9_" cx="614.2145" cy="54.1602" r="15.2459" gradientTransform="matrix(-1 0 0 1 674.4396 0)" gradientUnits="userSpaceOnUse">
				<stop  offset="0.4975" style="stop-color:#5B5B5F"/>
				<stop  offset="1" style="stop-color:#000000"/>
			</radialGradient>
			<path fill="url(#SVGID_9_)" d="M47.84,56.71c-0.03,1.03,0.09,1.2,1.14,1.39c1.46,0.26,2.91,0.11,4.33-0.28
				c0.18-0.05,0.35-0.1,0.53-0.14c0.02-0.01,0.05,0.01,0.13,0.03c0.05,0.3,0.08,0.62,0.14,0.93c0.22,1.04,0.84,1.55,1.9,1.62
				c0.92,0.06,1.81-0.11,2.67-0.39c0.38-0.13,0.56-0.08,0.73,0.32c0.68,1.58,1.8,2.12,3.6,1.74c0.66-0.14,1.31-0.34,1.97-0.53
				c0.22-0.06,0.42-0.1,0.53,0.17c0.58,1.36,1.77,1.67,3.13,1.27c0.82-0.24,1.6-0.63,2.38-1.01c0.41-0.2,0.73-0.28,1.03,0.13
				c0.07,0.1,0.19,0.17,0.27,0.27c0.96,1.14,2.2,1.41,3.58,1.07c1.15-0.28,2.29-0.63,3.44-0.95c0.23-0.06,0.35-0.17,0.35-0.45
				c-0.06-2.55-0.1-5.1-0.15-7.65c0-0.08-0.03-0.16-0.04-0.23c-0.54,0-1.07,0.06-1.58-0.01c-0.94-0.14-1.66-0.67-2.08-1.53
				c-0.51-1.03-0.95-2.1-1.43-3.15c-0.62-1.36-1.41-2.59-2.61-3.54c-1.09-0.86-2.27-1.19-3.57-0.66c-1.6,0.65-3.2,1.32-4.74,2.08
				c-2.77,1.37-5.47,2.88-8.37,3.98c-2.41,0.92-4.87,1.6-7.48,1.57c-1.34-0.01-2.64-0.26-3.91-0.69c-0.68-0.23-1.39-0.39-2.1-0.47
				c-0.81-0.1-1.05,0.29-0.71,1.03c0.61,1.32,1.69,2.19,2.9,2.92c1.14,0.69,2.39,1.02,3.71,1.09c0.07,0,0.14,0.01,0.21,0.02
				C47.77,56.67,47.79,56.69,47.84,56.71z"/>
			<radialGradient id="SVGID_10_" cx="81.3777" cy="40.5155" r="6.9535" gradientUnits="userSpaceOnUse">
				<stop  offset="0" style="stop-color:#FFFFFF"/>
				<stop  offset="1" style="stop-color:#000000"/>
			</radialGradient>
			<circle fill="url(#SVGID_10_)" cx="81.38" cy="40.52" r="6.95"/>
			<g>
				<path fill="#211915" stroke="#211915" stroke-width="0.2149" stroke-miterlimit="10" d="M88.68,72.45
					c-4.55-2.6-10.54-4.86-12.85-6.49c-0.92-0.65-1.9-1.21-2.82-1.88c-0.62-0.46-1.48-1.08-1.64-1.98
					c-0.03-0.18-0.02-0.37,0.02-0.56c0.05-0.21,0.15-0.42,0.28-0.59c0.31-0.41,0.8-0.65,1.26-0.52c0.65,0.19,2.89-0.89,4.13-1.83
					c1.24-0.93,1.42-1.69,0.81-1.6c0,0,0.03-0.23,0.28-0.35c0.25-0.12-0.47-2.37-2.99-2.41c-2.51-0.04-4.51,0.89-5.27,1.75
					c-0.76,0.85-0.45,1.28-0.93,1.59c-0.48,0.31-2.27,2.1-2.55,4.62c-0.28,2.53,2.44,5.83,6.82,7.62c4.37,1.79,9.88,3.54,11.81,4.59
					c1.93,1.05,5.41,3.46,2.72,5.48c-2.69,2.02-6.72,4.74-9.3,6.68c-2.58,1.94-5.17,4.78-4.92,7.38c0.24,2.6,3.31,5.91,5.03,7.34
					c1.72,1.44,6.16,5.48,6.58,6.72c0.41,1.24,1.27,2.37-0.72,5.09c-0.14,0.19-0.28,0.37-0.42,0.56c-0.79,1.01-1.62,2-2.36,3.06
					c-0.83,1.2-1.55,2.49-1.99,3.89c-0.23,0.74-0.38,1.51-0.42,2.28c-0.03,0.41-0.02,0.82,0.01,1.23c0.05,0.78,0.26,1.61,0.64,2.29
					c0.23,0.42,0.47,0.85,0.5,0.82c0.06-0.06-0.52-1.79-0.63-2.55c-0.17-1.28,0.18-3.69,1.98-6.06c1.81-2.37,5.01-4.82,5.7-6.61
					c0.69-1.79,1.62-3.61-1.76-7.31c-3.37-3.69-9.02-8.24-8.92-10.8c0.1-2.56,2.62-4.39,7.16-7.34c1.85-1.2,3.78-2.29,5.58-3.56
					c1.88-1.32,3.65-3.05,3.53-5.53C92.93,75.1,90.55,73.52,88.68,72.45z M75.06,55.46c0.4,0,0.73,0.17,0.73,0.39
					c0,0.21-0.32,0.39-0.73,0.39c-0.4,0-0.73-0.17-0.73-0.39C74.34,55.63,74.66,55.46,75.06,55.46z"/>
				<ellipse fill="#211915" cx="75.05" cy="55.86" rx="0.71" ry="0.37"/>
			</g>
			<g>
				<path fill="#FFFFFF" stroke="#211915" stroke-width="0.2149" stroke-miterlimit="10" d="M88.14,72.45
					c-4.55-2.6-10.54-4.86-12.85-6.49c-0.92-0.65-1.9-1.21-2.82-1.88c-0.62-0.46-1.48-1.08-1.64-1.98
					c-0.03-0.18-0.02-0.37,0.02-0.56c0.05-0.21,0.15-0.42,0.28-0.59c0.31-0.41,0.8-0.65,1.26-0.52c0.65,0.19,2.89-0.89,4.13-1.83
					c1.24-0.93,1.42-1.69,0.81-1.6c0,0,0.03-0.23,0.28-0.35c0.25-0.12-0.47-2.37-2.99-2.41c-2.51-0.04-4.51,0.89-5.27,1.75
					c-0.76,0.85-0.45,1.28-0.93,1.59c-0.48,0.31-2.27,2.1-2.55,4.62c-0.28,2.53,2.44,5.83,6.82,7.62c4.37,1.79,9.88,3.54,11.81,4.59
					c1.93,1.05,5.41,3.46,2.72,5.48c-2.69,2.02-6.72,4.74-9.3,6.68c-2.58,1.94-5.17,4.78-4.92,7.38c0.24,2.6,3.31,5.91,5.03,7.34
					c1.72,1.44,6.16,5.48,6.58,6.72c0.41,1.24,1.27,2.37-0.72,5.09c-0.14,0.19-0.28,0.37-0.42,0.56c-0.79,1.01-1.62,2-2.36,3.06
					c-0.83,1.2-1.55,2.49-1.99,3.89c-0.23,0.74-0.38,1.51-0.42,2.28c-0.03,0.41-0.02,0.82,0.01,1.23c0.05,0.78,0.26,1.61,0.64,2.29
					c0.23,0.42,0.47,0.85,0.5,0.82c0.06-0.06-0.52-1.79-0.63-2.55c-0.17-1.28,0.18-3.69,1.98-6.06c1.81-2.37,5.01-4.82,5.7-6.61
					c0.69-1.79,1.62-3.61-1.76-7.31c-3.37-3.69-9.02-8.24-8.92-10.8c0.1-2.56,2.62-4.39,7.16-7.34c1.85-1.2,3.78-2.29,5.58-3.56
					c1.88-1.32,3.65-3.05,3.53-5.53C92.39,75.1,90.01,73.52,88.14,72.45z M74.52,55.46c0.4,0,0.73,0.17,0.73,0.39
					c0,0.21-0.32,0.39-0.73,0.39c-0.4,0-0.73-0.17-0.73-0.39C73.79,55.63,74.12,55.46,74.52,55.46z"/>
				<ellipse fill="#211915" cx="74.51" cy="55.86" rx="0.71" ry="0.37"/>
			</g>
			<g>
				<path fill="#211915" stroke="#211915" stroke-width="0.2149" stroke-miterlimit="10" d="M81.19,116.39
					c0.11-0.16,0.23-0.32,0.34-0.48c-0.33-0.44-0.68-0.88-1.03-1.31c-0.39-0.49-0.78-0.97-1.15-1.47c-2-2.72-1.14-3.85-0.72-5.09
					c0.21-0.63,1.45-1.97,2.84-3.33c-0.58-0.55-1.18-1.11-1.76-1.63c-0.56,0.56-1.1,1.12-1.6,1.66c-3.37,3.69-2.44,5.52-1.76,7.31
					c0.54,1.4,2.62,3.2,4.36,5.06C80.87,116.87,81.02,116.63,81.19,116.39z"/>
				<path fill="#211915" stroke="#211915" stroke-width="0.2149" stroke-miterlimit="10" d="M78.58,85.78
					c0.84-0.62,1.81-1.31,2.8-2.02c-1.88-1.33-3.84-2.7-5.37-3.85c-2.69-2.02,0.79-4.43,2.72-5.48c0.53-0.29,1.34-0.63,2.31-1.01
					c-0.66-0.24-1.36-0.5-2.1-0.77c-0.81-0.29-1.66-0.6-2.52-0.92c-0.45,0.24-0.89,0.48-1.31,0.72c-2.5,1.43-5.29,3.83-4.02,7.02
					c0.99,2.48,3.55,3.85,5.7,5.19C77.39,85.03,77.98,85.4,78.58,85.78z"/>
				<path fill="#211915" stroke="#211915" stroke-width="0.2149" stroke-miterlimit="10" d="M83.27,118.61
					c-0.08-0.16-0.17-0.31-0.26-0.47c-0.25,0.29-0.49,0.57-0.71,0.85c0.55,0.76,1.04,1.6,1.23,2.52c0.22,1.11-0.18,2.33-0.58,3.36
					c0.08-0.05,0.22-0.17,0.27-0.23c0.1-0.11,0.18-0.23,0.25-0.35c0.69-1.26,0.89-2.5,0.52-3.88
					C83.83,119.79,83.57,119.19,83.27,118.61z"/>
				<path fill="#211915" stroke="#211915" stroke-width="0.2149" stroke-miterlimit="10" d="M85.31,86.59
					c-0.03-0.02-0.06-0.04-0.09-0.06c-0.31,0.19-0.62,0.39-0.92,0.59c-0.66,0.43-1.27,0.83-1.84,1.21c2.9,2.02,4.48,3.59,4.57,5.61
					c0.07,1.62-2.17,4.04-4.67,6.52c0.23,0.23,0.46,0.45,0.69,0.68c0.37,0.36,0.74,0.73,1.11,1.09c0.41-0.36,0.77-0.67,1.05-0.91
					c1.72-1.44,4.79-4.74,5.03-7.34C90.47,91.37,87.89,88.54,85.31,86.59z"/>
				<g>
					<path fill="#211915" stroke="#211915" stroke-width="0.2149" stroke-miterlimit="10" d="M97.36,62.23
						c-0.28-2.53-2.07-4.31-2.55-4.62c-0.48-0.31-0.17-0.74-0.93-1.59c-0.76-0.85-2.76-1.79-5.27-1.75
						c-2.51,0.04-3.24,2.29-2.99,2.41c0.25,0.12,0.28,0.35,0.28,0.35c-0.61-0.1-0.43,0.66,0.81,1.6c1.24,0.93,3.48,2.02,4.13,1.83
						c0.47-0.14,0.96,0.11,1.26,0.52c0.13,0.17,0.23,0.38,0.28,0.59c0.04,0.18,0.05,0.37,0.02,0.56c-0.15,0.9-1.01,1.52-1.64,1.98
						c-0.92,0.67-1.89,1.23-2.82,1.88c-1.11,0.78-3.07,1.71-5.31,2.75c1.56,0.73,3.22,1.51,4.79,2.34c1.05-0.39,2.1-0.8,3.1-1.2
						C94.92,68.06,97.64,64.76,97.36,62.23z M88.73,56.23c-0.4,0-0.73-0.17-0.73-0.39c0-0.21,0.33-0.39,0.73-0.39
						c0.4,0,0.73,0.17,0.73,0.39C89.45,56.06,89.13,56.23,88.73,56.23z"/>
					<ellipse fill="#211915" cx="88.72" cy="55.87" rx="0.71" ry="0.37"/>
				</g>
			</g>
			<g>
				<path fill="#FFFFFF" stroke="#211915" stroke-width="0.2149" stroke-miterlimit="10" d="M80.61,116.39
					c0.11-0.16,0.23-0.32,0.34-0.48c-0.33-0.44-0.68-0.88-1.03-1.31c-0.39-0.49-0.78-0.97-1.15-1.47c-2-2.72-1.14-3.85-0.72-5.09
					c0.21-0.63,1.45-1.97,2.84-3.33c-0.58-0.55-1.18-1.11-1.76-1.63c-0.56,0.56-1.1,1.12-1.6,1.66c-3.37,3.69-2.44,5.52-1.76,7.31
					c0.54,1.4,2.62,3.2,4.36,5.06C80.29,116.87,80.44,116.63,80.61,116.39z"/>
				<path fill="#FFFFFF" stroke="#211915" stroke-width="0.2149" stroke-miterlimit="10" d="M78,85.78c0.84-0.62,1.81-1.31,2.8-2.02
					c-1.88-1.33-3.84-2.7-5.37-3.85c-2.69-2.02,0.79-4.43,2.72-5.48c0.53-0.29,1.34-0.63,2.31-1.01c-0.66-0.24-1.36-0.5-2.1-0.77
					c-0.81-0.29-1.66-0.6-2.52-0.92c-0.45,0.24-0.89,0.48-1.31,0.72c-2.5,1.43-5.29,3.83-4.02,7.02c0.99,2.48,3.55,3.85,5.7,5.19
					C76.81,85.03,77.4,85.4,78,85.78z"/>
				<path fill="#FFFFFF" stroke="#211915" stroke-width="0.2149" stroke-miterlimit="10" d="M82.69,118.61
					c-0.08-0.16-0.17-0.31-0.26-0.47c-0.25,0.29-0.49,0.57-0.71,0.85c0.55,0.76,1.04,1.6,1.23,2.52c0.22,1.11-0.18,2.33-0.58,3.36
					c0.08-0.05,0.22-0.17,0.27-0.23c0.1-0.11,0.18-0.23,0.25-0.35c0.69-1.26,0.89-2.5,0.52-3.88
					C83.25,119.79,82.99,119.19,82.69,118.61z"/>
				<path fill="#FFFFFF" stroke="#211915" stroke-width="0.2149" stroke-miterlimit="10" d="M84.73,86.59
					c-0.03-0.02-0.06-0.04-0.09-0.06c-0.31,0.19-0.62,0.39-0.92,0.59c-0.66,0.43-1.27,0.83-1.84,1.21c2.9,2.02,4.48,3.59,4.57,5.61
					c0.07,1.62-2.17,4.04-4.67,6.52c0.23,0.23,0.46,0.45,0.69,0.68c0.37,0.36,0.74,0.73,1.11,1.09c0.41-0.36,0.77-0.67,1.05-0.91
					c1.72-1.44,4.79-4.74,5.03-7.34C89.89,91.37,87.31,88.54,84.73,86.59z"/>
				<g>
					<path fill="#FFFFFF" stroke="#211915" stroke-width="0.2149" stroke-miterlimit="10" d="M96.78,62.23
						c-0.28-2.53-2.07-4.31-2.55-4.62c-0.48-0.31-0.17-0.74-0.93-1.59c-0.76-0.85-2.76-1.79-5.27-1.75
						c-2.51,0.04-3.24,2.29-2.99,2.41c0.25,0.12,0.28,0.35,0.28,0.35c-0.61-0.1-0.43,0.66,0.81,1.6c1.24,0.93,3.48,2.02,4.13,1.83
						c0.47-0.14,0.96,0.11,1.26,0.52c0.13,0.17,0.23,0.38,0.28,0.59c0.04,0.18,0.05,0.37,0.02,0.56c-0.15,0.9-1.01,1.52-1.64,1.98
						c-0.92,0.67-1.89,1.23-2.82,1.88c-1.11,0.78-3.07,1.71-5.31,2.75c1.56,0.73,3.22,1.51,4.79,2.34c1.05-0.39,2.1-0.8,3.1-1.2
						C94.34,68.06,97.06,64.76,96.78,62.23z M88.15,56.23c-0.4,0-0.73-0.17-0.73-0.39c0-0.21,0.33-0.39,0.73-0.39
						c0.4,0,0.73,0.17,0.73,0.39C88.87,56.06,88.55,56.23,88.15,56.23z"/>
					<ellipse fill="#211915" cx="88.14" cy="55.87" rx="0.71" ry="0.37"/>
				</g>
			</g>
		</g>
		<path fill="none" d="M37.02,137.96c0,0,42.29,32.32,89.02,0"/>
		<text transform="matrix(0.9296 0.3685 -0.3685 0.9296 49.1148 145.0005)"><tspan x="0" y="0" font-family="'MyriadPro-Regular'" font-size="18.0064">E</tspan><tspan x="9.75" y="-0.05" font-family="'MyriadPro-Regular'" font-size="18.0064" rotate="-6.68">S</tspan><tspan x="19.57" y="-1.23" font-family="'MyriadPro-Regular'" font-size="18.0064" rotate="-14.13">P</tspan><tspan x="30.12" y="-3.87" font-family="'MyriadPro-Regular'" font-size="18.0064" rotate="-23.64">O</tspan><tspan x="42.66" y="-9.59" font-family="'MyriadPro-Regular'" font-size="18.0064" rotate="-33.86">C</tspan><tspan x="52.38" y="-16.19" font-family="'MyriadPro-Regular'" font-size="18.0064" rotate="-43.4">H</tspan></text>
	</g>
</g>
</svg>
