<?xml version="1.0" encoding="utf-8"?>
<!-- Generator: Adobe Illustrator 17.0.0, SVG Export Plug-In . SVG Version: 6.00 Build 0)  -->
<!DOCTYPE svg PUBLIC "-//W3C//DTD SVG 1.1//EN" "http://www.w3.org/Graphics/SVG/1.1/DTD/svg11.dtd">
<svg version="1.1" id="Capa_1" xmlns="http://www.w3.org/2000/svg" xmlns:xlink="http://www.w3.org/1999/xlink" x="0px" y="0px"
	 width="144.48px" height="132.67px" viewBox="0 0 144.48 132.67" enable-background="new 0 0 144.48 132.67" xml:space="preserve">
<g>
	<circle fill="#FFFFFF" cx="76.114" cy="67.243" r="31.584"/>
	<g>
		<radialGradient id="SVGID_1_" cx="76.1144" cy="67.2432" r="29.9203" gradientUnits="userSpaceOnUse">
			<stop  offset="0.4049" style="stop-color:#FFFFFF"/>
			<stop  offset="1" style="stop-color:#A9DFE7"/>
		</radialGradient>
		<circle fill="url(#SVGID_1_)" cx="76.114" cy="67.243" r="29.92"/>
		<radialGradient id="SVGID_2_" cx="76.0262" cy="66.8666" r="21.3387" gradientUnits="userSpaceOnUse">
			<stop  offset="0.6524" style="stop-color:#FFFFFF"/>
			<stop  offset="0.8584" style="stop-color:#B7DBD4"/>
			<stop  offset="1" style="stop-color:#00A589"/>
		</radialGradient>
		<circle fill="url(#SVGID_2_)" cx="76.026" cy="66.867" r="21.339"/>
		<g>
			<circle fill="none" cx="76.026" cy="66.867" r="22.533"/>
			<text transform="matrix(-0.3044 -0.9526 0.9526 -0.3044 54.7498 74.329)"><tspan x="0" y="0" fill="#00877D" font-family="'MyriadPro-Regular'" font-size="5.9113"> </tspan><tspan x="1.174" y="-0.04" fill="#00877D" font-family="'MyriadPro-Regular'" font-size="5.9113" rotate="5.079">F</tspan><tspan x="3.917" y="0.17" fill="#00877D" font-family="'MyriadPro-Regular'" font-size="5.9113" rotate="13.006">A</tspan><tspan x="7.311" y="0.95" fill="#00877D" font-family="'MyriadPro-Regular'" font-size="5.9113" rotate="21.481">C</tspan><tspan x="10.376" y="2.128" fill="#00877D" font-family="'MyriadPro-Regular'" font-size="5.9113" rotate="30.317">U</tspan><tspan x="13.552" y="4.017" fill="#00877D" font-family="'MyriadPro-Regular'" font-size="5.9113" rotate="38.449">L</tspan><tspan x="15.65" y="5.667" fill="#00877D" font-family="'MyriadPro-Regular'" font-size="5.9113" rotate="45.45">T</tspan><tspan x="17.632" y="7.634" fill="#00877D" font-family="'MyriadPro-Regular'" font-size="5.9113" rotate="53.395">A</tspan><tspan x="19.72" y="10.403" fill="#00877D" font-family="'MyriadPro-Regular'" font-size="5.9113" rotate="62.552">D</tspan><tspan x="21.43" y="13.844" fill="#00877D" font-family="'MyriadPro-Regular'" font-size="5.9113" rotate="68.872"> </tspan><tspan x="21.859" y="14.949" fill="#00877D" font-family="'MyriadPro-Regular'" font-size="5.9113" rotate="71.872"> </tspan><tspan x="22.235" y="16.093" fill="#00877D" font-family="'MyriadPro-Regular'" font-size="5.9113" rotate="74.927"> </tspan><tspan x="22.551" y="17.258" fill="#00877D" font-family="'MyriadPro-Regular'" font-size="5.9113" rotate="77.996"> </tspan><tspan x="22.869" y="18.373" fill="#00877D" font-family="'MyriadPro-Regular'" font-size="5.9113" rotate="84.353">D</tspan><tspan x="23.216" y="22.138" fill="#00877D" font-family="'MyriadPro-Regular'" font-size="5.9113" rotate="92.711">E</tspan><tspan x="23.05" y="24.939" fill="#00877D" font-family="'MyriadPro-Regular'" font-size="5.9113" rotate="97.772"> </tspan><tspan x="22.888" y="26.131" fill="#00877D" font-family="'MyriadPro-Regular'" font-size="5.9113" rotate="100.835"> </tspan><tspan x="22.662" y="27.326" fill="#00877D" font-family="'MyriadPro-Regular'" font-size="5.9113" rotate="103.908"> </tspan><tspan x="22.374" y="28.483" fill="#00877D" font-family="'MyriadPro-Regular'" font-size="5.9113" rotate="106.79"> </tspan><tspan x="22.028" y="29.632" fill="#00877D" font-family="'MyriadPro-Regular'" font-size="5.9113" rotate="109.892"> </tspan><tspan x="21.666" y="30.754" fill="#00877D" font-family="'MyriadPro-Regular'" font-size="5.9113" rotate="114.965">S</tspan><tspan x="20.522" y="33.291" fill="#00877D" font-family="'MyriadPro-Regular'" font-size="5.9113" rotate="122.954">A</tspan><tspan x="18.607" y="36.209" fill="#00877D" font-family="'MyriadPro-Regular'" font-size="5.9113" rotate="130.822">L</tspan><tspan x="16.922" y="38.229" fill="#00877D" font-family="'MyriadPro-Regular'" font-size="5.9113" rotate="138.831">U</tspan><tspan x="14.165" y="40.665" fill="#00877D" font-family="'MyriadPro-Regular'" font-size="5.9113" rotate="148.275">D</tspan><tspan x="10.861" y="42.626" fill="#00877D" font-family="'MyriadPro-Regular'" font-size="5.9113" rotate="154.596"> </tspan><tspan x="9.793" y="43.136" fill="#00877D" font-family="'MyriadPro-Regular'" font-size="5.9113" rotate="157.585"> </tspan><tspan x="8.666" y="43.601" fill="#00877D" font-family="'MyriadPro-Regular'" font-size="5.9113" rotate="160.671"> </tspan><tspan x="7.549" y="43.995" fill="#00877D" font-family="'MyriadPro-Regular'" font-size="5.9113" rotate="163.674"> </tspan><tspan x="6.444" y="44.369" fill="#00877D" font-family="'MyriadPro-Regular'" font-size="5.9113" rotate="169.034">P</tspan><tspan x="3.499" y="44.976" fill="#00877D" font-family="'MyriadPro-Regular'" font-size="5.9113" rotate="177.562">Ú</tspan><tspan x="-0.167" y="45.12" fill="#00877D" font-family="'MyriadPro-Regular'" font-size="5.9113" rotate="-173.846">B</tspan><tspan x="-3.232" y="44.784" fill="#00877D" font-family="'MyriadPro-Regular'" font-size="5.9113" rotate="-166.538">L</tspan><tspan x="-5.868" y="44.126" fill="#00877D" font-family="'MyriadPro-Regular'" font-size="5.9113" rotate="-161.351">I</tspan><tspan x="-7.117" y="43.767" fill="#00877D" font-family="'MyriadPro-Regular'" font-size="5.9113" rotate="-155.669">C</tspan><tspan x="-10.12" y="42.428" fill="#00877D" font-family="'MyriadPro-Regular'" font-size="5.9113" rotate="-147.05">A</tspan></text>
		</g>
		<g>
			<path d="M89.026,58.729c0.013,0.397-0.035,0.462-0.438,0.534c-0.563,0.101-1.118,0.042-1.666-0.107
				c-0.068-0.018-0.136-0.038-0.204-0.056c-0.009-0.002-0.021,0.004-0.049,0.01c-0.017,0.116-0.03,0.239-0.055,0.359
				c-0.083,0.398-0.321,0.597-0.73,0.624c-0.354,0.023-0.696-0.041-1.028-0.151c-0.148-0.049-0.214-0.029-0.279,0.125
				c-0.26,0.608-0.693,0.815-1.385,0.671c-0.255-0.053-0.506-0.132-0.757-0.203c-0.085-0.024-0.16-0.038-0.204,0.065
				c-0.222,0.522-0.68,0.641-1.202,0.488c-0.316-0.092-0.617-0.242-0.914-0.388c-0.157-0.077-0.279-0.109-0.395,0.049
				c-0.029,0.039-0.074,0.065-0.106,0.103c-0.371,0.437-0.845,0.54-1.377,0.411c-0.444-0.108-0.881-0.244-1.321-0.366
				c-0.089-0.025-0.135-0.066-0.133-0.172c0.022-0.981,0.038-1.962,0.057-2.943c0.001-0.032,0.011-0.063,0.015-0.09
				c0.208,0,0.411,0.024,0.607-0.005c0.361-0.054,0.639-0.258,0.8-0.588c0.195-0.397,0.365-0.807,0.549-1.21
				c0.24-0.523,0.542-0.997,1.003-1.359c0.418-0.329,0.872-0.459,1.373-0.255c0.615,0.25,1.229,0.506,1.824,0.8
				c1.065,0.526,2.105,1.106,3.217,1.532c0.926,0.355,1.874,0.615,2.876,0.605c0.516-0.005,1.015-0.102,1.505-0.266
				c0.261-0.087,0.536-0.148,0.809-0.181c0.31-0.037,0.406,0.111,0.274,0.396c-0.235,0.509-0.651,0.841-1.116,1.121
				c-0.439,0.265-0.92,0.392-1.428,0.419c-0.027,0.001-0.054,0.003-0.081,0.006C89.056,58.712,89.047,58.719,89.026,58.729z"/>
			<path d="M65.725,59.128c-0.228,0.055-0.441,0.118-0.658,0.156c-0.459,0.081-0.921,0.108-1.379-0.014
				c-0.083-0.022-0.176-0.05-0.235-0.108c-0.054-0.053-0.111-0.161-0.094-0.222c0.057-0.194-0.035-0.22-0.183-0.226
				c-0.765-0.03-1.412-0.353-1.965-0.878c-0.173-0.165-0.307-0.375-0.454-0.569c-0.036-0.047-0.057-0.108-0.076-0.166
				c-0.079-0.243-0.004-0.376,0.24-0.353c0.279,0.026,0.564,0.075,0.826,0.171c0.833,0.305,1.679,0.351,2.542,0.206
				c1.268-0.213,2.427-0.738,3.569-1.314c0.938-0.474,1.87-0.96,2.816-1.418c0.277-0.134,0.586-0.216,0.889-0.273
				c0.469-0.088,0.829,0.175,1.161,0.467c0.49,0.432,0.758,1.017,1.01,1.61c0.113,0.267,0.217,0.539,0.346,0.797
				c0.286,0.573,0.728,0.798,1.348,0.703c0.026-0.004,0.053-0.009,0.104-0.019c0.01,0.167,0.025,0.325,0.028,0.484
				c0.014,0.874,0.024,1.748,0.038,2.623c0.001,0.093-0.008,0.16-0.113,0.188c-0.489,0.129-0.975,0.276-1.467,0.391
				c-0.453,0.106-0.842-0.029-1.174-0.376c-0.325-0.339-0.335-0.325-0.74-0.107c-0.345,0.186-0.705,0.33-1.1,0.341
				c-0.366,0.011-0.649-0.143-0.804-0.491c-0.066-0.147-0.142-0.162-0.28-0.122c-0.282,0.083-0.566,0.164-0.854,0.217
				c-0.59,0.108-0.998-0.116-1.236-0.683c-0.073-0.175-0.144-0.2-0.313-0.144c-0.38,0.125-0.77,0.211-1.173,0.12
				c-0.341-0.077-0.533-0.304-0.576-0.664C65.756,59.351,65.741,59.247,65.725,59.128z"/>
			
				<linearGradient id="SVGID_3_" gradientUnits="userSpaceOnUse" x1="49.8863" y1="66.8214" x2="50.9926" y2="66.8214" gradientTransform="matrix(-1 0 0 1 126.649 0)">
				<stop  offset="0" style="stop-color:#2C201C"/>
				<stop  offset="0.1659" style="stop-color:#FFFFFF"/>
				<stop  offset="1" style="stop-color:#000000"/>
			</linearGradient>
			<path fill="url(#SVGID_3_)" d="M76.696,68.926c-0.254-0.181-0.517-0.367-0.777-0.55c-0.064-0.045-0.128-0.09-0.192-0.135
				l-0.071-3.099c0.306-0.127,0.685-0.27,1.106-0.424L76.696,68.926z"/>
			
				<linearGradient id="SVGID_4_" gradientUnits="userSpaceOnUse" x1="50.0752" y1="78.8641" x2="50.7181" y2="78.8641" gradientTransform="matrix(-1 0 0 1 126.649 0)">
				<stop  offset="0" style="stop-color:#2C201C"/>
				<stop  offset="0.1659" style="stop-color:#FFFFFF"/>
				<stop  offset="1" style="stop-color:#000000"/>
			</linearGradient>
			<path fill="url(#SVGID_4_)" d="M75.931,77.179c0.196-0.2,0.417-0.414,0.643-0.626L76.5,81.176
				c-0.157-0.226-0.326-0.444-0.493-0.655L75.931,77.179z"/>
			
				<linearGradient id="SVGID_5_" gradientUnits="userSpaceOnUse" x1="49.9855" y1="72.7929" x2="50.8746" y2="72.7929" gradientTransform="matrix(-1 0 0 1 126.649 0)">
				<stop  offset="0" style="stop-color:#2C201C"/>
				<stop  offset="0.1659" style="stop-color:#FFFFFF"/>
				<stop  offset="1" style="stop-color:#000000"/>
			</linearGradient>
			<path fill="url(#SVGID_5_)" d="M75.887,75.268l-0.113-4.95c0.337,0.223,0.633,0.427,0.889,0.618l-0.058,3.615
				C76.372,74.79,76.127,75.032,75.887,75.268z"/>
			
				<linearGradient id="SVGID_6_" gradientUnits="userSpaceOnUse" x1="49.6527" y1="59.2119" x2="51.4283" y2="59.2119" gradientTransform="matrix(-1 0 0 1 126.649 0)">
				<stop  offset="0" style="stop-color:#2C201C"/>
				<stop  offset="0.1659" style="stop-color:#FFFFFF"/>
				<stop  offset="1" style="stop-color:#000000"/>
			</linearGradient>
			<path fill="url(#SVGID_6_)" d="M76.175,63.865c-0.196,0.057-0.397,0.115-0.602,0.175l-0.352-9.657
				c0.254,0.106,0.559,0.168,0.888,0.168s0.634-0.062,0.888-0.169l-0.238,9.312C76.571,63.75,76.376,63.807,76.175,63.865z"/>
			
				<linearGradient id="SVGID_7_" gradientUnits="userSpaceOnUse" x1="50.1748" y1="84.3544" x2="50.6053" y2="84.3544" gradientTransform="matrix(-1 0 0 1 126.649 0)">
				<stop  offset="0" style="stop-color:#2C201C"/>
				<stop  offset="0.1659" style="stop-color:#FFFFFF"/>
				<stop  offset="1" style="stop-color:#000000"/>
			</linearGradient>
			<path fill="url(#SVGID_7_)" d="M76.087,82.182c0.159,0.208,0.286,0.418,0.388,0.622l-0.053,3.318l-0.139,0.459l-0.148-0.459
				l-0.091-3.995C76.058,82.146,76.073,82.164,76.087,82.182z"/>
			<radialGradient id="SVGID_8_" cx="84.1689" cy="57.4506" r="5.8123" gradientUnits="userSpaceOnUse">
				<stop  offset="0.4975" style="stop-color:#5B5B5F"/>
				<stop  offset="1" style="stop-color:#000000"/>
			</radialGradient>
			<path fill="url(#SVGID_8_)" d="M88.889,58.423c0.013,0.394-0.034,0.458-0.435,0.53c-0.558,0.1-1.109,0.042-1.652-0.106
				c-0.068-0.018-0.135-0.038-0.203-0.055c-0.009-0.002-0.02,0.004-0.048,0.01c-0.017,0.115-0.03,0.237-0.055,0.356
				c-0.082,0.395-0.318,0.592-0.723,0.619c-0.351,0.023-0.69-0.04-1.02-0.15c-0.146-0.049-0.212-0.029-0.277,0.124
				c-0.258,0.603-0.687,0.808-1.373,0.665c-0.253-0.053-0.501-0.131-0.751-0.201c-0.084-0.024-0.158-0.038-0.202,0.065
				c-0.22,0.518-0.674,0.636-1.192,0.484c-0.313-0.091-0.612-0.24-0.906-0.384c-0.156-0.077-0.276-0.108-0.392,0.049
				c-0.028,0.039-0.073,0.065-0.105,0.102c-0.368,0.433-0.838,0.536-1.365,0.408c-0.44-0.107-0.873-0.242-1.31-0.363
				c-0.088-0.024-0.134-0.066-0.132-0.17c0.022-0.973,0.038-1.945,0.057-2.918c0.001-0.031,0.01-0.062,0.015-0.089
				c0.206,0,0.408,0.024,0.602-0.005c0.358-0.054,0.633-0.256,0.793-0.583c0.193-0.394,0.362-0.8,0.545-1.199
				c0.238-0.518,0.538-0.989,0.994-1.348c0.414-0.326,0.865-0.455,1.361-0.253c0.61,0.248,1.219,0.502,1.808,0.793
				c1.056,0.522,2.087,1.096,3.19,1.519c0.918,0.352,1.858,0.61,2.851,0.6c0.511-0.005,1.006-0.101,1.492-0.264
				c0.259-0.087,0.531-0.147,0.802-0.179c0.307-0.037,0.402,0.11,0.272,0.393c-0.233,0.505-0.646,0.834-1.106,1.112
				c-0.436,0.263-0.912,0.388-1.416,0.416c-0.027,0.001-0.054,0.003-0.081,0.006C88.919,58.406,88.91,58.413,88.889,58.423z"/>
			
				<radialGradient id="SVGID_9_" cx="1.3778" cy="57.4506" r="5.8123" gradientTransform="matrix(-1 0 0 1 69.4001 0)" gradientUnits="userSpaceOnUse">
				<stop  offset="0.4975" style="stop-color:#5B5B5F"/>
				<stop  offset="1" style="stop-color:#000000"/>
			</radialGradient>
			<path fill="url(#SVGID_9_)" d="M63.302,58.423c-0.013,0.394,0.034,0.458,0.435,0.53c0.558,0.1,1.109,0.042,1.652-0.106
				c0.068-0.018,0.135-0.038,0.203-0.055c0.009-0.002,0.02,0.004,0.048,0.01c0.017,0.115,0.03,0.237,0.055,0.356
				c0.082,0.395,0.318,0.592,0.723,0.619c0.351,0.023,0.69-0.04,1.02-0.15c0.146-0.049,0.212-0.029,0.277,0.124
				c0.258,0.603,0.687,0.808,1.373,0.665c0.253-0.053,0.501-0.131,0.751-0.201c0.084-0.024,0.158-0.038,0.202,0.065
				c0.22,0.518,0.674,0.636,1.192,0.484c0.313-0.091,0.612-0.24,0.906-0.384c0.156-0.077,0.276-0.108,0.392,0.049
				c0.028,0.039,0.073,0.065,0.105,0.102c0.368,0.433,0.838,0.536,1.365,0.408c0.44-0.107,0.873-0.242,1.31-0.363
				c0.088-0.024,0.134-0.066,0.132-0.17c-0.022-0.973-0.038-1.945-0.057-2.918c-0.001-0.031-0.01-0.062-0.015-0.089
				c-0.206,0-0.408,0.024-0.602-0.005c-0.358-0.054-0.633-0.256-0.793-0.583c-0.193-0.394-0.362-0.8-0.545-1.199
				c-0.238-0.518-0.538-0.989-0.994-1.348c-0.414-0.326-0.865-0.455-1.361-0.253c-0.61,0.248-1.219,0.502-1.808,0.793
				c-1.056,0.522-2.087,1.096-3.19,1.519c-0.918,0.352-1.858,0.61-2.851,0.6c-0.511-0.005-1.006-0.101-1.492-0.264
				c-0.259-0.087-0.531-0.147-0.802-0.179c-0.307-0.037-0.402,0.11-0.272,0.393c0.233,0.505,0.646,0.834,1.106,1.112
				c0.436,0.263,0.912,0.388,1.416,0.416c0.027,0.001,0.054,0.003,0.081,0.006C63.272,58.406,63.282,58.413,63.302,58.423z"/>
			<radialGradient id="SVGID_10_" cx="76.0864" cy="52.2487" r="2.651" gradientUnits="userSpaceOnUse">
				<stop  offset="0" style="stop-color:#FFFFFF"/>
				<stop  offset="1" style="stop-color:#000000"/>
			</radialGradient>
			<circle fill="url(#SVGID_10_)" cx="76.086" cy="52.249" r="2.651"/>
			<g>
				<path fill="#1E120D" stroke="#1E120D" stroke-width="0.0819" stroke-miterlimit="10" d="M78.869,64.423
					c-1.733-0.993-4.017-1.852-4.897-2.474c-0.352-0.249-0.725-0.462-1.074-0.717c-0.238-0.174-0.565-0.412-0.624-0.754
					c-0.012-0.07-0.01-0.142,0.006-0.212c0.019-0.082,0.056-0.159,0.106-0.225c0.117-0.155,0.304-0.249,0.482-0.196
					c0.249,0.074,1.103-0.341,1.575-0.696c0.473-0.356,0.541-0.646,0.308-0.609c0,0,0.013-0.088,0.109-0.132
					c0.096-0.044-0.18-0.904-1.138-0.919c-0.958-0.015-1.72,0.341-2.009,0.667c-0.289,0.326-0.171,0.488-0.355,0.607
					c-0.184,0.119-0.867,0.8-0.971,1.763c-0.105,0.963,0.932,2.222,2.599,2.904c1.667,0.681,3.768,1.348,4.503,1.748
					c0.735,0.4,2.061,1.319,1.037,2.089c-1.024,0.77-2.56,1.807-3.545,2.548c-0.985,0.741-1.969,1.822-1.877,2.815
					c0.092,0.993,1.26,2.252,1.917,2.8c0.657,0.548,2.35,2.089,2.508,2.563c0.158,0.474,0.486,0.904-0.276,1.941
					c-0.053,0.072-0.107,0.142-0.161,0.212c-0.303,0.387-0.619,0.762-0.9,1.166c-0.318,0.458-0.593,0.95-0.758,1.484
					c-0.088,0.283-0.144,0.575-0.162,0.87c-0.01,0.156-0.009,0.313,0.002,0.469c0.021,0.296,0.101,0.612,0.243,0.874
					c0.087,0.159,0.18,0.323,0.189,0.312c0.022-0.024-0.2-0.681-0.239-0.973c-0.065-0.486,0.067-1.407,0.756-2.311
					c0.689-0.904,1.91-1.837,2.172-2.519c0.263-0.681,0.617-1.378-0.67-2.785c-1.287-1.407-3.44-3.141-3.4-4.119
					c0.039-0.978,0.998-1.674,2.731-2.8c0.705-0.458,1.44-0.873,2.129-1.356c0.719-0.504,1.39-1.164,1.346-2.11
					C80.491,65.436,79.582,64.832,78.869,64.423z M73.678,57.944c0.153,0,0.276,0.066,0.276,0.148c0,0.082-0.124,0.148-0.276,0.148
					c-0.153,0-0.277-0.066-0.277-0.148C73.402,58.011,73.526,57.944,73.678,57.944z"/>
				<ellipse fill="#1E120D" cx="73.676" cy="58.097" rx="0.269" ry="0.139"/>
			</g>
			<g>
				<path fill="#FFFFFF" stroke="#1E120D" stroke-width="0.0819" stroke-miterlimit="10" d="M78.663,64.423
					c-1.733-0.993-4.017-1.852-4.897-2.474c-0.352-0.249-0.725-0.462-1.074-0.717c-0.238-0.174-0.565-0.412-0.624-0.754
					c-0.012-0.07-0.01-0.142,0.006-0.212c0.019-0.082,0.056-0.159,0.106-0.225c0.117-0.155,0.304-0.249,0.482-0.196
					c0.249,0.074,1.103-0.341,1.575-0.696c0.473-0.356,0.541-0.646,0.308-0.609c0,0,0.013-0.088,0.109-0.132
					c0.096-0.044-0.18-0.904-1.138-0.919c-0.958-0.015-1.72,0.341-2.009,0.667c-0.289,0.326-0.171,0.488-0.355,0.607
					c-0.184,0.119-0.867,0.8-0.971,1.763c-0.105,0.963,0.932,2.222,2.599,2.904c1.667,0.681,3.768,1.348,4.503,1.748
					c0.735,0.4,2.061,1.319,1.037,2.089c-1.024,0.77-2.56,1.807-3.545,2.548c-0.985,0.741-1.969,1.822-1.877,2.815
					c0.092,0.993,1.26,2.252,1.917,2.8c0.657,0.548,2.35,2.089,2.508,2.563c0.158,0.474,0.486,0.904-0.276,1.941
					c-0.053,0.072-0.107,0.142-0.161,0.212c-0.303,0.387-0.619,0.762-0.9,1.166c-0.318,0.458-0.593,0.95-0.758,1.484
					c-0.088,0.283-0.144,0.575-0.162,0.87c-0.01,0.156-0.009,0.313,0.002,0.469c0.021,0.296,0.101,0.612,0.243,0.874
					c0.087,0.159,0.18,0.323,0.189,0.312c0.022-0.024-0.2-0.681-0.239-0.973c-0.065-0.486,0.067-1.407,0.756-2.311
					c0.689-0.904,1.91-1.837,2.172-2.519c0.263-0.681,0.617-1.378-0.67-2.785c-1.287-1.407-3.44-3.141-3.4-4.119
					c0.039-0.978,0.998-1.674,2.731-2.8c0.705-0.458,1.44-0.873,2.129-1.356c0.719-0.504,1.39-1.164,1.346-2.11
					C80.284,65.436,79.376,64.832,78.663,64.423z M73.472,57.944c0.153,0,0.276,0.066,0.276,0.148c0,0.082-0.124,0.148-0.276,0.148
					c-0.153,0-0.277-0.066-0.277-0.148C73.195,58.011,73.319,57.944,73.472,57.944z"/>
				<ellipse fill="#1E120D" cx="73.469" cy="58.097" rx="0.269" ry="0.139"/>
			</g>
			<g>
				<path fill="#1E120D" stroke="#1E120D" stroke-width="0.0819" stroke-miterlimit="10" d="M76.014,81.177
					c0.042-0.061,0.086-0.121,0.13-0.181c-0.127-0.169-0.258-0.336-0.391-0.501c-0.148-0.185-0.299-0.369-0.439-0.56
					c-0.761-1.037-0.433-1.467-0.276-1.941c0.08-0.24,0.552-0.751,1.084-1.27c-0.22-0.211-0.45-0.423-0.672-0.622
					c-0.215,0.215-0.421,0.427-0.608,0.632c-1.287,1.407-0.932,2.104-0.67,2.785c0.206,0.533,0.998,1.221,1.663,1.929
					C75.891,81.359,75.95,81.268,76.014,81.177z"/>
				<path fill="#1E120D" stroke="#1E120D" stroke-width="0.0819" stroke-miterlimit="10" d="M75.02,69.504
					c0.32-0.237,0.688-0.5,1.067-0.769c-0.717-0.507-1.464-1.03-2.046-1.468c-1.024-0.77,0.302-1.689,1.037-2.089
					c0.202-0.11,0.509-0.24,0.88-0.386c-0.251-0.093-0.519-0.191-0.799-0.293c-0.307-0.112-0.632-0.23-0.959-0.352
					c-0.17,0.091-0.338,0.182-0.501,0.275c-0.953,0.546-2.018,1.461-1.534,2.676c0.376,0.944,1.353,1.469,2.172,1.978
					C74.565,69.219,74.793,69.361,75.02,69.504z"/>
				<path fill="#1E120D" stroke="#1E120D" stroke-width="0.0819" stroke-miterlimit="10" d="M76.809,82.022
					c-0.032-0.061-0.066-0.12-0.1-0.179c-0.096,0.109-0.188,0.218-0.27,0.325c0.21,0.29,0.398,0.61,0.468,0.961
					c0.085,0.425-0.07,0.889-0.22,1.283c0.032-0.018,0.082-0.064,0.103-0.087c0.037-0.041,0.067-0.087,0.094-0.135
					c0.265-0.481,0.341-0.952,0.2-1.481C77.021,82.47,76.924,82.241,76.809,82.022z"/>
				<path fill="#1E120D" stroke="#1E120D" stroke-width="0.0819" stroke-miterlimit="10" d="M77.585,69.816
					c-0.011-0.008-0.022-0.016-0.033-0.024c-0.118,0.074-0.236,0.148-0.351,0.223c-0.253,0.165-0.485,0.318-0.7,0.463
					c1.104,0.77,1.709,1.367,1.74,2.138c0.025,0.618-0.827,1.538-1.782,2.487c0.088,0.087,0.176,0.173,0.262,0.258
					c0.14,0.138,0.282,0.277,0.422,0.416c0.154-0.136,0.293-0.256,0.402-0.347c0.656-0.548,1.825-1.807,1.917-2.8
					C79.555,71.638,78.57,70.557,77.585,69.816z"/>
				<g>
					<path fill="#1E120D" stroke="#1E120D" stroke-width="0.0819" stroke-miterlimit="10" d="M82.18,60.527
						c-0.105-0.963-0.788-1.644-0.972-1.763c-0.184-0.119-0.066-0.281-0.354-0.607c-0.289-0.326-1.05-0.681-2.009-0.667
						c-0.958,0.015-1.234,0.874-1.138,0.919c0.096,0.044,0.109,0.132,0.109,0.132c-0.233-0.037-0.165,0.253,0.308,0.609
						c0.473,0.356,1.326,0.77,1.575,0.696c0.178-0.053,0.365,0.041,0.482,0.196c0.05,0.066,0.088,0.143,0.106,0.225
						c0.016,0.069,0.018,0.141,0.006,0.212c-0.059,0.341-0.386,0.579-0.624,0.754c-0.349,0.256-0.721,0.468-1.074,0.717
						c-0.422,0.299-1.169,0.653-2.023,1.049c0.594,0.277,1.228,0.576,1.827,0.891c0.402-0.15,0.802-0.304,1.18-0.458
						C81.248,62.749,82.286,61.49,82.18,60.527z M78.888,58.241c-0.153,0-0.277-0.066-0.277-0.148c0-0.082,0.124-0.148,0.277-0.148
						s0.276,0.066,0.276,0.148C79.165,58.174,79.041,58.241,78.888,58.241z"/>
					<ellipse fill="#1E120D" cx="78.886" cy="58.104" rx="0.269" ry="0.139"/>
				</g>
			</g>
			<g>
				<path fill="#FFFFFF" stroke="#1E120D" stroke-width="0.0819" stroke-miterlimit="10" d="M75.792,81.177
					c0.042-0.061,0.086-0.121,0.13-0.181c-0.127-0.169-0.258-0.336-0.391-0.501c-0.148-0.185-0.299-0.369-0.439-0.56
					c-0.761-1.037-0.433-1.467-0.276-1.941c0.08-0.24,0.552-0.751,1.084-1.27c-0.22-0.211-0.45-0.423-0.672-0.622
					c-0.215,0.215-0.421,0.427-0.608,0.632c-1.287,1.407-0.932,2.104-0.67,2.785c0.206,0.533,0.998,1.221,1.663,1.929
					C75.67,81.359,75.729,81.268,75.792,81.177z"/>
				<path fill="#FFFFFF" stroke="#1E120D" stroke-width="0.0819" stroke-miterlimit="10" d="M74.798,69.504
					c0.32-0.237,0.688-0.5,1.067-0.769c-0.717-0.507-1.464-1.03-2.046-1.468c-1.024-0.77,0.302-1.689,1.037-2.089
					c0.202-0.11,0.509-0.24,0.88-0.386c-0.251-0.093-0.519-0.191-0.799-0.293c-0.307-0.112-0.632-0.23-0.959-0.352
					c-0.17,0.091-0.338,0.182-0.501,0.275c-0.953,0.546-2.018,1.461-1.534,2.676c0.376,0.944,1.353,1.469,2.172,1.978
					C74.344,69.219,74.571,69.361,74.798,69.504z"/>
				<path fill="#FFFFFF" stroke="#1E120D" stroke-width="0.0819" stroke-miterlimit="10" d="M76.588,82.022
					c-0.032-0.061-0.066-0.12-0.1-0.179c-0.096,0.109-0.188,0.218-0.27,0.325c0.21,0.29,0.398,0.61,0.468,0.961
					c0.085,0.425-0.07,0.889-0.22,1.283c0.032-0.018,0.082-0.064,0.103-0.087c0.037-0.041,0.067-0.087,0.094-0.135
					c0.265-0.481,0.341-0.952,0.2-1.481C76.799,82.47,76.702,82.241,76.588,82.022z"/>
				<path fill="#FFFFFF" stroke="#1E120D" stroke-width="0.0819" stroke-miterlimit="10" d="M77.364,69.816
					c-0.011-0.008-0.022-0.016-0.033-0.024c-0.118,0.074-0.236,0.148-0.351,0.223c-0.253,0.165-0.485,0.318-0.7,0.463
					c1.104,0.77,1.709,1.367,1.74,2.138c0.025,0.618-0.827,1.538-1.782,2.487c0.088,0.087,0.176,0.173,0.262,0.258
					c0.14,0.138,0.282,0.277,0.422,0.416c0.154-0.136,0.293-0.256,0.402-0.347c0.656-0.548,1.825-1.807,1.917-2.8
					C79.333,71.638,78.348,70.557,77.364,69.816z"/>
				<g>
					<path fill="#FFFFFF" stroke="#1E120D" stroke-width="0.0819" stroke-miterlimit="10" d="M81.959,60.527
						c-0.105-0.963-0.788-1.644-0.972-1.763c-0.184-0.119-0.066-0.281-0.354-0.607c-0.289-0.326-1.05-0.681-2.009-0.667
						c-0.958,0.015-1.234,0.874-1.138,0.919c0.096,0.044,0.109,0.132,0.109,0.132c-0.233-0.037-0.165,0.253,0.308,0.609
						c0.473,0.356,1.326,0.77,1.575,0.696c0.178-0.053,0.365,0.041,0.482,0.196c0.05,0.066,0.088,0.143,0.106,0.225
						c0.016,0.069,0.018,0.141,0.006,0.212c-0.059,0.341-0.386,0.579-0.624,0.754c-0.349,0.256-0.721,0.468-1.074,0.717
						c-0.422,0.299-1.169,0.653-2.023,1.049c0.594,0.277,1.228,0.576,1.827,0.891c0.402-0.15,0.802-0.304,1.18-0.458
						C81.027,62.749,82.064,61.49,81.959,60.527z M78.667,58.241c-0.153,0-0.277-0.066-0.277-0.148c0-0.082,0.124-0.148,0.277-0.148
						s0.276,0.066,0.276,0.148C78.943,58.174,78.82,58.241,78.667,58.241z"/>
					<ellipse fill="#1E120D" cx="78.664" cy="58.104" rx="0.269" ry="0.139"/>
				</g>
			</g>
		</g>
		<path fill="none" d="M59.175,89.399c0,0,16.122,12.322,33.937,0"/>
		<text transform="matrix(0.929 0.3701 -0.3701 0.929 63.7357 92.0585)"><tspan x="0" y="0" font-family="'MyriadPro-Regular'" font-size="6.8647">E</tspan><tspan x="3.736" y="-0.018" font-family="'MyriadPro-Regular'" font-size="6.8647" rotate="-6.717">S</tspan><tspan x="7.484" y="-0.475" font-family="'MyriadPro-Regular'" font-size="6.8647" rotate="-14.168">P</tspan><tspan x="11.538" y="-1.494" font-family="'MyriadPro-Regular'" font-size="6.8647" rotate="-23.745">O</tspan><tspan x="16.358" y="-3.707" font-family="'MyriadPro-Regular'" font-size="6.8647" rotate="-34.066">C</tspan><tspan x="20.067" y="-6.247" font-family="'MyriadPro-Regular'" font-size="6.8647" rotate="-43.629">H</tspan></text>
	</g>
</g>
</svg>
