<?xml version="1.0" encoding="utf-8"?>
<!-- Generator: Adobe Illustrator 17.0.0, SVG Export Plug-In . SVG Version: 6.00 Build 0)  -->
<!DOCTYPE svg PUBLIC "-//W3C//DTD SVG 1.1//EN" "http://www.w3.org/Graphics/SVG/1.1/DTD/svg11.dtd">
<svg version="1.1" id="Capa_1" xmlns="http://www.w3.org/2000/svg" xmlns:xlink="http://www.w3.org/1999/xlink" x="0px" y="0px"
	 width="144.48px" height="132.67px" viewBox="0 0 144.48 132.67" enable-background="new 0 0 144.48 132.67" xml:space="preserve">
<g>
	<path fill="#FFFFFF" d="M108.783,51.775c-0.17-0.267-0.32-0.456-0.417-0.543l-1.828,1.174c0.048,0.155,0.145,0.33,0.272,0.533
		c0.47,0.732,1.115,0.955,1.765,0.538C109.195,53.074,109.214,52.444,108.783,51.775z M108.783,51.775
		c-0.17-0.267-0.32-0.456-0.417-0.543l-1.828,1.174c0.048,0.155,0.145,0.33,0.272,0.533c0.47,0.732,1.115,0.955,1.765,0.538
		C109.195,53.074,109.214,52.444,108.783,51.775z M113.268,61.604c-0.087-0.32-0.165-0.495-0.218-0.601l-1.736,0.485l0.179,0.63
		c0.204,0.732,0.708,1.057,1.227,0.917C113.351,62.855,113.462,62.307,113.268,61.604z M110.95,62.206l-0.16-0.572l-2.056,0.567
		c0.015,0.145,0.063,0.349,0.131,0.596c0.199,0.718,0.65,1.309,1.431,1.091C111.033,63.685,111.159,62.967,110.95,62.206z
		 M108.783,51.775c-0.17-0.267-0.32-0.456-0.417-0.543l-1.828,1.174c0.048,0.155,0.145,0.33,0.272,0.533
		c0.47,0.732,1.115,0.955,1.765,0.538C109.195,53.074,109.214,52.444,108.783,51.775z M113.268,61.604
		c-0.087-0.32-0.165-0.495-0.218-0.601l-1.736,0.485l0.179,0.63c0.204,0.732,0.708,1.057,1.227,0.917
		C113.351,62.855,113.462,62.307,113.268,61.604z M110.95,62.206l-0.16-0.572l-2.056,0.567c0.015,0.145,0.063,0.349,0.131,0.596
		c0.199,0.718,0.65,1.309,1.431,1.091C111.033,63.685,111.159,62.967,110.95,62.206z M108.783,51.775
		c-0.17-0.267-0.32-0.456-0.417-0.543l-1.828,1.174c0.048,0.155,0.145,0.33,0.272,0.533c0.47,0.732,1.115,0.955,1.765,0.538
		C109.195,53.074,109.214,52.444,108.783,51.775z M113.268,61.604c-0.087-0.32-0.165-0.495-0.218-0.601l-1.736,0.485l0.179,0.63
		c0.204,0.732,0.708,1.057,1.227,0.917C113.351,62.855,113.462,62.307,113.268,61.604z M110.95,62.206l-0.16-0.572l-2.056,0.567
		c0.015,0.145,0.063,0.349,0.131,0.596c0.199,0.718,0.65,1.309,1.431,1.091C111.033,63.685,111.159,62.967,110.95,62.206z
		 M108.783,51.775c-0.17-0.267-0.32-0.456-0.417-0.543l-1.828,1.174c0.048,0.155,0.145,0.33,0.272,0.533
		c0.47,0.732,1.115,0.955,1.765,0.538C109.195,53.074,109.214,52.444,108.783,51.775z M113.268,61.604
		c-0.087-0.32-0.165-0.495-0.218-0.601l-1.736,0.485l0.179,0.63c0.204,0.732,0.708,1.057,1.227,0.917
		C113.351,62.855,113.462,62.307,113.268,61.604z M110.95,62.206l-0.16-0.572l-2.056,0.567c0.015,0.145,0.063,0.349,0.131,0.596
		c0.199,0.718,0.65,1.309,1.431,1.091C111.033,63.685,111.159,62.967,110.95,62.206z M108.783,51.775
		c-0.17-0.267-0.32-0.456-0.417-0.543l-1.828,1.174c0.048,0.155,0.145,0.33,0.272,0.533c0.47,0.732,1.115,0.955,1.765,0.538
		C109.195,53.074,109.214,52.444,108.783,51.775z M112.9,78.431l-1.479-0.853l-0.33,1.649l1.683-0.218
		c0.383-0.053,0.727-0.068,1.057-0.087l0.005-0.015C113.525,78.761,113.21,78.606,112.9,78.431z M113.268,61.604
		c-0.087-0.32-0.165-0.495-0.218-0.601l-1.736,0.485l0.179,0.63c0.204,0.732,0.708,1.057,1.227,0.917
		C113.351,62.855,113.462,62.307,113.268,61.604z M110.95,62.206l-0.16-0.572l-2.056,0.567c0.015,0.145,0.063,0.349,0.131,0.596
		c0.199,0.718,0.65,1.309,1.431,1.091C111.033,63.685,111.159,62.967,110.95,62.206z M108.783,51.775
		c-0.17-0.267-0.32-0.456-0.417-0.543l-1.828,1.174c0.048,0.155,0.145,0.33,0.272,0.533c0.47,0.732,1.115,0.955,1.765,0.538
		C109.195,53.074,109.214,52.444,108.783,51.775z M112.9,78.431l-1.479-0.853l-0.33,1.649l1.683-0.218
		c0.383-0.053,0.727-0.068,1.057-0.087l0.005-0.015C113.525,78.761,113.21,78.606,112.9,78.431z M113.268,61.604
		c-0.087-0.32-0.165-0.495-0.218-0.601l-1.736,0.485l0.179,0.63c0.204,0.732,0.708,1.057,1.227,0.917
		C113.351,62.855,113.462,62.307,113.268,61.604z M110.95,62.206l-0.16-0.572l-2.056,0.567c0.015,0.145,0.063,0.349,0.131,0.596
		c0.199,0.718,0.65,1.309,1.431,1.091C111.033,63.685,111.159,62.967,110.95,62.206z M108.783,51.775
		c-0.17-0.267-0.32-0.456-0.417-0.543l-1.828,1.174c0.048,0.155,0.145,0.33,0.272,0.533c0.47,0.732,1.115,0.955,1.765,0.538
		C109.195,53.074,109.214,52.444,108.783,51.775z M99.365,41.887c-0.301-0.223-0.548-0.364-0.727-0.446l-2.628,3.545
		c0.126,0.136,0.335,0.301,0.563,0.47c1.237,0.917,2.425,0.723,3.327-0.49C100.689,43.914,100.587,42.794,99.365,41.887z
		 M112.9,78.431l-1.479-0.853l-0.33,1.649l1.683-0.218c0.383-0.053,0.727-0.068,1.057-0.087l0.005-0.015
		C113.525,78.761,113.21,78.606,112.9,78.431z M113.268,61.604c-0.087-0.32-0.165-0.495-0.218-0.601l-1.736,0.485l0.179,0.63
		c0.204,0.732,0.708,1.057,1.227,0.917C113.351,62.855,113.462,62.307,113.268,61.604z M110.95,62.206l-0.16-0.572l-2.056,0.567
		c0.015,0.145,0.063,0.349,0.131,0.596c0.199,0.718,0.65,1.309,1.431,1.091C111.033,63.685,111.159,62.967,110.95,62.206z
		 M99.365,41.887c-0.301-0.223-0.548-0.364-0.727-0.446l-2.628,3.545c0.126,0.136,0.335,0.301,0.563,0.47
		c1.237,0.917,2.425,0.723,3.327-0.49C100.689,43.914,100.587,42.794,99.365,41.887z M108.783,51.775
		c-0.17-0.267-0.32-0.456-0.417-0.543l-1.828,1.174c0.048,0.155,0.145,0.33,0.272,0.533c0.47,0.732,1.115,0.955,1.765,0.538
		C109.195,53.074,109.214,52.444,108.783,51.775z M112.9,78.431l-1.479-0.853l-0.33,1.649l1.683-0.218
		c0.383-0.053,0.727-0.068,1.057-0.087l0.005-0.015C113.525,78.761,113.21,78.606,112.9,78.431z M113.268,61.604
		c-0.087-0.32-0.165-0.495-0.218-0.601l-1.736,0.485l0.179,0.63c0.204,0.732,0.708,1.057,1.227,0.917
		C113.351,62.855,113.462,62.307,113.268,61.604z M110.95,62.206l-0.16-0.572l-2.056,0.567c0.015,0.145,0.063,0.349,0.131,0.596
		c0.199,0.718,0.65,1.309,1.431,1.091C111.033,63.685,111.159,62.967,110.95,62.206z M108.783,51.775
		c-0.17-0.267-0.32-0.456-0.417-0.543l-1.828,1.174c0.048,0.155,0.145,0.33,0.272,0.533c0.47,0.732,1.115,0.955,1.765,0.538
		C109.195,53.074,109.214,52.444,108.783,51.775z M85.487,36.936c-0.048-0.383-0.063-0.723-0.078-1.057l-0.019-0.005
		c-0.145,0.31-0.306,0.626-0.48,0.936l-0.863,1.474l1.649,0.339L85.487,36.936z M99.365,41.887
		c-0.301-0.223-0.548-0.364-0.727-0.446l-2.628,3.545c0.126,0.136,0.335,0.301,0.563,0.47c1.237,0.917,2.425,0.723,3.327-0.49
		C100.689,43.914,100.587,42.794,99.365,41.887z M112.9,78.431l-1.479-0.853l-0.33,1.649l1.683-0.218
		c0.383-0.053,0.727-0.068,1.057-0.087l0.005-0.015C113.525,78.761,113.21,78.606,112.9,78.431z M113.268,61.604
		c-0.087-0.32-0.165-0.495-0.218-0.601l-1.736,0.485l0.179,0.63c0.204,0.732,0.708,1.057,1.227,0.917
		C113.351,62.855,113.462,62.307,113.268,61.604z M110.95,62.206l-0.16-0.572l-2.056,0.567c0.015,0.145,0.063,0.349,0.131,0.596
		c0.199,0.718,0.65,1.309,1.431,1.091C111.033,63.685,111.159,62.967,110.95,62.206z M85.487,36.936
		c-0.048-0.383-0.063-0.723-0.078-1.057l-0.019-0.005c-0.145,0.31-0.306,0.626-0.48,0.936l-0.863,1.474l1.649,0.339L85.487,36.936z
		 M99.365,41.887c-0.301-0.223-0.548-0.364-0.727-0.446l-2.628,3.545c0.126,0.136,0.335,0.301,0.563,0.47
		c1.237,0.917,2.425,0.723,3.327-0.49C100.689,43.914,100.587,42.794,99.365,41.887z M108.783,51.775
		c-0.17-0.267-0.32-0.456-0.417-0.543l-1.828,1.174c0.048,0.155,0.145,0.33,0.272,0.533c0.47,0.732,1.115,0.955,1.765,0.538
		C109.195,53.074,109.214,52.444,108.783,51.775z M112.9,78.431l-1.479-0.853l-0.33,1.649l1.683-0.218
		c0.383-0.053,0.727-0.068,1.057-0.087l0.005-0.015C113.525,78.761,113.21,78.606,112.9,78.431z M113.268,61.604
		c-0.087-0.32-0.165-0.495-0.218-0.601l-1.736,0.485l0.179,0.63c0.204,0.732,0.708,1.057,1.227,0.917
		C113.351,62.855,113.462,62.307,113.268,61.604z M110.95,62.206l-0.16-0.572l-2.056,0.567c0.015,0.145,0.063,0.349,0.131,0.596
		c0.199,0.718,0.65,1.309,1.431,1.091C111.033,63.685,111.159,62.967,110.95,62.206z M108.783,51.775
		c-0.17-0.267-0.32-0.456-0.417-0.543l-1.828,1.174c0.048,0.155,0.145,0.33,0.272,0.533c0.47,0.732,1.115,0.955,1.765,0.538
		C109.195,53.074,109.214,52.444,108.783,51.775z M85.487,36.936c-0.048-0.383-0.063-0.723-0.078-1.057l-0.019-0.005
		c-0.145,0.31-0.306,0.626-0.48,0.936l-0.863,1.474l1.649,0.339L85.487,36.936z M99.365,41.887
		c-0.301-0.223-0.548-0.364-0.727-0.446l-2.628,3.545c0.126,0.136,0.335,0.301,0.563,0.47c1.237,0.917,2.425,0.723,3.327-0.49
		C100.689,43.914,100.587,42.794,99.365,41.887z M112.9,78.431l-1.479-0.853l-0.33,1.649l1.683-0.218
		c0.383-0.053,0.727-0.068,1.057-0.087l0.005-0.015C113.525,78.761,113.21,78.606,112.9,78.431z M113.268,61.604
		c-0.087-0.32-0.165-0.495-0.218-0.601l-1.736,0.485l0.179,0.63c0.204,0.732,0.708,1.057,1.227,0.917
		C113.351,62.855,113.462,62.307,113.268,61.604z M110.95,62.206l-0.16-0.572l-2.056,0.567c0.015,0.145,0.063,0.349,0.131,0.596
		c0.199,0.718,0.65,1.309,1.431,1.091C111.033,63.685,111.159,62.967,110.95,62.206z M85.487,36.936
		c-0.048-0.383-0.063-0.723-0.078-1.057l-0.019-0.005c-0.145,0.31-0.306,0.626-0.48,0.936l-0.863,1.474l1.649,0.339L85.487,36.936z
		 M99.365,41.887c-0.301-0.223-0.548-0.364-0.727-0.446l-2.628,3.545c0.126,0.136,0.335,0.301,0.563,0.47
		c1.237,0.917,2.425,0.723,3.327-0.49C100.689,43.914,100.587,42.794,99.365,41.887z M108.783,51.775
		c-0.17-0.267-0.32-0.456-0.417-0.543l-1.828,1.174c0.048,0.155,0.145,0.33,0.272,0.533c0.47,0.732,1.115,0.955,1.765,0.538
		C109.195,53.074,109.214,52.444,108.783,51.775z M112.9,78.431l-1.479-0.853l-0.33,1.649l1.683-0.218
		c0.383-0.053,0.727-0.068,1.057-0.087l0.005-0.015C113.525,78.761,113.21,78.606,112.9,78.431z M113.268,61.604
		c-0.087-0.32-0.165-0.495-0.218-0.601l-1.736,0.485l0.179,0.63c0.204,0.732,0.708,1.057,1.227,0.917
		C113.351,62.855,113.462,62.307,113.268,61.604z M110.95,62.206l-0.16-0.572l-2.056,0.567c0.015,0.145,0.063,0.349,0.131,0.596
		c0.199,0.718,0.65,1.309,1.431,1.091C111.033,63.685,111.159,62.967,110.95,62.206z M108.783,51.775
		c-0.17-0.267-0.32-0.456-0.417-0.543l-1.828,1.174c0.048,0.155,0.145,0.33,0.272,0.533c0.47,0.732,1.115,0.955,1.765,0.538
		C109.195,53.074,109.214,52.444,108.783,51.775z M53.142,47.653c-0.984-0.873-2.109-0.863-3.113,0.281
		c-0.247,0.281-0.407,0.519-0.504,0.689l3.322,2.91c0.145-0.116,0.325-0.31,0.514-0.524C54.374,49.85,54.277,48.652,53.142,47.653z
		 M63.849,40.141c-0.592-1.178-1.639-1.586-2.997-0.892c-0.335,0.17-0.572,0.325-0.723,0.451l2.003,3.933
		c0.179-0.053,0.422-0.17,0.669-0.296C64.179,42.634,64.533,41.485,63.849,40.141z M85.487,36.936
		c-0.048-0.383-0.063-0.723-0.078-1.057l-0.019-0.005c-0.145,0.31-0.306,0.626-0.48,0.936l-0.863,1.474l1.649,0.339L85.487,36.936z
		 M99.365,41.887c-0.301-0.223-0.548-0.364-0.727-0.446l-2.628,3.545c0.126,0.136,0.335,0.301,0.563,0.47
		c1.237,0.917,2.425,0.723,3.327-0.49C100.689,43.914,100.587,42.794,99.365,41.887z M112.9,78.431l-1.479-0.853l-0.33,1.649
		l1.683-0.218c0.383-0.053,0.727-0.068,1.057-0.087l0.005-0.015C113.525,78.761,113.21,78.606,112.9,78.431z M113.268,61.604
		c-0.087-0.32-0.165-0.495-0.218-0.601l-1.736,0.485l0.179,0.63c0.204,0.732,0.708,1.057,1.227,0.917
		C113.351,62.855,113.462,62.307,113.268,61.604z M110.95,62.206l-0.16-0.572l-2.056,0.567c0.015,0.145,0.063,0.349,0.131,0.596
		c0.199,0.718,0.65,1.309,1.431,1.091C111.033,63.685,111.159,62.967,110.95,62.206z M53.142,47.653
		c-0.984-0.873-2.109-0.863-3.113,0.281c-0.247,0.281-0.407,0.519-0.504,0.689l3.322,2.91c0.145-0.116,0.325-0.31,0.514-0.524
		C54.374,49.85,54.277,48.652,53.142,47.653z M63.849,40.141c-0.592-1.178-1.639-1.586-2.997-0.892
		c-0.335,0.17-0.572,0.325-0.723,0.451l2.003,3.933c0.179-0.053,0.422-0.17,0.669-0.296C64.179,42.634,64.533,41.485,63.849,40.141z
		 M85.487,36.936c-0.048-0.383-0.063-0.723-0.078-1.057l-0.019-0.005c-0.145,0.31-0.306,0.626-0.48,0.936l-0.863,1.474l1.649,0.339
		L85.487,36.936z M99.365,41.887c-0.301-0.223-0.548-0.364-0.727-0.446l-2.628,3.545c0.126,0.136,0.335,0.301,0.563,0.47
		c1.237,0.917,2.425,0.723,3.327-0.49C100.689,43.914,100.587,42.794,99.365,41.887z M108.783,51.775
		c-0.17-0.267-0.32-0.456-0.417-0.543l-1.828,1.174c0.048,0.155,0.145,0.33,0.272,0.533c0.47,0.732,1.115,0.955,1.765,0.538
		C109.195,53.074,109.214,52.444,108.783,51.775z M112.9,78.431l-1.479-0.853l-0.33,1.649l1.683-0.218
		c0.383-0.053,0.727-0.068,1.057-0.087l0.005-0.015C113.525,78.761,113.21,78.606,112.9,78.431z M113.268,61.604
		c-0.087-0.32-0.165-0.495-0.218-0.601l-1.736,0.485l0.179,0.63c0.204,0.732,0.708,1.057,1.227,0.917
		C113.351,62.855,113.462,62.307,113.268,61.604z M110.95,62.206l-0.16-0.572l-2.056,0.567c0.015,0.145,0.063,0.349,0.131,0.596
		c0.199,0.718,0.65,1.309,1.431,1.091C111.033,63.685,111.159,62.967,110.95,62.206z M108.783,51.775
		c-0.17-0.267-0.32-0.456-0.417-0.543l-1.828,1.174c0.048,0.155,0.145,0.33,0.272,0.533c0.47,0.732,1.115,0.955,1.765,0.538
		C109.195,53.074,109.214,52.444,108.783,51.775z M47.987,52.594c-0.373-0.087-0.698-0.194-1.018-0.296l-0.005,0.015
		c0.238,0.247,0.475,0.504,0.708,0.776l1.077,1.324l0.897-1.426L47.987,52.594z M53.142,47.653
		c-0.984-0.873-2.109-0.863-3.113,0.281c-0.247,0.281-0.407,0.519-0.504,0.689l3.322,2.91c0.145-0.116,0.325-0.31,0.514-0.524
		C54.374,49.85,54.277,48.652,53.142,47.653z M63.849,40.141c-0.592-1.178-1.639-1.586-2.997-0.892
		c-0.335,0.17-0.572,0.325-0.723,0.451l2.003,3.933c0.179-0.053,0.422-0.17,0.669-0.296C64.179,42.634,64.533,41.485,63.849,40.141z
		 M85.487,36.936c-0.048-0.383-0.063-0.723-0.078-1.057l-0.019-0.005c-0.145,0.31-0.306,0.626-0.48,0.936l-0.863,1.474l1.649,0.339
		L85.487,36.936z M99.365,41.887c-0.301-0.223-0.548-0.364-0.727-0.446l-2.628,3.545c0.126,0.136,0.335,0.301,0.563,0.47
		c1.237,0.917,2.425,0.723,3.327-0.49C100.689,43.914,100.587,42.794,99.365,41.887z M112.9,78.431l-1.479-0.853l-0.33,1.649
		l1.683-0.218c0.383-0.053,0.727-0.068,1.057-0.087l0.005-0.015C113.525,78.761,113.21,78.606,112.9,78.431z M113.268,61.604
		c-0.087-0.32-0.165-0.495-0.218-0.601l-1.736,0.485l0.179,0.63c0.204,0.732,0.708,1.057,1.227,0.917
		C113.351,62.855,113.462,62.307,113.268,61.604z M110.95,62.206l-0.16-0.572l-2.056,0.567c0.015,0.145,0.063,0.349,0.131,0.596
		c0.199,0.718,0.65,1.309,1.431,1.091C111.033,63.685,111.159,62.967,110.95,62.206z M47.987,52.594
		c-0.373-0.087-0.698-0.194-1.018-0.296l-0.005,0.015c0.238,0.247,0.475,0.504,0.708,0.776l1.077,1.324l0.897-1.426L47.987,52.594z
		 M53.142,47.653c-0.984-0.873-2.109-0.863-3.113,0.281c-0.247,0.281-0.407,0.519-0.504,0.689l3.322,2.91
		c0.145-0.116,0.325-0.31,0.514-0.524C54.374,49.85,54.277,48.652,53.142,47.653z M63.849,40.141
		c-0.592-1.178-1.639-1.586-2.997-0.892c-0.335,0.17-0.572,0.325-0.723,0.451l2.003,3.933c0.179-0.053,0.422-0.17,0.669-0.296
		C64.179,42.634,64.533,41.485,63.849,40.141z M85.487,36.936c-0.048-0.383-0.063-0.723-0.078-1.057l-0.019-0.005
		c-0.145,0.31-0.306,0.626-0.48,0.936l-0.863,1.474l1.649,0.339L85.487,36.936z M99.365,41.887
		c-0.301-0.223-0.548-0.364-0.727-0.446l-2.628,3.545c0.126,0.136,0.335,0.301,0.563,0.47c1.237,0.917,2.425,0.723,3.327-0.49
		C100.689,43.914,100.587,42.794,99.365,41.887z M108.783,51.775c-0.17-0.267-0.32-0.456-0.417-0.543l-1.828,1.174
		c0.048,0.155,0.145,0.33,0.272,0.533c0.47,0.732,1.115,0.955,1.765,0.538C109.195,53.074,109.214,52.444,108.783,51.775z
		 M112.9,78.431l-1.479-0.853l-0.33,1.649l1.683-0.218c0.383-0.053,0.727-0.068,1.057-0.087l0.005-0.015
		C113.525,78.761,113.21,78.606,112.9,78.431z M113.268,61.604c-0.087-0.32-0.165-0.495-0.218-0.601l-1.736,0.485l0.179,0.63
		c0.204,0.732,0.708,1.057,1.227,0.917C113.351,62.855,113.462,62.307,113.268,61.604z M110.95,62.206l-0.16-0.572l-2.056,0.567
		c0.015,0.145,0.063,0.349,0.131,0.596c0.199,0.718,0.65,1.309,1.431,1.091C111.033,63.685,111.159,62.967,110.95,62.206z
		 M108.783,51.775c-0.17-0.267-0.32-0.456-0.417-0.543l-1.828,1.174c0.048,0.155,0.145,0.33,0.272,0.533
		c0.47,0.732,1.115,0.955,1.765,0.538C109.195,53.074,109.214,52.444,108.783,51.775z M47.987,52.594
		c-0.373-0.087-0.698-0.194-1.018-0.296l-0.005,0.015c0.238,0.247,0.475,0.504,0.708,0.776l1.077,1.324l0.897-1.426L47.987,52.594z
		 M53.142,47.653c-0.984-0.873-2.109-0.863-3.113,0.281c-0.247,0.281-0.407,0.519-0.504,0.689l3.322,2.91
		c0.145-0.116,0.325-0.31,0.514-0.524C54.374,49.85,54.277,48.652,53.142,47.653z M63.849,40.141
		c-0.592-1.178-1.639-1.586-2.997-0.892c-0.335,0.17-0.572,0.325-0.723,0.451l2.003,3.933c0.179-0.053,0.422-0.17,0.669-0.296
		C64.179,42.634,64.533,41.485,63.849,40.141z M85.487,36.936c-0.048-0.383-0.063-0.723-0.078-1.057l-0.019-0.005
		c-0.145,0.31-0.306,0.626-0.48,0.936l-0.863,1.474l1.649,0.339L85.487,36.936z M99.365,41.887
		c-0.301-0.223-0.548-0.364-0.727-0.446l-2.628,3.545c0.126,0.136,0.335,0.301,0.563,0.47c1.237,0.917,2.425,0.723,3.327-0.49
		C100.689,43.914,100.587,42.794,99.365,41.887z M112.9,78.431l-1.479-0.853l-0.33,1.649l1.683-0.218
		c0.383-0.053,0.727-0.068,1.057-0.087l0.005-0.015C113.525,78.761,113.21,78.606,112.9,78.431z M113.268,61.604
		c-0.087-0.32-0.165-0.495-0.218-0.601l-1.736,0.485l0.179,0.63c0.204,0.732,0.708,1.057,1.227,0.917
		C113.351,62.855,113.462,62.307,113.268,61.604z M110.95,62.206l-0.16-0.572l-2.056,0.567c0.015,0.145,0.063,0.349,0.131,0.596
		c0.199,0.718,0.65,1.309,1.431,1.091C111.033,63.685,111.159,62.967,110.95,62.206z M47.987,52.594
		c-0.373-0.087-0.698-0.194-1.018-0.296l-0.005,0.015c0.238,0.247,0.475,0.504,0.708,0.776l1.077,1.324l0.897-1.426L47.987,52.594z
		 M53.142,47.653c-0.984-0.873-2.109-0.863-3.113,0.281c-0.247,0.281-0.407,0.519-0.504,0.689l3.322,2.91
		c0.145-0.116,0.325-0.31,0.514-0.524C54.374,49.85,54.277,48.652,53.142,47.653z M63.849,40.141
		c-0.592-1.178-1.639-1.586-2.997-0.892c-0.335,0.17-0.572,0.325-0.723,0.451l2.003,3.933c0.179-0.053,0.422-0.17,0.669-0.296
		C64.179,42.634,64.533,41.485,63.849,40.141z M85.487,36.936c-0.048-0.383-0.063-0.723-0.078-1.057l-0.019-0.005
		c-0.145,0.31-0.306,0.626-0.48,0.936l-0.863,1.474l1.649,0.339L85.487,36.936z M99.365,41.887
		c-0.301-0.223-0.548-0.364-0.727-0.446l-2.628,3.545c0.126,0.136,0.335,0.301,0.563,0.47c1.237,0.917,2.425,0.723,3.327-0.49
		C100.689,43.914,100.587,42.794,99.365,41.887z M108.783,51.775c-0.17-0.267-0.32-0.456-0.417-0.543l-1.828,1.174
		c0.048,0.155,0.145,0.33,0.272,0.533c0.47,0.732,1.115,0.955,1.765,0.538C109.195,53.074,109.214,52.444,108.783,51.775z
		 M112.9,78.431l-1.479-0.853l-0.33,1.649l1.683-0.218c0.383-0.053,0.727-0.068,1.057-0.087l0.005-0.015
		C113.525,78.761,113.21,78.606,112.9,78.431z M113.268,61.604c-0.087-0.32-0.165-0.495-0.218-0.601l-1.736,0.485l0.179,0.63
		c0.204,0.732,0.708,1.057,1.227,0.917C113.351,62.855,113.462,62.307,113.268,61.604z M110.95,62.206l-0.16-0.572l-2.056,0.567
		c0.015,0.145,0.063,0.349,0.131,0.596c0.199,0.718,0.65,1.309,1.431,1.091C111.033,63.685,111.159,62.967,110.95,62.206z
		 M108.783,51.775c-0.17-0.267-0.32-0.456-0.417-0.543l-1.828,1.174c0.048,0.155,0.145,0.33,0.272,0.533
		c0.47,0.732,1.115,0.955,1.765,0.538C109.195,53.074,109.214,52.444,108.783,51.775z M44.132,74.334l-1.542,0.708
		c-0.354,0.16-0.674,0.276-0.984,0.388v0.019c0.339,0.048,0.684,0.107,1.033,0.179l1.663,0.378L44.132,74.334z M47.987,52.594
		c-0.373-0.087-0.698-0.194-1.018-0.296l-0.005,0.015c0.238,0.247,0.475,0.504,0.708,0.776l1.077,1.324l0.897-1.426L47.987,52.594z
		 M53.142,47.653c-0.984-0.873-2.109-0.863-3.113,0.281c-0.247,0.281-0.407,0.519-0.504,0.689l3.322,2.91
		c0.145-0.116,0.325-0.31,0.514-0.524C54.374,49.85,54.277,48.652,53.142,47.653z M63.849,40.141
		c-0.592-1.178-1.639-1.586-2.997-0.892c-0.335,0.17-0.572,0.325-0.723,0.451l2.003,3.933c0.179-0.053,0.422-0.17,0.669-0.296
		C64.179,42.634,64.533,41.485,63.849,40.141z M85.487,36.936c-0.048-0.383-0.063-0.723-0.078-1.057l-0.019-0.005
		c-0.145,0.31-0.306,0.626-0.48,0.936l-0.863,1.474l1.649,0.339L85.487,36.936z M99.365,41.887
		c-0.301-0.223-0.548-0.364-0.727-0.446l-2.628,3.545c0.126,0.136,0.335,0.301,0.563,0.47c1.237,0.917,2.425,0.723,3.327-0.49
		C100.689,43.914,100.587,42.794,99.365,41.887z M112.9,78.431l-1.479-0.853l-0.33,1.649l1.683-0.218
		c0.383-0.053,0.727-0.068,1.057-0.087l0.005-0.015C113.525,78.761,113.21,78.606,112.9,78.431z M113.268,61.604
		c-0.087-0.32-0.165-0.495-0.218-0.601l-1.736,0.485l0.179,0.63c0.204,0.732,0.708,1.057,1.227,0.917
		C113.351,62.855,113.462,62.307,113.268,61.604z M110.95,62.206l-0.16-0.572l-2.056,0.567c0.015,0.145,0.063,0.349,0.131,0.596
		c0.199,0.718,0.65,1.309,1.431,1.091C111.033,63.685,111.159,62.967,110.95,62.206z M44.132,74.334l-1.542,0.708
		c-0.354,0.16-0.674,0.276-0.984,0.388v0.019c0.339,0.048,0.684,0.107,1.033,0.179l1.663,0.378L44.132,74.334z M47.987,52.594
		c-0.373-0.087-0.698-0.194-1.018-0.296l-0.005,0.015c0.238,0.247,0.475,0.504,0.708,0.776l1.077,1.324l0.897-1.426L47.987,52.594z
		 M53.142,47.653c-0.984-0.873-2.109-0.863-3.113,0.281c-0.247,0.281-0.407,0.519-0.504,0.689l3.322,2.91
		c0.145-0.116,0.325-0.31,0.514-0.524C54.374,49.85,54.277,48.652,53.142,47.653z M63.849,40.141
		c-0.592-1.178-1.639-1.586-2.997-0.892c-0.335,0.17-0.572,0.325-0.723,0.451l2.003,3.933c0.179-0.053,0.422-0.17,0.669-0.296
		C64.179,42.634,64.533,41.485,63.849,40.141z M85.487,36.936c-0.048-0.383-0.063-0.723-0.078-1.057l-0.019-0.005
		c-0.145,0.31-0.306,0.626-0.48,0.936l-0.863,1.474l1.649,0.339L85.487,36.936z M99.365,41.887
		c-0.301-0.223-0.548-0.364-0.727-0.446l-2.628,3.545c0.126,0.136,0.335,0.301,0.563,0.47c1.237,0.917,2.425,0.723,3.327-0.49
		C100.689,43.914,100.587,42.794,99.365,41.887z M108.783,51.775c-0.17-0.267-0.32-0.456-0.417-0.543l-1.828,1.174
		c0.048,0.155,0.145,0.33,0.272,0.533c0.47,0.732,1.115,0.955,1.765,0.538C109.195,53.074,109.214,52.444,108.783,51.775z
		 M112.9,78.431l-1.479-0.853l-0.33,1.649l1.683-0.218c0.383-0.053,0.727-0.068,1.057-0.087l0.005-0.015
		C113.525,78.761,113.21,78.606,112.9,78.431z M113.268,61.604c-0.087-0.32-0.165-0.495-0.218-0.601l-1.736,0.485l0.179,0.63
		c0.204,0.732,0.708,1.057,1.227,0.917C113.351,62.855,113.462,62.307,113.268,61.604z M110.95,62.206l-0.16-0.572l-2.056,0.567
		c0.015,0.145,0.063,0.349,0.131,0.596c0.199,0.718,0.65,1.309,1.431,1.091C111.033,63.685,111.159,62.967,110.95,62.206z
		 M108.783,51.775c-0.17-0.267-0.32-0.456-0.417-0.543l-1.828,1.174c0.048,0.155,0.145,0.33,0.272,0.533
		c0.47,0.732,1.115,0.955,1.765,0.538C109.195,53.074,109.214,52.444,108.783,51.775z M44.132,74.334l-1.542,0.708
		c-0.354,0.16-0.674,0.276-0.984,0.388v0.019c0.339,0.048,0.684,0.107,1.033,0.179l1.663,0.378L44.132,74.334z M47.987,52.594
		c-0.373-0.087-0.698-0.194-1.018-0.296l-0.005,0.015c0.238,0.247,0.475,0.504,0.708,0.776l1.077,1.324l0.897-1.426L47.987,52.594z
		 M53.142,47.653c-0.984-0.873-2.109-0.863-3.113,0.281c-0.247,0.281-0.407,0.519-0.504,0.689l3.322,2.91
		c0.145-0.116,0.325-0.31,0.514-0.524C54.374,49.85,54.277,48.652,53.142,47.653z M63.849,40.141
		c-0.592-1.178-1.639-1.586-2.997-0.892c-0.335,0.17-0.572,0.325-0.723,0.451l2.003,3.933c0.179-0.053,0.422-0.17,0.669-0.296
		C64.179,42.634,64.533,41.485,63.849,40.141z M85.487,36.936c-0.048-0.383-0.063-0.723-0.078-1.057l-0.019-0.005
		c-0.145,0.31-0.306,0.626-0.48,0.936l-0.863,1.474l1.649,0.339L85.487,36.936z M99.365,41.887
		c-0.301-0.223-0.548-0.364-0.727-0.446l-2.628,3.545c0.126,0.136,0.335,0.301,0.563,0.47c1.237,0.917,2.425,0.723,3.327-0.49
		C100.689,43.914,100.587,42.794,99.365,41.887z M112.9,78.431l-1.479-0.853l-0.33,1.649l1.683-0.218
		c0.383-0.053,0.727-0.068,1.057-0.087l0.005-0.015C113.525,78.761,113.21,78.606,112.9,78.431z M113.268,61.604
		c-0.087-0.32-0.165-0.495-0.218-0.601l-1.736,0.485l0.179,0.63c0.204,0.732,0.708,1.057,1.227,0.917
		C113.351,62.855,113.462,62.307,113.268,61.604z M110.95,62.206l-0.16-0.572l-2.056,0.567c0.015,0.145,0.063,0.349,0.131,0.596
		c0.199,0.718,0.65,1.309,1.431,1.091C111.033,63.685,111.159,62.967,110.95,62.206z M44.132,74.334l-1.542,0.708
		c-0.354,0.16-0.674,0.276-0.984,0.388v0.019c0.339,0.048,0.684,0.107,1.033,0.179l1.663,0.378L44.132,74.334z M47.987,52.594
		c-0.373-0.087-0.698-0.194-1.018-0.296l-0.005,0.015c0.238,0.247,0.475,0.504,0.708,0.776l1.077,1.324l0.897-1.426L47.987,52.594z
		 M53.142,47.653c-0.984-0.873-2.109-0.863-3.113,0.281c-0.247,0.281-0.407,0.519-0.504,0.689l3.322,2.91
		c0.145-0.116,0.325-0.31,0.514-0.524C54.374,49.85,54.277,48.652,53.142,47.653z M63.849,40.141
		c-0.592-1.178-1.639-1.586-2.997-0.892c-0.335,0.17-0.572,0.325-0.723,0.451l2.003,3.933c0.179-0.053,0.422-0.17,0.669-0.296
		C64.179,42.634,64.533,41.485,63.849,40.141z M85.487,36.936c-0.048-0.383-0.063-0.723-0.078-1.057l-0.019-0.005
		c-0.145,0.31-0.306,0.626-0.48,0.936l-0.863,1.474l1.649,0.339L85.487,36.936z M99.365,41.887
		c-0.301-0.223-0.548-0.364-0.727-0.446l-2.628,3.545c0.126,0.136,0.335,0.301,0.563,0.47c1.237,0.917,2.425,0.723,3.327-0.49
		C100.689,43.914,100.587,42.794,99.365,41.887z M108.783,51.775c-0.17-0.267-0.32-0.456-0.417-0.543l-1.828,1.174
		c0.048,0.155,0.145,0.33,0.272,0.533c0.47,0.732,1.115,0.955,1.765,0.538C109.195,53.074,109.214,52.444,108.783,51.775z
		 M112.9,78.431l-1.479-0.853l-0.33,1.649l1.683-0.218c0.383-0.053,0.727-0.068,1.057-0.087l0.005-0.015
		C113.525,78.761,113.21,78.606,112.9,78.431z M113.268,61.604c-0.087-0.32-0.165-0.495-0.218-0.601l-1.736,0.485l0.179,0.63
		c0.204,0.732,0.708,1.057,1.227,0.917C113.351,62.855,113.462,62.307,113.268,61.604z M110.95,62.206l-0.16-0.572l-2.056,0.567
		c0.015,0.145,0.063,0.349,0.131,0.596c0.199,0.718,0.65,1.309,1.431,1.091C111.033,63.685,111.159,62.967,110.95,62.206z
		 M108.783,51.775c-0.17-0.267-0.32-0.456-0.417-0.543l-1.828,1.174c0.048,0.155,0.145,0.33,0.272,0.533
		c0.47,0.732,1.115,0.955,1.765,0.538C109.195,53.074,109.214,52.444,108.783,51.775z M44.132,74.334l-1.542,0.708
		c-0.354,0.16-0.674,0.276-0.984,0.388v0.019c0.339,0.048,0.684,0.107,1.033,0.179l1.663,0.378L44.132,74.334z M47.987,52.594
		c-0.373-0.087-0.698-0.194-1.018-0.296l-0.005,0.015c0.238,0.247,0.475,0.504,0.708,0.776l1.077,1.324l0.897-1.426L47.987,52.594z
		 M53.142,47.653c-0.984-0.873-2.109-0.863-3.113,0.281c-0.247,0.281-0.407,0.519-0.504,0.689l3.322,2.91
		c0.145-0.116,0.325-0.31,0.514-0.524C54.374,49.85,54.277,48.652,53.142,47.653z M63.849,40.141
		c-0.592-1.178-1.639-1.586-2.997-0.892c-0.335,0.17-0.572,0.325-0.723,0.451l2.003,3.933c0.179-0.053,0.422-0.17,0.669-0.296
		C64.179,42.634,64.533,41.485,63.849,40.141z M73.873,104.797c-0.364-0.048-0.645-0.058-0.79-0.039l-0.33,2.502
		c0.175,0.073,0.402,0.121,0.679,0.16c1.004,0.131,1.678-0.276,1.794-1.164C75.337,105.408,74.789,104.918,73.873,104.797z
		 M85.487,36.936c-0.048-0.383-0.063-0.723-0.078-1.057l-0.019-0.005c-0.145,0.31-0.306,0.626-0.48,0.936l-0.863,1.474l1.649,0.339
		L85.487,36.936z M99.365,41.887c-0.301-0.223-0.548-0.364-0.727-0.446l-2.628,3.545c0.126,0.136,0.335,0.301,0.563,0.47
		c1.237,0.917,2.425,0.723,3.327-0.49C100.689,43.914,100.587,42.794,99.365,41.887z M112.9,78.431l-1.479-0.853l-0.33,1.649
		l1.683-0.218c0.383-0.053,0.727-0.068,1.057-0.087l0.005-0.015C113.525,78.761,113.21,78.606,112.9,78.431z M113.268,61.604
		c-0.087-0.32-0.165-0.495-0.218-0.601l-1.736,0.485l0.179,0.63c0.204,0.732,0.708,1.057,1.227,0.917
		C113.351,62.855,113.462,62.307,113.268,61.604z M110.95,62.206l-0.16-0.572l-2.056,0.567c0.015,0.145,0.063,0.349,0.131,0.596
		c0.199,0.718,0.65,1.309,1.431,1.091C111.033,63.685,111.159,62.967,110.95,62.206z M73.873,104.797
		c-0.364-0.048-0.645-0.058-0.79-0.039l-0.33,2.502c0.175,0.073,0.402,0.121,0.679,0.16c1.004,0.131,1.678-0.276,1.794-1.164
		C75.337,105.408,74.789,104.918,73.873,104.797z M44.132,74.334l-1.542,0.708c-0.354,0.16-0.674,0.276-0.984,0.388v0.019
		c0.339,0.048,0.684,0.107,1.033,0.179l1.663,0.378L44.132,74.334z M47.987,52.594c-0.373-0.087-0.698-0.194-1.018-0.296
		l-0.005,0.015c0.238,0.247,0.475,0.504,0.708,0.776l1.077,1.324l0.897-1.426L47.987,52.594z M53.142,47.653
		c-0.984-0.873-2.109-0.863-3.113,0.281c-0.247,0.281-0.407,0.519-0.504,0.689l3.322,2.91c0.145-0.116,0.325-0.31,0.514-0.524
		C54.374,49.85,54.277,48.652,53.142,47.653z M63.849,40.141c-0.592-1.178-1.639-1.586-2.997-0.892
		c-0.335,0.17-0.572,0.325-0.723,0.451l2.003,3.933c0.179-0.053,0.422-0.17,0.669-0.296C64.179,42.634,64.533,41.485,63.849,40.141z
		 M85.487,36.936c-0.048-0.383-0.063-0.723-0.078-1.057l-0.019-0.005c-0.145,0.31-0.306,0.626-0.48,0.936l-0.863,1.474l1.649,0.339
		L85.487,36.936z M99.365,41.887c-0.301-0.223-0.548-0.364-0.727-0.446l-2.628,3.545c0.126,0.136,0.335,0.301,0.563,0.47
		c1.237,0.917,2.425,0.723,3.327-0.49C100.689,43.914,100.587,42.794,99.365,41.887z M108.783,51.775
		c-0.17-0.267-0.32-0.456-0.417-0.543l-1.828,1.174c0.048,0.155,0.145,0.33,0.272,0.533c0.47,0.732,1.115,0.955,1.765,0.538
		C109.195,53.074,109.214,52.444,108.783,51.775z M112.9,78.431l-1.479-0.853l-0.33,1.649l1.683-0.218
		c0.383-0.053,0.727-0.068,1.057-0.087l0.005-0.015C113.525,78.761,113.21,78.606,112.9,78.431z M113.268,61.604
		c-0.087-0.32-0.165-0.495-0.218-0.601l-1.736,0.485l0.179,0.63c0.204,0.732,0.708,1.057,1.227,0.917
		C113.351,62.855,113.462,62.307,113.268,61.604z M110.95,62.206l-0.16-0.572l-2.056,0.567c0.015,0.145,0.063,0.349,0.131,0.596
		c0.199,0.718,0.65,1.309,1.431,1.091C111.033,63.685,111.159,62.967,110.95,62.206z M108.783,51.775
		c-0.17-0.267-0.32-0.456-0.417-0.543l-1.828,1.174c0.048,0.155,0.145,0.33,0.272,0.533c0.47,0.732,1.115,0.955,1.765,0.538
		C109.195,53.074,109.214,52.444,108.783,51.775z M44.132,74.334l-1.542,0.708c-0.354,0.16-0.674,0.276-0.984,0.388v0.019
		c0.339,0.048,0.684,0.107,1.033,0.179l1.663,0.378L44.132,74.334z M47.987,52.594c-0.373-0.087-0.698-0.194-1.018-0.296
		l-0.005,0.015c0.238,0.247,0.475,0.504,0.708,0.776l1.077,1.324l0.897-1.426L47.987,52.594z M53.142,47.653
		c-0.984-0.873-2.109-0.863-3.113,0.281c-0.247,0.281-0.407,0.519-0.504,0.689l3.322,2.91c0.145-0.116,0.325-0.31,0.514-0.524
		C54.374,49.85,54.277,48.652,53.142,47.653z M63.849,40.141c-0.592-1.178-1.639-1.586-2.997-0.892
		c-0.335,0.17-0.572,0.325-0.723,0.451l2.003,3.933c0.179-0.053,0.422-0.17,0.669-0.296C64.179,42.634,64.533,41.485,63.849,40.141z
		 M73.873,104.797c-0.364-0.048-0.645-0.058-0.79-0.039l-0.33,2.502c0.175,0.073,0.402,0.121,0.679,0.16
		c1.004,0.131,1.678-0.276,1.794-1.164C75.337,105.408,74.789,104.918,73.873,104.797z M81.826,107.624
		c-0.049-1.29-0.766-2.619-2.163-2.565c-1.387,0.048-2.037,1.353-1.983,2.779c0.048,1.387,0.844,2.599,2.163,2.556
		C81.171,110.344,81.879,109.093,81.826,107.624z M85.487,36.936c-0.048-0.383-0.063-0.723-0.078-1.057l-0.019-0.005
		c-0.145,0.31-0.306,0.626-0.48,0.936l-0.863,1.474l1.649,0.339L85.487,36.936z M99.365,41.887
		c-0.301-0.223-0.548-0.364-0.727-0.446l-2.628,3.545c0.126,0.136,0.335,0.301,0.563,0.47c1.237,0.917,2.425,0.723,3.327-0.49
		C100.689,43.914,100.587,42.794,99.365,41.887z M112.9,78.431l-1.479-0.853l-0.33,1.649l1.683-0.218
		c0.383-0.053,0.727-0.068,1.057-0.087l0.005-0.015C113.525,78.761,113.21,78.606,112.9,78.431z M113.268,61.604
		c-0.087-0.32-0.165-0.495-0.218-0.601l-1.736,0.485l0.179,0.63c0.204,0.732,0.708,1.057,1.227,0.917
		C113.351,62.855,113.462,62.307,113.268,61.604z M110.79,61.633l-2.056,0.567c0.015,0.145,0.063,0.349,0.131,0.596
		c0.199,0.718,0.65,1.309,1.431,1.091c0.737-0.204,0.863-0.921,0.655-1.683L110.79,61.633z M81.826,107.624
		c-0.049-1.29-0.766-2.619-2.163-2.565c-1.387,0.048-2.037,1.353-1.983,2.779c0.048,1.387,0.844,2.599,2.163,2.556
		C81.171,110.344,81.879,109.093,81.826,107.624z M73.873,104.797c-0.364-0.048-0.645-0.058-0.79-0.039l-0.33,2.502
		c0.175,0.073,0.402,0.121,0.679,0.16c1.004,0.131,1.678-0.276,1.794-1.164C75.337,105.408,74.789,104.918,73.873,104.797z
		 M44.132,74.334l-1.542,0.708c-0.354,0.16-0.674,0.276-0.984,0.388v0.019c0.339,0.048,0.684,0.107,1.033,0.179l1.663,0.378
		L44.132,74.334z M47.987,52.594c-0.373-0.087-0.698-0.194-1.018-0.296l-0.005,0.015c0.238,0.247,0.475,0.504,0.708,0.776
		l1.077,1.324l0.897-1.426L47.987,52.594z M53.142,47.653c-0.984-0.873-2.109-0.863-3.113,0.281
		c-0.247,0.281-0.407,0.519-0.504,0.689l3.322,2.91c0.145-0.116,0.325-0.31,0.514-0.524C54.374,49.85,54.277,48.652,53.142,47.653z
		 M63.849,40.141c-0.592-1.178-1.639-1.586-2.997-0.892c-0.335,0.17-0.572,0.325-0.723,0.451l2.003,3.933
		c0.179-0.053,0.422-0.17,0.669-0.296C64.179,42.634,64.533,41.485,63.849,40.141z M85.487,36.936
		c-0.048-0.383-0.063-0.723-0.078-1.057l-0.019-0.005c-0.145,0.31-0.306,0.626-0.48,0.936l-0.863,1.474l1.649,0.339L85.487,36.936z
		 M99.365,41.887c-0.301-0.223-0.548-0.364-0.727-0.446l-2.628,3.545c0.126,0.136,0.335,0.301,0.563,0.47
		c1.237,0.917,2.425,0.723,3.327-0.49C100.689,43.914,100.587,42.794,99.365,41.887z M108.783,51.775
		c-0.17-0.267-0.32-0.456-0.417-0.543l-1.828,1.174c0.048,0.155,0.145,0.33,0.272,0.533c0.47,0.732,1.115,0.955,1.765,0.538
		C109.195,53.074,109.214,52.444,108.783,51.775z M113.831,78.921l0.005-0.015c-0.31-0.145-0.626-0.301-0.936-0.475l-1.479-0.853
		l-0.33,1.649l1.683-0.218C113.157,78.955,113.501,78.94,113.831,78.921z M112.72,63.035c0.63-0.179,0.742-0.727,0.548-1.431
		c-0.087-0.32-0.165-0.495-0.218-0.601l-1.736,0.485l0.179,0.63C111.697,62.851,112.201,63.175,112.72,63.035z M110.296,63.888
		c0.737-0.204,0.863-0.921,0.655-1.683l-0.16-0.572l-2.056,0.567c0.015,0.145,0.063,0.349,0.131,0.596
		C109.064,63.515,109.515,64.107,110.296,63.888z M108.574,53.477c0.621-0.402,0.64-1.033,0.209-1.702
		c-0.17-0.267-0.32-0.456-0.417-0.543l-1.828,1.174c0.048,0.155,0.145,0.33,0.272,0.533
		C107.279,53.671,107.924,53.894,108.574,53.477z M78.106,30.239c-23.189,0-41.985,18.796-41.985,41.98
		c0,23.189,18.796,41.985,41.985,41.985c23.184,0,41.98-18.796,41.98-41.985C120.086,49.035,101.291,30.239,78.106,30.239z
		 M115.15,70.023l-5.581,0.301l-0.039-0.723l5.582-0.296L115.15,70.023z M114.723,65.765l-4.937,0.708l0.339,2.366l-0.601,0.087
		l-0.436-3.079l5.533-0.795L114.723,65.765z M111.401,55.266l-3.021,1.353c-1.144,0.514-1.397,1.237-1.091,1.92
		c0.339,0.756,1.052,1.014,2.182,0.509l3.021-1.353l0.296,0.664l-2.973,1.334c-1.566,0.703-2.58,0.17-3.074-0.936
		c-0.47-1.047-0.228-2.1,1.358-2.813l3.002-1.348L111.401,55.266z M108.419,50.344c0.238,0.262,0.524,0.616,0.839,1.106
		c0.383,0.601,0.524,1.13,0.456,1.571c-0.058,0.402-0.306,0.776-0.723,1.043c-0.427,0.276-0.844,0.364-1.241,0.281
		c-0.548-0.102-1.057-0.514-1.435-1.106c-0.116-0.184-0.218-0.354-0.272-0.514l-1.886,1.207l-0.393-0.611L108.419,50.344z
		 M99.676,41.407c0.834,0.616,1.285,1.251,1.406,1.911c0.126,0.659-0.024,1.353-0.563,2.08c-0.543,0.732-1.217,1.164-1.945,1.266
		c-0.727,0.107-1.591-0.179-2.463-0.829c-0.412-0.306-0.742-0.582-1.014-0.834l3.278-4.413
		C98.769,40.796,99.22,41.068,99.676,41.407z M91.587,40.549l1.498-2.934l0.65,0.335l-1.508,2.948
		c-0.567,1.115-0.315,1.838,0.349,2.177c0.737,0.378,1.46,0.136,2.022-0.965l1.508-2.948l0.65,0.335l-1.484,2.9
		c-0.786,1.532-1.911,1.746-2.987,1.193C91.267,43.07,90.797,42.091,91.587,40.549z M89.177,36.175l0.679,0.242l-1.668,4.699
		l2.25,0.795l-0.204,0.572l-2.929-1.043L89.177,36.175z M85.123,35.166l0.853,0.175l0.737,5.863l-0.756-0.155l-0.228-1.843
		l-1.945-0.402l-0.921,1.605l-0.732-0.15L85.123,35.166z M78.611,39.167c0.306,0.218,0.771,0.417,1.266,0.451
		c0.737,0.044,1.193-0.315,1.227-0.878c0.039-0.524-0.242-0.839-0.975-1.178c-0.892-0.383-1.426-0.892-1.372-1.678
		c0.058-0.868,0.82-1.469,1.906-1.397c0.567,0.034,0.975,0.194,1.212,0.354l-0.238,0.572c-0.175-0.112-0.533-0.301-1.043-0.335
		c-0.761-0.049-1.081,0.388-1.106,0.771c-0.034,0.519,0.291,0.8,1.043,1.149c0.916,0.422,1.367,0.912,1.314,1.731
		c-0.053,0.858-0.742,1.561-2.056,1.479c-0.538-0.034-1.115-0.233-1.401-0.451L78.611,39.167z M67.627,35.908l0.189,0.577
		l-2.172,0.732l0.563,1.673l2.056-0.693l0.194,0.567l-2.061,0.693l0.645,1.911l2.294-0.776l0.194,0.572l-2.977,1.004l-1.785-5.295
		L67.627,35.908z M60.562,38.755c0.926-0.47,1.692-0.592,2.333-0.407c0.655,0.179,1.207,0.626,1.615,1.431
		c0.417,0.81,0.504,1.605,0.272,2.299c-0.228,0.703-0.868,1.348-1.838,1.843c-0.461,0.233-0.853,0.407-1.198,0.533l-2.497-4.898
		C59.606,39.293,60.052,39.012,60.562,38.755z M49.578,47.585c0.684-0.781,1.348-1.178,2.017-1.246
		c0.669-0.073,1.348,0.136,2.027,0.732c0.684,0.601,1.062,1.304,1.106,2.037c0.048,0.737-0.31,1.571-1.028,2.391
		c-0.339,0.388-0.64,0.693-0.912,0.941l-4.136-3.622C48.894,48.439,49.2,48.017,49.578,47.585z M46.668,51.581l5.751,1.353
		l-0.412,0.655l-1.804-0.432l-1.052,1.683l1.178,1.426l-0.393,0.63l-3.734-4.578L46.668,51.581z M45.17,54.01l0.553,0.262
		l-0.727,1.547l4.51,2.119l-0.315,0.66l-4.505-2.114l-0.723,1.537l-0.558-0.262L45.17,54.01z M41.237,65.673l3.244,0.65
		c1.227,0.247,1.857-0.194,2.003-0.926c0.165-0.815-0.272-1.44-1.479-1.683l-3.244-0.65l0.141-0.718l3.196,0.64
		c1.683,0.339,2.197,1.363,1.959,2.551c-0.223,1.12-1.038,1.838-2.735,1.498l-3.23-0.645L41.237,65.673z M41.058,67.947l0.582,0.199
		c-0.145,0.267-0.262,0.655-0.281,1.115C41.3,70.571,42.1,71.477,43.57,71.54c1.367,0.058,2.279-0.689,2.337-2.051
		c0.019-0.436-0.053-0.887-0.184-1.183l0.582-0.126c0.121,0.272,0.228,0.805,0.199,1.484c-0.068,1.576-1.11,2.72-2.944,2.643
		c-1.751-0.078-2.88-1.314-2.808-3.045C40.781,68.568,40.951,68.131,41.058,67.947z M40.922,75.051l5.368-2.463l0.078,0.771
		L44.68,74.13l0.199,1.969l1.809,0.403l0.078,0.742l-5.756-1.324L40.922,75.051z M41.974,81.205l-0.659-2.939l0.592-0.131
		l0.499,2.236l1.814-0.407l-0.461-2.066l0.582-0.131l0.466,2.066l2.468-0.553l0.155,0.703L41.974,81.205z M42.44,60.581l0.238-0.679
		l4.704,1.654l0.79-2.255l0.572,0.204l-1.033,2.934L42.44,60.581z M65.687,105.733l-2.347-0.931l-0.863,2.172l2.614,1.043
		l-0.262,0.65l-3.394-1.348l2.4-6.032l3.259,1.295l-0.257,0.655l-2.483-0.989l-0.756,1.911l2.347,0.931L65.687,105.733z
		 M70.798,104.545c-0.175-0.165-0.543-0.461-1.11-0.616c-0.858-0.228-1.319,0.199-1.435,0.626c-0.155,0.587,0.15,0.98,0.926,1.542
		c0.95,0.693,1.353,1.353,1.106,2.274c-0.257,0.965-1.198,1.615-2.677,1.217c-0.606-0.16-1.222-0.514-1.494-0.829l0.383-0.626
		c0.306,0.325,0.786,0.65,1.343,0.8c0.829,0.223,1.431-0.087,1.6-0.723c0.155-0.582-0.092-1.009-0.849-1.561
		c-0.926-0.635-1.421-1.334-1.183-2.221c0.262-0.975,1.266-1.489,2.483-1.159c0.645,0.17,1.072,0.441,1.304,0.674L70.798,104.545z
		 M76.065,106.329c-0.078,0.582-0.31,1.018-0.679,1.309c-0.504,0.407-1.251,0.553-2.061,0.446c-0.247-0.034-0.475-0.073-0.664-0.145
		l-0.339,2.58l-0.829-0.112l0.839-6.362c0.407-0.01,0.941,0,1.61,0.087c0.82,0.107,1.397,0.378,1.736,0.771
		C75.992,105.257,76.137,105.752,76.065,106.329z M79.818,111.076c-1.717,0.058-2.963-1.227-3.036-3.191
		c-0.073-2.061,1.159-3.453,2.895-3.516c1.77-0.058,2.963,1.256,3.031,3.181C82.786,109.787,81.472,111.018,79.818,111.076z
		 M87.427,110.048c-1.789,0.388-3.38-0.446-3.836-2.526c-0.432-1.988,0.621-3.627,2.589-4.054c0.79-0.175,1.324-0.112,1.566-0.044
		l-0.053,0.708c-0.344-0.082-0.81-0.097-1.338,0.015c-1.484,0.325-2.265,1.494-1.906,3.157c0.339,1.552,1.45,2.357,2.997,2.022
		c0.499-0.112,0.984-0.325,1.275-0.558l0.315,0.616C88.765,109.597,88.198,109.879,87.427,110.048z M94.453,107.585l-1.135-2.827
		l-2.91,1.169l1.13,2.822l-0.776,0.315l-2.415-6.028l0.776-0.31l1.009,2.522l2.914-1.169l-1.009-2.522l0.786-0.315l2.415,6.028
		L94.453,107.585z M77.98,101.635c-16.536,0-29.939-13.408-29.939-29.944c0-16.536,13.403-29.939,29.939-29.939
		c16.536,0,29.939,13.403,29.939,29.939C107.92,88.227,94.516,101.635,77.98,101.635z M108.031,61.648l5.295-1.469
		c0.15,0.286,0.33,0.752,0.466,1.241c0.194,0.693,0.199,1.174,0.019,1.586c-0.131,0.335-0.402,0.592-0.824,0.713
		c-0.519,0.141-1.072-0.078-1.435-0.587l-0.019,0.005c0.015,0.548-0.242,1.266-1.043,1.489c-0.461,0.126-0.863,0.044-1.203-0.155
		c-0.446-0.281-0.776-0.844-1.023-1.721C108.133,62.269,108.06,61.89,108.031,61.648z M114.369,79.488l-5.853,0.766l0.15-0.756
		l1.843-0.238l0.388-1.945l-1.61-0.912l0.15-0.732l5.106,2.963L114.369,79.488z M114.883,75.633l-0.577-0.204
		c0.145-0.267,0.262-0.655,0.286-1.115c0.063-1.309-0.732-2.221-2.202-2.294c-1.367-0.063-2.284,0.679-2.347,2.042
		c-0.024,0.436,0.048,0.887,0.175,1.188l-0.577,0.121c-0.121-0.272-0.228-0.81-0.194-1.489c0.073-1.576,1.125-2.711,2.958-2.623
		c1.746,0.082,2.876,1.324,2.793,3.06C115.164,75.012,114.995,75.444,114.883,75.633z M96.572,45.456
		c1.237,0.917,2.425,0.723,3.327-0.49c0.79-1.052,0.689-2.172-0.533-3.079c-0.301-0.223-0.548-0.364-0.727-0.446l-2.628,3.545
		C96.136,45.122,96.344,45.287,96.572,45.456z M85.487,36.936c-0.048-0.383-0.063-0.723-0.078-1.057l-0.019-0.005
		c-0.145,0.31-0.306,0.626-0.48,0.936l-0.863,1.474l1.649,0.339L85.487,36.936z M79.663,105.059
		c-1.387,0.048-2.037,1.353-1.983,2.779c0.048,1.387,0.844,2.599,2.163,2.556c1.329-0.049,2.037-1.3,1.983-2.769
		C81.777,106.334,81.059,105.005,79.663,105.059z M73.873,104.797c-0.364-0.048-0.645-0.058-0.79-0.039l-0.33,2.502
		c0.175,0.073,0.402,0.121,0.679,0.16c1.004,0.131,1.678-0.276,1.794-1.164C75.337,105.408,74.789,104.918,73.873,104.797z
		 M62.802,43.337c1.377-0.703,1.731-1.852,1.047-3.196c-0.592-1.178-1.639-1.586-2.997-0.892c-0.335,0.17-0.572,0.325-0.723,0.451
		l2.003,3.933C62.312,43.58,62.555,43.463,62.802,43.337z M53.36,51.009c1.014-1.159,0.917-2.357-0.218-3.356
		c-0.984-0.873-2.109-0.863-3.113,0.281c-0.247,0.281-0.407,0.519-0.504,0.689l3.322,2.91C52.992,51.416,53.171,51.222,53.36,51.009
		z M47.987,52.594c-0.373-0.087-0.698-0.194-1.018-0.296l-0.005,0.015c0.238,0.247,0.475,0.504,0.708,0.776l1.077,1.324l0.897-1.426
		L47.987,52.594z M42.59,75.042c-0.354,0.16-0.674,0.276-0.984,0.388v0.019c0.339,0.048,0.684,0.107,1.033,0.179l1.663,0.378
		l-0.17-1.673L42.59,75.042z M108.783,51.775c-0.17-0.267-0.32-0.456-0.417-0.543l-1.828,1.174c0.048,0.155,0.145,0.33,0.272,0.533
		c0.47,0.732,1.115,0.955,1.765,0.538C109.195,53.074,109.214,52.444,108.783,51.775z M110.95,62.206l-0.16-0.572l-2.056,0.567
		c0.015,0.145,0.063,0.349,0.131,0.596c0.199,0.718,0.65,1.309,1.431,1.091C111.033,63.685,111.159,62.967,110.95,62.206z
		 M113.268,61.604c-0.087-0.32-0.165-0.495-0.218-0.601l-1.736,0.485l0.179,0.63c0.204,0.732,0.708,1.057,1.227,0.917
		C113.351,62.855,113.462,62.307,113.268,61.604z M112.9,78.431l-1.479-0.853l-0.33,1.649l1.683-0.218
		c0.383-0.053,0.727-0.068,1.057-0.087l0.005-0.015C113.525,78.761,113.21,78.606,112.9,78.431z M108.783,51.775
		c-0.17-0.267-0.32-0.456-0.417-0.543l-1.828,1.174c0.048,0.155,0.145,0.33,0.272,0.533c0.47,0.732,1.115,0.955,1.765,0.538
		C109.195,53.074,109.214,52.444,108.783,51.775z M99.365,41.887c-0.301-0.223-0.548-0.364-0.727-0.446l-2.628,3.545
		c0.126,0.136,0.335,0.301,0.563,0.47c1.237,0.917,2.425,0.723,3.327-0.49C100.689,43.914,100.587,42.794,99.365,41.887z
		 M85.487,36.936c-0.048-0.383-0.063-0.723-0.078-1.057l-0.019-0.005c-0.145,0.31-0.306,0.626-0.48,0.936l-0.863,1.474l1.649,0.339
		L85.487,36.936z M63.849,40.141c-0.592-1.178-1.639-1.586-2.997-0.892c-0.335,0.17-0.572,0.325-0.723,0.451l2.003,3.933
		c0.179-0.053,0.422-0.17,0.669-0.296C64.179,42.634,64.533,41.485,63.849,40.141z M53.142,47.653
		c-0.984-0.873-2.109-0.863-3.113,0.281c-0.247,0.281-0.407,0.519-0.504,0.689l3.322,2.91c0.145-0.116,0.325-0.31,0.514-0.524
		C54.374,49.85,54.277,48.652,53.142,47.653z M47.987,52.594c-0.373-0.087-0.698-0.194-1.018-0.296l-0.005,0.015
		c0.238,0.247,0.475,0.504,0.708,0.776l1.077,1.324l0.897-1.426L47.987,52.594z M44.132,74.334l-1.542,0.708
		c-0.354,0.16-0.674,0.276-0.984,0.388v0.019c0.339,0.048,0.684,0.107,1.033,0.179l1.663,0.378L44.132,74.334z M73.873,104.797
		c-0.364-0.048-0.645-0.058-0.79-0.039l-0.33,2.502c0.175,0.073,0.402,0.121,0.679,0.16c1.004,0.131,1.678-0.276,1.794-1.164
		C75.337,105.408,74.789,104.918,73.873,104.797z M81.826,107.624c-0.049-1.29-0.766-2.619-2.163-2.565
		c-1.387,0.048-2.037,1.353-1.983,2.779c0.048,1.387,0.844,2.599,2.163,2.556C81.171,110.344,81.879,109.093,81.826,107.624z
		 M110.95,62.206l-0.16-0.572l-2.056,0.567c0.015,0.145,0.063,0.349,0.131,0.596c0.199,0.718,0.65,1.309,1.431,1.091
		C111.033,63.685,111.159,62.967,110.95,62.206z M113.268,61.604c-0.087-0.32-0.165-0.495-0.218-0.601l-1.736,0.485l0.179,0.63
		c0.204,0.732,0.708,1.057,1.227,0.917C113.351,62.855,113.462,62.307,113.268,61.604z M112.9,78.431l-1.479-0.853l-0.33,1.649
		l1.683-0.218c0.383-0.053,0.727-0.068,1.057-0.087l0.005-0.015C113.525,78.761,113.21,78.606,112.9,78.431z M99.365,41.887
		c-0.301-0.223-0.548-0.364-0.727-0.446l-2.628,3.545c0.126,0.136,0.335,0.301,0.563,0.47c1.237,0.917,2.425,0.723,3.327-0.49
		C100.689,43.914,100.587,42.794,99.365,41.887z M85.487,36.936c-0.048-0.383-0.063-0.723-0.078-1.057l-0.019-0.005
		c-0.145,0.31-0.306,0.626-0.48,0.936l-0.863,1.474l1.649,0.339L85.487,36.936z M81.826,107.624
		c-0.049-1.29-0.766-2.619-2.163-2.565c-1.387,0.048-2.037,1.353-1.983,2.779c0.048,1.387,0.844,2.599,2.163,2.556
		C81.171,110.344,81.879,109.093,81.826,107.624z M73.873,104.797c-0.364-0.048-0.645-0.058-0.79-0.039l-0.33,2.502
		c0.175,0.073,0.402,0.121,0.679,0.16c1.004,0.131,1.678-0.276,1.794-1.164C75.337,105.408,74.789,104.918,73.873,104.797z
		 M63.849,40.141c-0.592-1.178-1.639-1.586-2.997-0.892c-0.335,0.17-0.572,0.325-0.723,0.451l2.003,3.933
		c0.179-0.053,0.422-0.17,0.669-0.296C64.179,42.634,64.533,41.485,63.849,40.141z M53.142,47.653
		c-0.984-0.873-2.109-0.863-3.113,0.281c-0.247,0.281-0.407,0.519-0.504,0.689l3.322,2.91c0.145-0.116,0.325-0.31,0.514-0.524
		C54.374,49.85,54.277,48.652,53.142,47.653z M47.987,52.594c-0.373-0.087-0.698-0.194-1.018-0.296l-0.005,0.015
		c0.238,0.247,0.475,0.504,0.708,0.776l1.077,1.324l0.897-1.426L47.987,52.594z M44.132,74.334l-1.542,0.708
		c-0.354,0.16-0.674,0.276-0.984,0.388v0.019c0.339,0.048,0.684,0.107,1.033,0.179l1.663,0.378L44.132,74.334z M108.783,51.775
		c-0.17-0.267-0.32-0.456-0.417-0.543l-1.828,1.174c0.048,0.155,0.145,0.33,0.272,0.533c0.47,0.732,1.115,0.955,1.765,0.538
		C109.195,53.074,109.214,52.444,108.783,51.775z M110.95,62.206l-0.16-0.572l-2.056,0.567c0.015,0.145,0.063,0.349,0.131,0.596
		c0.199,0.718,0.65,1.309,1.431,1.091C111.033,63.685,111.159,62.967,110.95,62.206z M113.268,61.604
		c-0.087-0.32-0.165-0.495-0.218-0.601l-1.736,0.485l0.179,0.63c0.204,0.732,0.708,1.057,1.227,0.917
		C113.351,62.855,113.462,62.307,113.268,61.604z M112.9,78.431l-1.479-0.853l-0.33,1.649l1.683-0.218
		c0.383-0.053,0.727-0.068,1.057-0.087l0.005-0.015C113.525,78.761,113.21,78.606,112.9,78.431z M108.783,51.775
		c-0.17-0.267-0.32-0.456-0.417-0.543l-1.828,1.174c0.048,0.155,0.145,0.33,0.272,0.533c0.47,0.732,1.115,0.955,1.765,0.538
		C109.195,53.074,109.214,52.444,108.783,51.775z M99.365,41.887c-0.301-0.223-0.548-0.364-0.727-0.446l-2.628,3.545
		c0.126,0.136,0.335,0.301,0.563,0.47c1.237,0.917,2.425,0.723,3.327-0.49C100.689,43.914,100.587,42.794,99.365,41.887z
		 M85.487,36.936c-0.048-0.383-0.063-0.723-0.078-1.057l-0.019-0.005c-0.145,0.31-0.306,0.626-0.48,0.936l-0.863,1.474l1.649,0.339
		L85.487,36.936z M63.849,40.141c-0.592-1.178-1.639-1.586-2.997-0.892c-0.335,0.17-0.572,0.325-0.723,0.451l2.003,3.933
		c0.179-0.053,0.422-0.17,0.669-0.296C64.179,42.634,64.533,41.485,63.849,40.141z M53.142,47.653
		c-0.984-0.873-2.109-0.863-3.113,0.281c-0.247,0.281-0.407,0.519-0.504,0.689l3.322,2.91c0.145-0.116,0.325-0.31,0.514-0.524
		C54.374,49.85,54.277,48.652,53.142,47.653z M47.987,52.594c-0.373-0.087-0.698-0.194-1.018-0.296l-0.005,0.015
		c0.238,0.247,0.475,0.504,0.708,0.776l1.077,1.324l0.897-1.426L47.987,52.594z M44.132,74.334l-1.542,0.708
		c-0.354,0.16-0.674,0.276-0.984,0.388v0.019c0.339,0.048,0.684,0.107,1.033,0.179l1.663,0.378L44.132,74.334z M110.95,62.206
		l-0.16-0.572l-2.056,0.567c0.015,0.145,0.063,0.349,0.131,0.596c0.199,0.718,0.65,1.309,1.431,1.091
		C111.033,63.685,111.159,62.967,110.95,62.206z M113.268,61.604c-0.087-0.32-0.165-0.495-0.218-0.601l-1.736,0.485l0.179,0.63
		c0.204,0.732,0.708,1.057,1.227,0.917C113.351,62.855,113.462,62.307,113.268,61.604z M112.9,78.431l-1.479-0.853l-0.33,1.649
		l1.683-0.218c0.383-0.053,0.727-0.068,1.057-0.087l0.005-0.015C113.525,78.761,113.21,78.606,112.9,78.431z M99.365,41.887
		c-0.301-0.223-0.548-0.364-0.727-0.446l-2.628,3.545c0.126,0.136,0.335,0.301,0.563,0.47c1.237,0.917,2.425,0.723,3.327-0.49
		C100.689,43.914,100.587,42.794,99.365,41.887z M85.487,36.936c-0.048-0.383-0.063-0.723-0.078-1.057l-0.019-0.005
		c-0.145,0.31-0.306,0.626-0.48,0.936l-0.863,1.474l1.649,0.339L85.487,36.936z M63.849,40.141
		c-0.592-1.178-1.639-1.586-2.997-0.892c-0.335,0.17-0.572,0.325-0.723,0.451l2.003,3.933c0.179-0.053,0.422-0.17,0.669-0.296
		C64.179,42.634,64.533,41.485,63.849,40.141z M53.142,47.653c-0.984-0.873-2.109-0.863-3.113,0.281
		c-0.247,0.281-0.407,0.519-0.504,0.689l3.322,2.91c0.145-0.116,0.325-0.31,0.514-0.524C54.374,49.85,54.277,48.652,53.142,47.653z
		 M47.987,52.594c-0.373-0.087-0.698-0.194-1.018-0.296l-0.005,0.015c0.238,0.247,0.475,0.504,0.708,0.776l1.077,1.324l0.897-1.426
		L47.987,52.594z M44.132,74.334l-1.542,0.708c-0.354,0.16-0.674,0.276-0.984,0.388v0.019c0.339,0.048,0.684,0.107,1.033,0.179
		l1.663,0.378L44.132,74.334z M108.783,51.775c-0.17-0.267-0.32-0.456-0.417-0.543l-1.828,1.174c0.048,0.155,0.145,0.33,0.272,0.533
		c0.47,0.732,1.115,0.955,1.765,0.538C109.195,53.074,109.214,52.444,108.783,51.775z M110.95,62.206l-0.16-0.572l-2.056,0.567
		c0.015,0.145,0.063,0.349,0.131,0.596c0.199,0.718,0.65,1.309,1.431,1.091C111.033,63.685,111.159,62.967,110.95,62.206z
		 M113.268,61.604c-0.087-0.32-0.165-0.495-0.218-0.601l-1.736,0.485l0.179,0.63c0.204,0.732,0.708,1.057,1.227,0.917
		C113.351,62.855,113.462,62.307,113.268,61.604z M112.9,78.431l-1.479-0.853l-0.33,1.649l1.683-0.218
		c0.383-0.053,0.727-0.068,1.057-0.087l0.005-0.015C113.525,78.761,113.21,78.606,112.9,78.431z M108.783,51.775
		c-0.17-0.267-0.32-0.456-0.417-0.543l-1.828,1.174c0.048,0.155,0.145,0.33,0.272,0.533c0.47,0.732,1.115,0.955,1.765,0.538
		C109.195,53.074,109.214,52.444,108.783,51.775z M99.365,41.887c-0.301-0.223-0.548-0.364-0.727-0.446l-2.628,3.545
		c0.126,0.136,0.335,0.301,0.563,0.47c1.237,0.917,2.425,0.723,3.327-0.49C100.689,43.914,100.587,42.794,99.365,41.887z
		 M85.487,36.936c-0.048-0.383-0.063-0.723-0.078-1.057l-0.019-0.005c-0.145,0.31-0.306,0.626-0.48,0.936l-0.863,1.474l1.649,0.339
		L85.487,36.936z M63.849,40.141c-0.592-1.178-1.639-1.586-2.997-0.892c-0.335,0.17-0.572,0.325-0.723,0.451l2.003,3.933
		c0.179-0.053,0.422-0.17,0.669-0.296C64.179,42.634,64.533,41.485,63.849,40.141z M53.142,47.653
		c-0.984-0.873-2.109-0.863-3.113,0.281c-0.247,0.281-0.407,0.519-0.504,0.689l3.322,2.91c0.145-0.116,0.325-0.31,0.514-0.524
		C54.374,49.85,54.277,48.652,53.142,47.653z M47.987,52.594c-0.373-0.087-0.698-0.194-1.018-0.296l-0.005,0.015
		c0.238,0.247,0.475,0.504,0.708,0.776l1.077,1.324l0.897-1.426L47.987,52.594z M44.132,74.334l-1.542,0.708
		c-0.354,0.16-0.674,0.276-0.984,0.388v0.019c0.339,0.048,0.684,0.107,1.033,0.179l1.663,0.378L44.132,74.334z M110.95,62.206
		l-0.16-0.572l-2.056,0.567c0.015,0.145,0.063,0.349,0.131,0.596c0.199,0.718,0.65,1.309,1.431,1.091
		C111.033,63.685,111.159,62.967,110.95,62.206z M113.268,61.604c-0.087-0.32-0.165-0.495-0.218-0.601l-1.736,0.485l0.179,0.63
		c0.204,0.732,0.708,1.057,1.227,0.917C113.351,62.855,113.462,62.307,113.268,61.604z M112.9,78.431l-1.479-0.853l-0.33,1.649
		l1.683-0.218c0.383-0.053,0.727-0.068,1.057-0.087l0.005-0.015C113.525,78.761,113.21,78.606,112.9,78.431z M99.365,41.887
		c-0.301-0.223-0.548-0.364-0.727-0.446l-2.628,3.545c0.126,0.136,0.335,0.301,0.563,0.47c1.237,0.917,2.425,0.723,3.327-0.49
		C100.689,43.914,100.587,42.794,99.365,41.887z M85.487,36.936c-0.048-0.383-0.063-0.723-0.078-1.057l-0.019-0.005
		c-0.145,0.31-0.306,0.626-0.48,0.936l-0.863,1.474l1.649,0.339L85.487,36.936z M63.849,40.141
		c-0.592-1.178-1.639-1.586-2.997-0.892c-0.335,0.17-0.572,0.325-0.723,0.451l2.003,3.933c0.179-0.053,0.422-0.17,0.669-0.296
		C64.179,42.634,64.533,41.485,63.849,40.141z M53.142,47.653c-0.984-0.873-2.109-0.863-3.113,0.281
		c-0.247,0.281-0.407,0.519-0.504,0.689l3.322,2.91c0.145-0.116,0.325-0.31,0.514-0.524C54.374,49.85,54.277,48.652,53.142,47.653z
		 M47.987,52.594c-0.373-0.087-0.698-0.194-1.018-0.296l-0.005,0.015c0.238,0.247,0.475,0.504,0.708,0.776l1.077,1.324l0.897-1.426
		L47.987,52.594z M44.132,74.334l-1.542,0.708c-0.354,0.16-0.674,0.276-0.984,0.388v0.019c0.339,0.048,0.684,0.107,1.033,0.179
		l1.663,0.378L44.132,74.334z M108.783,51.775c-0.17-0.267-0.32-0.456-0.417-0.543l-1.828,1.174c0.048,0.155,0.145,0.33,0.272,0.533
		c0.47,0.732,1.115,0.955,1.765,0.538C109.195,53.074,109.214,52.444,108.783,51.775z M110.95,62.206l-0.16-0.572l-2.056,0.567
		c0.015,0.145,0.063,0.349,0.131,0.596c0.199,0.718,0.65,1.309,1.431,1.091C111.033,63.685,111.159,62.967,110.95,62.206z
		 M113.268,61.604c-0.087-0.32-0.165-0.495-0.218-0.601l-1.736,0.485l0.179,0.63c0.204,0.732,0.708,1.057,1.227,0.917
		C113.351,62.855,113.462,62.307,113.268,61.604z M112.9,78.431l-1.479-0.853l-0.33,1.649l1.683-0.218
		c0.383-0.053,0.727-0.068,1.057-0.087l0.005-0.015C113.525,78.761,113.21,78.606,112.9,78.431z M108.783,51.775
		c-0.17-0.267-0.32-0.456-0.417-0.543l-1.828,1.174c0.048,0.155,0.145,0.33,0.272,0.533c0.47,0.732,1.115,0.955,1.765,0.538
		C109.195,53.074,109.214,52.444,108.783,51.775z M99.365,41.887c-0.301-0.223-0.548-0.364-0.727-0.446l-2.628,3.545
		c0.126,0.136,0.335,0.301,0.563,0.47c1.237,0.917,2.425,0.723,3.327-0.49C100.689,43.914,100.587,42.794,99.365,41.887z
		 M85.487,36.936c-0.048-0.383-0.063-0.723-0.078-1.057l-0.019-0.005c-0.145,0.31-0.306,0.626-0.48,0.936l-0.863,1.474l1.649,0.339
		L85.487,36.936z M63.849,40.141c-0.592-1.178-1.639-1.586-2.997-0.892c-0.335,0.17-0.572,0.325-0.723,0.451l2.003,3.933
		c0.179-0.053,0.422-0.17,0.669-0.296C64.179,42.634,64.533,41.485,63.849,40.141z M53.142,47.653
		c-0.984-0.873-2.109-0.863-3.113,0.281c-0.247,0.281-0.407,0.519-0.504,0.689l3.322,2.91c0.145-0.116,0.325-0.31,0.514-0.524
		C54.374,49.85,54.277,48.652,53.142,47.653z M47.987,52.594c-0.373-0.087-0.698-0.194-1.018-0.296l-0.005,0.015
		c0.238,0.247,0.475,0.504,0.708,0.776l1.077,1.324l0.897-1.426L47.987,52.594z M110.95,62.206l-0.16-0.572l-2.056,0.567
		c0.015,0.145,0.063,0.349,0.131,0.596c0.199,0.718,0.65,1.309,1.431,1.091C111.033,63.685,111.159,62.967,110.95,62.206z
		 M113.268,61.604c-0.087-0.32-0.165-0.495-0.218-0.601l-1.736,0.485l0.179,0.63c0.204,0.732,0.708,1.057,1.227,0.917
		C113.351,62.855,113.462,62.307,113.268,61.604z M112.9,78.431l-1.479-0.853l-0.33,1.649l1.683-0.218
		c0.383-0.053,0.727-0.068,1.057-0.087l0.005-0.015C113.525,78.761,113.21,78.606,112.9,78.431z M99.365,41.887
		c-0.301-0.223-0.548-0.364-0.727-0.446l-2.628,3.545c0.126,0.136,0.335,0.301,0.563,0.47c1.237,0.917,2.425,0.723,3.327-0.49
		C100.689,43.914,100.587,42.794,99.365,41.887z M85.487,36.936c-0.048-0.383-0.063-0.723-0.078-1.057l-0.019-0.005
		c-0.145,0.31-0.306,0.626-0.48,0.936l-0.863,1.474l1.649,0.339L85.487,36.936z M63.849,40.141
		c-0.592-1.178-1.639-1.586-2.997-0.892c-0.335,0.17-0.572,0.325-0.723,0.451l2.003,3.933c0.179-0.053,0.422-0.17,0.669-0.296
		C64.179,42.634,64.533,41.485,63.849,40.141z M53.142,47.653c-0.984-0.873-2.109-0.863-3.113,0.281
		c-0.247,0.281-0.407,0.519-0.504,0.689l3.322,2.91c0.145-0.116,0.325-0.31,0.514-0.524C54.374,49.85,54.277,48.652,53.142,47.653z
		 M47.987,52.594c-0.373-0.087-0.698-0.194-1.018-0.296l-0.005,0.015c0.238,0.247,0.475,0.504,0.708,0.776l1.077,1.324l0.897-1.426
		L47.987,52.594z M108.783,51.775c-0.17-0.267-0.32-0.456-0.417-0.543l-1.828,1.174c0.048,0.155,0.145,0.33,0.272,0.533
		c0.47,0.732,1.115,0.955,1.765,0.538C109.195,53.074,109.214,52.444,108.783,51.775z M110.95,62.206l-0.16-0.572l-2.056,0.567
		c0.015,0.145,0.063,0.349,0.131,0.596c0.199,0.718,0.65,1.309,1.431,1.091C111.033,63.685,111.159,62.967,110.95,62.206z
		 M113.268,61.604c-0.087-0.32-0.165-0.495-0.218-0.601l-1.736,0.485l0.179,0.63c0.204,0.732,0.708,1.057,1.227,0.917
		C113.351,62.855,113.462,62.307,113.268,61.604z M112.9,78.431l-1.479-0.853l-0.33,1.649l1.683-0.218
		c0.383-0.053,0.727-0.068,1.057-0.087l0.005-0.015C113.525,78.761,113.21,78.606,112.9,78.431z M108.783,51.775
		c-0.17-0.267-0.32-0.456-0.417-0.543l-1.828,1.174c0.048,0.155,0.145,0.33,0.272,0.533c0.47,0.732,1.115,0.955,1.765,0.538
		C109.195,53.074,109.214,52.444,108.783,51.775z M99.365,41.887c-0.301-0.223-0.548-0.364-0.727-0.446l-2.628,3.545
		c0.126,0.136,0.335,0.301,0.563,0.47c1.237,0.917,2.425,0.723,3.327-0.49C100.689,43.914,100.587,42.794,99.365,41.887z
		 M85.487,36.936c-0.048-0.383-0.063-0.723-0.078-1.057l-0.019-0.005c-0.145,0.31-0.306,0.626-0.48,0.936l-0.863,1.474l1.649,0.339
		L85.487,36.936z M63.849,40.141c-0.592-1.178-1.639-1.586-2.997-0.892c-0.335,0.17-0.572,0.325-0.723,0.451l2.003,3.933
		c0.179-0.053,0.422-0.17,0.669-0.296C64.179,42.634,64.533,41.485,63.849,40.141z M53.142,47.653
		c-0.984-0.873-2.109-0.863-3.113,0.281c-0.247,0.281-0.407,0.519-0.504,0.689l3.322,2.91c0.145-0.116,0.325-0.31,0.514-0.524
		C54.374,49.85,54.277,48.652,53.142,47.653z M47.987,52.594c-0.373-0.087-0.698-0.194-1.018-0.296l-0.005,0.015
		c0.238,0.247,0.475,0.504,0.708,0.776l1.077,1.324l0.897-1.426L47.987,52.594z M110.95,62.206l-0.16-0.572l-2.056,0.567
		c0.015,0.145,0.063,0.349,0.131,0.596c0.199,0.718,0.65,1.309,1.431,1.091C111.033,63.685,111.159,62.967,110.95,62.206z
		 M113.268,61.604c-0.087-0.32-0.165-0.495-0.218-0.601l-1.736,0.485l0.179,0.63c0.204,0.732,0.708,1.057,1.227,0.917
		C113.351,62.855,113.462,62.307,113.268,61.604z M112.9,78.431l-1.479-0.853l-0.33,1.649l1.683-0.218
		c0.383-0.053,0.727-0.068,1.057-0.087l0.005-0.015C113.525,78.761,113.21,78.606,112.9,78.431z M99.365,41.887
		c-0.301-0.223-0.548-0.364-0.727-0.446l-2.628,3.545c0.126,0.136,0.335,0.301,0.563,0.47c1.237,0.917,2.425,0.723,3.327-0.49
		C100.689,43.914,100.587,42.794,99.365,41.887z M85.487,36.936c-0.048-0.383-0.063-0.723-0.078-1.057l-0.019-0.005
		c-0.145,0.31-0.306,0.626-0.48,0.936l-0.863,1.474l1.649,0.339L85.487,36.936z M63.849,40.141
		c-0.592-1.178-1.639-1.586-2.997-0.892c-0.335,0.17-0.572,0.325-0.723,0.451l2.003,3.933c0.179-0.053,0.422-0.17,0.669-0.296
		C64.179,42.634,64.533,41.485,63.849,40.141z M53.142,47.653c-0.984-0.873-2.109-0.863-3.113,0.281
		c-0.247,0.281-0.407,0.519-0.504,0.689l3.322,2.91c0.145-0.116,0.325-0.31,0.514-0.524C54.374,49.85,54.277,48.652,53.142,47.653z
		 M47.987,52.594c-0.373-0.087-0.698-0.194-1.018-0.296l-0.005,0.015c0.238,0.247,0.475,0.504,0.708,0.776l1.077,1.324l0.897-1.426
		L47.987,52.594z M108.783,51.775c-0.17-0.267-0.32-0.456-0.417-0.543l-1.828,1.174c0.048,0.155,0.145,0.33,0.272,0.533
		c0.47,0.732,1.115,0.955,1.765,0.538C109.195,53.074,109.214,52.444,108.783,51.775z M110.95,62.206l-0.16-0.572l-2.056,0.567
		c0.015,0.145,0.063,0.349,0.131,0.596c0.199,0.718,0.65,1.309,1.431,1.091C111.033,63.685,111.159,62.967,110.95,62.206z
		 M113.268,61.604c-0.087-0.32-0.165-0.495-0.218-0.601l-1.736,0.485l0.179,0.63c0.204,0.732,0.708,1.057,1.227,0.917
		C113.351,62.855,113.462,62.307,113.268,61.604z M112.9,78.431l-1.479-0.853l-0.33,1.649l1.683-0.218
		c0.383-0.053,0.727-0.068,1.057-0.087l0.005-0.015C113.525,78.761,113.21,78.606,112.9,78.431z M108.783,51.775
		c-0.17-0.267-0.32-0.456-0.417-0.543l-1.828,1.174c0.048,0.155,0.145,0.33,0.272,0.533c0.47,0.732,1.115,0.955,1.765,0.538
		C109.195,53.074,109.214,52.444,108.783,51.775z M99.365,41.887c-0.301-0.223-0.548-0.364-0.727-0.446l-2.628,3.545
		c0.126,0.136,0.335,0.301,0.563,0.47c1.237,0.917,2.425,0.723,3.327-0.49C100.689,43.914,100.587,42.794,99.365,41.887z
		 M85.487,36.936c-0.048-0.383-0.063-0.723-0.078-1.057l-0.019-0.005c-0.145,0.31-0.306,0.626-0.48,0.936l-0.863,1.474l1.649,0.339
		L85.487,36.936z M63.849,40.141c-0.592-1.178-1.639-1.586-2.997-0.892c-0.335,0.17-0.572,0.325-0.723,0.451l2.003,3.933
		c0.179-0.053,0.422-0.17,0.669-0.296C64.179,42.634,64.533,41.485,63.849,40.141z M53.142,47.653
		c-0.984-0.873-2.109-0.863-3.113,0.281c-0.247,0.281-0.407,0.519-0.504,0.689l3.322,2.91c0.145-0.116,0.325-0.31,0.514-0.524
		C54.374,49.85,54.277,48.652,53.142,47.653z M47.987,52.594c-0.373-0.087-0.698-0.194-1.018-0.296l-0.005,0.015
		c0.238,0.247,0.475,0.504,0.708,0.776l1.077,1.324l0.897-1.426L47.987,52.594z M110.95,62.206l-0.16-0.572l-2.056,0.567
		c0.015,0.145,0.063,0.349,0.131,0.596c0.199,0.718,0.65,1.309,1.431,1.091C111.033,63.685,111.159,62.967,110.95,62.206z
		 M113.268,61.604c-0.087-0.32-0.165-0.495-0.218-0.601l-1.736,0.485l0.179,0.63c0.204,0.732,0.708,1.057,1.227,0.917
		C113.351,62.855,113.462,62.307,113.268,61.604z M112.9,78.431l-1.479-0.853l-0.33,1.649l1.683-0.218
		c0.383-0.053,0.727-0.068,1.057-0.087l0.005-0.015C113.525,78.761,113.21,78.606,112.9,78.431z M99.365,41.887
		c-0.301-0.223-0.548-0.364-0.727-0.446l-2.628,3.545c0.126,0.136,0.335,0.301,0.563,0.47c1.237,0.917,2.425,0.723,3.327-0.49
		C100.689,43.914,100.587,42.794,99.365,41.887z M85.487,36.936c-0.048-0.383-0.063-0.723-0.078-1.057l-0.019-0.005
		c-0.145,0.31-0.306,0.626-0.48,0.936l-0.863,1.474l1.649,0.339L85.487,36.936z M63.849,40.141
		c-0.592-1.178-1.639-1.586-2.997-0.892c-0.335,0.17-0.572,0.325-0.723,0.451l2.003,3.933c0.179-0.053,0.422-0.17,0.669-0.296
		C64.179,42.634,64.533,41.485,63.849,40.141z M53.142,47.653c-0.984-0.873-2.109-0.863-3.113,0.281
		c-0.247,0.281-0.407,0.519-0.504,0.689l3.322,2.91c0.145-0.116,0.325-0.31,0.514-0.524C54.374,49.85,54.277,48.652,53.142,47.653z
		 M47.987,52.594c-0.373-0.087-0.698-0.194-1.018-0.296l-0.005,0.015c0.238,0.247,0.475,0.504,0.708,0.776l1.077,1.324l0.897-1.426
		L47.987,52.594z M108.783,51.775c-0.17-0.267-0.32-0.456-0.417-0.543l-1.828,1.174c0.048,0.155,0.145,0.33,0.272,0.533
		c0.47,0.732,1.115,0.955,1.765,0.538C109.195,53.074,109.214,52.444,108.783,51.775z M110.95,62.206l-0.16-0.572l-2.056,0.567
		c0.015,0.145,0.063,0.349,0.131,0.596c0.199,0.718,0.65,1.309,1.431,1.091C111.033,63.685,111.159,62.967,110.95,62.206z
		 M113.268,61.604c-0.087-0.32-0.165-0.495-0.218-0.601l-1.736,0.485l0.179,0.63c0.204,0.732,0.708,1.057,1.227,0.917
		C113.351,62.855,113.462,62.307,113.268,61.604z M112.9,78.431l-1.479-0.853l-0.33,1.649l1.683-0.218
		c0.383-0.053,0.727-0.068,1.057-0.087l0.005-0.015C113.525,78.761,113.21,78.606,112.9,78.431z M108.783,51.775
		c-0.17-0.267-0.32-0.456-0.417-0.543l-1.828,1.174c0.048,0.155,0.145,0.33,0.272,0.533c0.47,0.732,1.115,0.955,1.765,0.538
		C109.195,53.074,109.214,52.444,108.783,51.775z M99.365,41.887c-0.301-0.223-0.548-0.364-0.727-0.446l-2.628,3.545
		c0.126,0.136,0.335,0.301,0.563,0.47c1.237,0.917,2.425,0.723,3.327-0.49C100.689,43.914,100.587,42.794,99.365,41.887z
		 M85.487,36.936c-0.048-0.383-0.063-0.723-0.078-1.057l-0.019-0.005c-0.145,0.31-0.306,0.626-0.48,0.936l-0.863,1.474l1.649,0.339
		L85.487,36.936z M63.849,40.141c-0.592-1.178-1.639-1.586-2.997-0.892c-0.335,0.17-0.572,0.325-0.723,0.451l2.003,3.933
		c0.179-0.053,0.422-0.17,0.669-0.296C64.179,42.634,64.533,41.485,63.849,40.141z M110.95,62.206l-0.16-0.572l-2.056,0.567
		c0.015,0.145,0.063,0.349,0.131,0.596c0.199,0.718,0.65,1.309,1.431,1.091C111.033,63.685,111.159,62.967,110.95,62.206z
		 M113.268,61.604c-0.087-0.32-0.165-0.495-0.218-0.601l-1.736,0.485l0.179,0.63c0.204,0.732,0.708,1.057,1.227,0.917
		C113.351,62.855,113.462,62.307,113.268,61.604z M112.9,78.431l-1.479-0.853l-0.33,1.649l1.683-0.218
		c0.383-0.053,0.727-0.068,1.057-0.087l0.005-0.015C113.525,78.761,113.21,78.606,112.9,78.431z M99.365,41.887
		c-0.301-0.223-0.548-0.364-0.727-0.446l-2.628,3.545c0.126,0.136,0.335,0.301,0.563,0.47c1.237,0.917,2.425,0.723,3.327-0.49
		C100.689,43.914,100.587,42.794,99.365,41.887z M85.487,36.936c-0.048-0.383-0.063-0.723-0.078-1.057l-0.019-0.005
		c-0.145,0.31-0.306,0.626-0.48,0.936l-0.863,1.474l1.649,0.339L85.487,36.936z M63.849,40.141
		c-0.592-1.178-1.639-1.586-2.997-0.892c-0.335,0.17-0.572,0.325-0.723,0.451l2.003,3.933c0.179-0.053,0.422-0.17,0.669-0.296
		C64.179,42.634,64.533,41.485,63.849,40.141z M108.783,51.775c-0.17-0.267-0.32-0.456-0.417-0.543l-1.828,1.174
		c0.048,0.155,0.145,0.33,0.272,0.533c0.47,0.732,1.115,0.955,1.765,0.538C109.195,53.074,109.214,52.444,108.783,51.775z
		 M110.95,62.206l-0.16-0.572l-2.056,0.567c0.015,0.145,0.063,0.349,0.131,0.596c0.199,0.718,0.65,1.309,1.431,1.091
		C111.033,63.685,111.159,62.967,110.95,62.206z M113.268,61.604c-0.087-0.32-0.165-0.495-0.218-0.601l-1.736,0.485l0.179,0.63
		c0.204,0.732,0.708,1.057,1.227,0.917C113.351,62.855,113.462,62.307,113.268,61.604z M112.9,78.431l-1.479-0.853l-0.33,1.649
		l1.683-0.218c0.383-0.053,0.727-0.068,1.057-0.087l0.005-0.015C113.525,78.761,113.21,78.606,112.9,78.431z M108.783,51.775
		c-0.17-0.267-0.32-0.456-0.417-0.543l-1.828,1.174c0.048,0.155,0.145,0.33,0.272,0.533c0.47,0.732,1.115,0.955,1.765,0.538
		C109.195,53.074,109.214,52.444,108.783,51.775z M99.365,41.887c-0.301-0.223-0.548-0.364-0.727-0.446l-2.628,3.545
		c0.126,0.136,0.335,0.301,0.563,0.47c1.237,0.917,2.425,0.723,3.327-0.49C100.689,43.914,100.587,42.794,99.365,41.887z
		 M85.487,36.936c-0.048-0.383-0.063-0.723-0.078-1.057l-0.019-0.005c-0.145,0.31-0.306,0.626-0.48,0.936l-0.863,1.474l1.649,0.339
		L85.487,36.936z M110.95,62.206l-0.16-0.572l-2.056,0.567c0.015,0.145,0.063,0.349,0.131,0.596c0.199,0.718,0.65,1.309,1.431,1.091
		C111.033,63.685,111.159,62.967,110.95,62.206z M113.268,61.604c-0.087-0.32-0.165-0.495-0.218-0.601l-1.736,0.485l0.179,0.63
		c0.204,0.732,0.708,1.057,1.227,0.917C113.351,62.855,113.462,62.307,113.268,61.604z M112.9,78.431l-1.479-0.853l-0.33,1.649
		l1.683-0.218c0.383-0.053,0.727-0.068,1.057-0.087l0.005-0.015C113.525,78.761,113.21,78.606,112.9,78.431z M99.365,41.887
		c-0.301-0.223-0.548-0.364-0.727-0.446l-2.628,3.545c0.126,0.136,0.335,0.301,0.563,0.47c1.237,0.917,2.425,0.723,3.327-0.49
		C100.689,43.914,100.587,42.794,99.365,41.887z M85.487,36.936c-0.048-0.383-0.063-0.723-0.078-1.057l-0.019-0.005
		c-0.145,0.31-0.306,0.626-0.48,0.936l-0.863,1.474l1.649,0.339L85.487,36.936z M108.783,51.775c-0.17-0.267-0.32-0.456-0.417-0.543
		l-1.828,1.174c0.048,0.155,0.145,0.33,0.272,0.533c0.47,0.732,1.115,0.955,1.765,0.538
		C109.195,53.074,109.214,52.444,108.783,51.775z M110.95,62.206l-0.16-0.572l-2.056,0.567c0.015,0.145,0.063,0.349,0.131,0.596
		c0.199,0.718,0.65,1.309,1.431,1.091C111.033,63.685,111.159,62.967,110.95,62.206z M113.268,61.604
		c-0.087-0.32-0.165-0.495-0.218-0.601l-1.736,0.485l0.179,0.63c0.204,0.732,0.708,1.057,1.227,0.917
		C113.351,62.855,113.462,62.307,113.268,61.604z M112.9,78.431l-1.479-0.853l-0.33,1.649l1.683-0.218
		c0.383-0.053,0.727-0.068,1.057-0.087l0.005-0.015C113.525,78.761,113.21,78.606,112.9,78.431z M108.783,51.775
		c-0.17-0.267-0.32-0.456-0.417-0.543l-1.828,1.174c0.048,0.155,0.145,0.33,0.272,0.533c0.47,0.732,1.115,0.955,1.765,0.538
		C109.195,53.074,109.214,52.444,108.783,51.775z M99.365,41.887c-0.301-0.223-0.548-0.364-0.727-0.446l-2.628,3.545
		c0.126,0.136,0.335,0.301,0.563,0.47c1.237,0.917,2.425,0.723,3.327-0.49C100.689,43.914,100.587,42.794,99.365,41.887z
		 M110.95,62.206l-0.16-0.572l-2.056,0.567c0.015,0.145,0.063,0.349,0.131,0.596c0.199,0.718,0.65,1.309,1.431,1.091
		C111.033,63.685,111.159,62.967,110.95,62.206z M113.268,61.604c-0.087-0.32-0.165-0.495-0.218-0.601l-1.736,0.485l0.179,0.63
		c0.204,0.732,0.708,1.057,1.227,0.917C113.351,62.855,113.462,62.307,113.268,61.604z M112.9,78.431l-1.479-0.853l-0.33,1.649
		l1.683-0.218c0.383-0.053,0.727-0.068,1.057-0.087l0.005-0.015C113.525,78.761,113.21,78.606,112.9,78.431z M99.365,41.887
		c-0.301-0.223-0.548-0.364-0.727-0.446l-2.628,3.545c0.126,0.136,0.335,0.301,0.563,0.47c1.237,0.917,2.425,0.723,3.327-0.49
		C100.689,43.914,100.587,42.794,99.365,41.887z M108.783,51.775c-0.17-0.267-0.32-0.456-0.417-0.543l-1.828,1.174
		c0.048,0.155,0.145,0.33,0.272,0.533c0.47,0.732,1.115,0.955,1.765,0.538C109.195,53.074,109.214,52.444,108.783,51.775z
		 M110.95,62.206l-0.16-0.572l-2.056,0.567c0.015,0.145,0.063,0.349,0.131,0.596c0.199,0.718,0.65,1.309,1.431,1.091
		C111.033,63.685,111.159,62.967,110.95,62.206z M113.268,61.604c-0.087-0.32-0.165-0.495-0.218-0.601l-1.736,0.485l0.179,0.63
		c0.204,0.732,0.708,1.057,1.227,0.917C113.351,62.855,113.462,62.307,113.268,61.604z M112.9,78.431l-1.479-0.853l-0.33,1.649
		l1.683-0.218c0.383-0.053,0.727-0.068,1.057-0.087l0.005-0.015C113.525,78.761,113.21,78.606,112.9,78.431z M108.783,51.775
		c-0.17-0.267-0.32-0.456-0.417-0.543l-1.828,1.174c0.048,0.155,0.145,0.33,0.272,0.533c0.47,0.732,1.115,0.955,1.765,0.538
		C109.195,53.074,109.214,52.444,108.783,51.775z M99.365,41.887c-0.301-0.223-0.548-0.364-0.727-0.446l-2.628,3.545
		c0.126,0.136,0.335,0.301,0.563,0.47c1.237,0.917,2.425,0.723,3.327-0.49C100.689,43.914,100.587,42.794,99.365,41.887z
		 M110.95,62.206l-0.16-0.572l-2.056,0.567c0.015,0.145,0.063,0.349,0.131,0.596c0.199,0.718,0.65,1.309,1.431,1.091
		C111.033,63.685,111.159,62.967,110.95,62.206z M113.268,61.604c-0.087-0.32-0.165-0.495-0.218-0.601l-1.736,0.485l0.179,0.63
		c0.204,0.732,0.708,1.057,1.227,0.917C113.351,62.855,113.462,62.307,113.268,61.604z M112.9,78.431l-1.479-0.853l-0.33,1.649
		l1.683-0.218c0.383-0.053,0.727-0.068,1.057-0.087l0.005-0.015C113.525,78.761,113.21,78.606,112.9,78.431z M99.365,41.887
		c-0.301-0.223-0.548-0.364-0.727-0.446l-2.628,3.545c0.126,0.136,0.335,0.301,0.563,0.47c1.237,0.917,2.425,0.723,3.327-0.49
		C100.689,43.914,100.587,42.794,99.365,41.887z M108.783,51.775c-0.17-0.267-0.32-0.456-0.417-0.543l-1.828,1.174
		c0.048,0.155,0.145,0.33,0.272,0.533c0.47,0.732,1.115,0.955,1.765,0.538C109.195,53.074,109.214,52.444,108.783,51.775z
		 M110.95,62.206l-0.16-0.572l-2.056,0.567c0.015,0.145,0.063,0.349,0.131,0.596c0.199,0.718,0.65,1.309,1.431,1.091
		C111.033,63.685,111.159,62.967,110.95,62.206z M113.268,61.604c-0.087-0.32-0.165-0.495-0.218-0.601l-1.736,0.485l0.179,0.63
		c0.204,0.732,0.708,1.057,1.227,0.917C113.351,62.855,113.462,62.307,113.268,61.604z M112.9,78.431l-1.479-0.853l-0.33,1.649
		l1.683-0.218c0.383-0.053,0.727-0.068,1.057-0.087l0.005-0.015C113.525,78.761,113.21,78.606,112.9,78.431z M108.783,51.775
		c-0.17-0.267-0.32-0.456-0.417-0.543l-1.828,1.174c0.048,0.155,0.145,0.33,0.272,0.533c0.47,0.732,1.115,0.955,1.765,0.538
		C109.195,53.074,109.214,52.444,108.783,51.775z M110.95,62.206l-0.16-0.572l-2.056,0.567c0.015,0.145,0.063,0.349,0.131,0.596
		c0.199,0.718,0.65,1.309,1.431,1.091C111.033,63.685,111.159,62.967,110.95,62.206z M113.268,61.604
		c-0.087-0.32-0.165-0.495-0.218-0.601l-1.736,0.485l0.179,0.63c0.204,0.732,0.708,1.057,1.227,0.917
		C113.351,62.855,113.462,62.307,113.268,61.604z M108.783,51.775c-0.17-0.267-0.32-0.456-0.417-0.543l-1.828,1.174
		c0.048,0.155,0.145,0.33,0.272,0.533c0.47,0.732,1.115,0.955,1.765,0.538C109.195,53.074,109.214,52.444,108.783,51.775z
		 M110.95,62.206l-0.16-0.572l-2.056,0.567c0.015,0.145,0.063,0.349,0.131,0.596c0.199,0.718,0.65,1.309,1.431,1.091
		C111.033,63.685,111.159,62.967,110.95,62.206z M113.268,61.604c-0.087-0.32-0.165-0.495-0.218-0.601l-1.736,0.485l0.179,0.63
		c0.204,0.732,0.708,1.057,1.227,0.917C113.351,62.855,113.462,62.307,113.268,61.604z M108.783,51.775
		c-0.17-0.267-0.32-0.456-0.417-0.543l-1.828,1.174c0.048,0.155,0.145,0.33,0.272,0.533c0.47,0.732,1.115,0.955,1.765,0.538
		C109.195,53.074,109.214,52.444,108.783,51.775z M110.95,62.206l-0.16-0.572l-2.056,0.567c0.015,0.145,0.063,0.349,0.131,0.596
		c0.199,0.718,0.65,1.309,1.431,1.091C111.033,63.685,111.159,62.967,110.95,62.206z M113.268,61.604
		c-0.087-0.32-0.165-0.495-0.218-0.601l-1.736,0.485l0.179,0.63c0.204,0.732,0.708,1.057,1.227,0.917
		C113.351,62.855,113.462,62.307,113.268,61.604z M108.783,51.775c-0.17-0.267-0.32-0.456-0.417-0.543l-1.828,1.174
		c0.048,0.155,0.145,0.33,0.272,0.533c0.47,0.732,1.115,0.955,1.765,0.538C109.195,53.074,109.214,52.444,108.783,51.775z
		 M110.95,62.206l-0.16-0.572l-2.056,0.567c0.015,0.145,0.063,0.349,0.131,0.596c0.199,0.718,0.65,1.309,1.431,1.091
		C111.033,63.685,111.159,62.967,110.95,62.206z M113.268,61.604c-0.087-0.32-0.165-0.495-0.218-0.601l-1.736,0.485l0.179,0.63
		c0.204,0.732,0.708,1.057,1.227,0.917C113.351,62.855,113.462,62.307,113.268,61.604z M108.783,51.775
		c-0.17-0.267-0.32-0.456-0.417-0.543l-1.828,1.174c0.048,0.155,0.145,0.33,0.272,0.533c0.47,0.732,1.115,0.955,1.765,0.538
		C109.195,53.074,109.214,52.444,108.783,51.775z M108.783,51.775c-0.17-0.267-0.32-0.456-0.417-0.543l-1.828,1.174
		c0.048,0.155,0.145,0.33,0.272,0.533c0.47,0.732,1.115,0.955,1.765,0.538C109.195,53.074,109.214,52.444,108.783,51.775z"/>
	<g>
		<g>
			<path fill="#FFFFFF" d="M113.249,56.28l-1.198-0.296l0.242,0.533l1.319,0.572L113.249,56.28z"/>
		</g>
	</g>
	<g>
		<path d="M96.221,60.274c0.019,0.557-0.048,0.649-0.615,0.75c-0.79,0.141-1.569,0.059-2.338-0.15
			c-0.096-0.026-0.191-0.053-0.287-0.078c-0.013-0.003-0.029,0.005-0.068,0.014c-0.025,0.162-0.042,0.335-0.078,0.504
			c-0.117,0.559-0.451,0.838-1.024,0.876c-0.497,0.032-0.977-0.057-1.443-0.212c-0.207-0.069-0.3-0.041-0.392,0.175
			c-0.365,0.853-0.972,1.143-1.943,0.941c-0.358-0.075-0.709-0.185-1.063-0.284c-0.12-0.033-0.224-0.054-0.286,0.091
			c-0.311,0.732-0.954,0.9-1.687,0.685c-0.443-0.129-0.865-0.339-1.282-0.544c-0.22-0.108-0.391-0.153-0.555,0.069
			c-0.04,0.055-0.104,0.092-0.148,0.144c-0.52,0.613-1.186,0.758-1.932,0.577c-0.623-0.151-1.236-0.342-1.853-0.513
			c-0.125-0.035-0.19-0.093-0.186-0.241c0.031-1.376,0.054-2.753,0.08-4.13c0.001-0.044,0.015-0.088,0.021-0.126
			c0.292,0,0.577,0.034,0.851-0.007c0.507-0.076,0.896-0.362,1.123-0.825c0.273-0.558,0.512-1.133,0.771-1.697
			c0.337-0.734,0.761-1.399,1.407-1.907c0.586-0.462,1.224-0.644,1.926-0.358c0.863,0.35,1.725,0.71,2.559,1.122
			c1.495,0.738,2.954,1.551,4.514,2.149c1.3,0.498,2.629,0.863,4.035,0.849c0.723-0.007,1.424-0.142,2.112-0.373
			c0.366-0.123,0.751-0.208,1.135-0.254c0.435-0.052,0.569,0.155,0.384,0.556c-0.329,0.715-0.914,1.18-1.565,1.573
			c-0.616,0.372-1.29,0.549-2.004,0.588c-0.038,0.002-0.076,0.004-0.114,0.009C96.263,60.249,96.25,60.26,96.221,60.274z"/>
		<path d="M63.526,60.833c-0.32,0.077-0.618,0.165-0.923,0.218c-0.645,0.113-1.292,0.152-1.935-0.019
			c-0.116-0.031-0.246-0.071-0.329-0.151c-0.076-0.074-0.156-0.226-0.131-0.312c0.079-0.272-0.049-0.309-0.257-0.317
			c-1.074-0.043-1.982-0.495-2.757-1.232c-0.243-0.232-0.431-0.527-0.636-0.798c-0.05-0.066-0.08-0.152-0.107-0.234
			c-0.111-0.34-0.006-0.528,0.336-0.495c0.391,0.037,0.791,0.105,1.16,0.24c1.168,0.428,2.355,0.493,3.567,0.289
			c1.779-0.298,3.406-1.035,5.007-1.844c1.316-0.665,2.625-1.347,3.951-1.989c0.389-0.188,0.822-0.303,1.247-0.384
			c0.657-0.124,1.164,0.245,1.629,0.655c0.688,0.606,1.063,1.427,1.417,2.259c0.159,0.374,0.304,0.756,0.485,1.119
			c0.401,0.804,1.022,1.119,1.891,0.986c0.037-0.006,0.074-0.013,0.145-0.026c0.014,0.234,0.035,0.457,0.039,0.679
			c0.02,1.227,0.034,2.453,0.054,3.68c0.002,0.13-0.012,0.225-0.159,0.264c-0.687,0.181-1.368,0.388-2.059,0.549
			c-0.636,0.148-1.182-0.041-1.648-0.528c-0.456-0.476-0.469-0.457-1.039-0.15c-0.484,0.26-0.989,0.463-1.544,0.479
			c-0.513,0.015-0.911-0.201-1.128-0.689c-0.092-0.207-0.2-0.227-0.393-0.171c-0.396,0.116-0.794,0.23-1.199,0.304
			c-0.827,0.152-1.401-0.162-1.734-0.958c-0.103-0.245-0.202-0.281-0.439-0.202c-0.533,0.176-1.081,0.296-1.646,0.168
			c-0.479-0.108-0.749-0.427-0.808-0.931C63.57,61.146,63.548,61,63.526,60.833z"/>
		<path fill="#FFFFFF" stroke="#000000" stroke-width="0.2676" stroke-miterlimit="10" d="M78.92,74.581
			c-0.357-0.254-0.726-0.515-1.09-0.772c-0.089-0.063-0.179-0.126-0.269-0.19l-0.099-4.348c0.43-0.178,0.961-0.378,1.552-0.596
			L78.92,74.581z"/>
		<path fill="#FFFFFF" stroke="#000000" stroke-width="0.2676" stroke-miterlimit="10" d="M77.847,86.161
			c0.276-0.28,0.585-0.581,0.902-0.879l-0.103,6.487c-0.221-0.318-0.457-0.623-0.692-0.919L77.847,86.161z"/>
		<path fill="#FFFFFF" stroke="#000000" stroke-width="0.2676" stroke-miterlimit="10" d="M77.786,83.48l-0.158-6.946
			c0.472,0.313,0.889,0.6,1.247,0.867l-0.081,5.072C78.466,82.809,78.122,83.149,77.786,83.48z"/>
		<path fill="#FFFFFF" stroke="#000000" stroke-width="0.2676" stroke-miterlimit="10" d="M78.065,93.181
			c0.222,0.292,0.402,0.586,0.544,0.873l-0.074,4.656l-0.195,0.644l-0.207-0.644l-0.128-5.605
			C78.025,93.13,78.046,93.156,78.065,93.181z"/>
		<path fill="#FFFFFF" d="M96.029,59.844c0.019,0.552-0.048,0.643-0.61,0.743c-0.783,0.14-1.555,0.058-2.318-0.148
			c-0.095-0.026-0.189-0.053-0.284-0.077c-0.013-0.003-0.029,0.005-0.068,0.013c-0.024,0.161-0.042,0.332-0.077,0.499
			c-0.116,0.554-0.447,0.831-1.015,0.868c-0.492,0.032-0.968-0.056-1.431-0.21c-0.205-0.068-0.297-0.04-0.389,0.173
			c-0.362,0.846-0.964,1.133-1.927,0.933c-0.355-0.074-0.703-0.184-1.054-0.282c-0.119-0.033-0.222-0.053-0.283,0.091
			c-0.309,0.726-0.946,0.892-1.673,0.679c-0.439-0.128-0.858-0.336-1.271-0.539c-0.218-0.107-0.388-0.152-0.55,0.069
			c-0.04,0.054-0.103,0.091-0.147,0.143c-0.516,0.607-1.176,0.752-1.916,0.572c-0.617-0.15-1.225-0.339-1.838-0.509
			c-0.123-0.034-0.188-0.092-0.185-0.239c0.03-1.365,0.053-2.73,0.08-4.094c0.001-0.044,0.015-0.087,0.021-0.125
			c0.289,0,0.572,0.033,0.844-0.007c0.502-0.075,0.888-0.359,1.113-0.817c0.271-0.553,0.507-1.123,0.764-1.683
			c0.334-0.727,0.755-1.387,1.395-1.891c0.581-0.458,1.213-0.638,1.91-0.355c0.855,0.348,1.71,0.704,2.537,1.113
			c1.482,0.732,2.929,1.538,4.476,2.131c1.289,0.494,2.607,0.856,4.001,0.842c0.717-0.007,1.411-0.141,2.094-0.37
			c0.363-0.122,0.745-0.206,1.125-0.252c0.431-0.052,0.564,0.154,0.381,0.551c-0.326,0.709-0.906,1.17-1.552,1.56
			c-0.611,0.369-1.279,0.545-1.987,0.583c-0.038,0.002-0.076,0.004-0.113,0.009C96.071,59.82,96.058,59.83,96.029,59.844z"/>
		<path fill="#FFFFFF" d="M60.127,59.844c-0.019,0.552,0.048,0.643,0.61,0.743c0.783,0.14,1.555,0.058,2.318-0.148
			c0.095-0.026,0.189-0.053,0.284-0.077c0.013-0.003,0.029,0.005,0.068,0.013c0.024,0.161,0.042,0.332,0.077,0.499
			c0.116,0.554,0.447,0.831,1.015,0.868c0.492,0.032,0.968-0.056,1.431-0.21c0.205-0.068,0.297-0.04,0.389,0.173
			c0.362,0.846,0.964,1.133,1.927,0.933c0.355-0.074,0.703-0.184,1.054-0.282c0.119-0.033,0.222-0.053,0.283,0.091
			c0.309,0.726,0.946,0.892,1.673,0.679c0.439-0.128,0.858-0.336,1.271-0.539c0.218-0.107,0.388-0.152,0.55,0.069
			c0.04,0.054,0.103,0.091,0.147,0.143c0.516,0.607,1.176,0.752,1.916,0.572c0.617-0.15,1.225-0.339,1.838-0.509
			c0.123-0.034,0.188-0.092,0.185-0.239c-0.03-1.365-0.053-2.73-0.08-4.094c-0.001-0.044-0.015-0.087-0.021-0.125
			c-0.289,0-0.572,0.033-0.844-0.007c-0.502-0.075-0.888-0.359-1.113-0.817c-0.271-0.553-0.507-1.123-0.764-1.683
			c-0.334-0.727-0.755-1.387-1.395-1.891c-0.581-0.458-1.213-0.638-1.91-0.355c-0.855,0.348-1.71,0.704-2.537,1.113
			c-1.482,0.732-2.929,1.538-4.476,2.131c-1.289,0.494-2.607,0.856-4.001,0.842c-0.717-0.007-1.411-0.141-2.094-0.37
			c-0.363-0.122-0.745-0.206-1.125-0.252c-0.431-0.052-0.564,0.154-0.381,0.551c0.326,0.709,0.906,1.17,1.552,1.56
			c0.611,0.369,1.279,0.545,1.987,0.583c0.038,0.002,0.076,0.004,0.113,0.009C60.085,59.82,60.098,59.83,60.127,59.844z"/>
		<g>
			<path fill="#1E120D" stroke="#1E120D" stroke-width="0.1149" stroke-miterlimit="10" d="M81.97,68.263
				c-2.432-1.393-5.637-2.598-6.871-3.471c-0.495-0.35-1.017-0.648-1.507-1.006c-0.334-0.245-0.793-0.579-0.876-1.057
				c-0.017-0.098-0.013-0.2,0.009-0.297c0.026-0.114,0.079-0.223,0.149-0.316c0.165-0.218,0.426-0.35,0.676-0.276
				c0.35,0.104,1.548-0.478,2.211-0.977c0.663-0.499,0.759-0.906,0.432-0.854c0,0,0.018-0.123,0.152-0.185
				c0.134-0.062-0.252-1.268-1.597-1.289c-1.345-0.021-2.413,0.478-2.818,0.935c-0.405,0.457-0.24,0.685-0.497,0.852
				c-0.258,0.167-1.216,1.123-1.363,2.474c-0.147,1.351,1.308,3.118,3.647,4.074c2.34,0.956,5.287,1.892,6.319,2.453
				c1.032,0.561,2.892,1.85,1.455,2.931c-1.437,1.081-3.592,2.536-4.974,3.575c-1.382,1.039-2.763,2.557-2.634,3.95
				c0.129,1.393,1.769,3.16,2.69,3.929c0.921,0.769,3.298,2.931,3.519,3.596c0.221,0.665,0.682,1.268-0.387,2.723
				c-0.074,0.1-0.15,0.199-0.226,0.297c-0.425,0.543-0.869,1.069-1.262,1.636c-0.446,0.642-0.832,1.333-1.064,2.083
				c-0.123,0.397-0.202,0.807-0.227,1.221c-0.014,0.219-0.013,0.439,0.003,0.658c0.029,0.416,0.141,0.859,0.341,1.226
				c0.122,0.224,0.252,0.453,0.266,0.438c0.031-0.034-0.281-0.955-0.336-1.365c-0.091-0.682,0.094-1.975,1.06-3.243
				c0.966-1.268,2.679-2.578,3.048-3.534c0.368-0.956,0.866-1.933-0.94-3.908c-1.805-1.975-4.827-4.407-4.771-5.779
				c0.055-1.372,1.4-2.349,3.832-3.929c0.989-0.643,2.021-1.225,2.987-1.902c1.008-0.707,1.95-1.633,1.889-2.961
				C84.245,69.684,82.97,68.837,81.97,68.263z M74.686,59.172c0.214,0,0.388,0.093,0.388,0.208c0,0.115-0.174,0.208-0.388,0.208
				c-0.214,0-0.388-0.093-0.388-0.208C74.298,59.266,74.472,59.172,74.686,59.172z"/>
			<ellipse fill="#1E120D" cx="74.683" cy="59.387" rx="0.377" ry="0.195"/>
		</g>
		<g>
			<path fill="#1E120D" stroke="#1E120D" stroke-width="0.1149" stroke-miterlimit="10" d="M77.963,91.771
				c0.059-0.086,0.121-0.17,0.182-0.254c-0.179-0.238-0.363-0.472-0.548-0.703c-0.208-0.26-0.419-0.517-0.616-0.786
				c-1.068-1.455-0.608-2.058-0.387-2.723c0.112-0.336,0.774-1.054,1.52-1.782c-0.309-0.295-0.632-0.594-0.943-0.873
				c-0.301,0.302-0.59,0.6-0.853,0.887c-1.805,1.975-1.308,2.952-0.94,3.908c0.288,0.748,1.4,1.714,2.333,2.706
				C77.791,92.026,77.874,91.899,77.963,91.771z"/>
			<path fill="#1E120D" stroke="#1E120D" stroke-width="0.1149" stroke-miterlimit="10" d="M76.568,75.392
				c0.449-0.333,0.966-0.702,1.497-1.078c-1.007-0.711-2.054-1.445-2.871-2.06c-1.437-1.081,0.424-2.37,1.455-2.931
				c0.284-0.154,0.714-0.337,1.235-0.541c-0.352-0.131-0.729-0.268-1.121-0.411c-0.431-0.157-0.886-0.323-1.345-0.494
				c-0.239,0.127-0.475,0.255-0.703,0.386c-1.337,0.766-2.831,2.05-2.152,3.755c0.527,1.324,1.898,2.061,3.047,2.775
				C75.931,74.993,76.25,75.192,76.568,75.392z"/>
			<path fill="#1E120D" stroke="#1E120D" stroke-width="0.1149" stroke-miterlimit="10" d="M79.079,92.957
				c-0.045-0.085-0.092-0.168-0.14-0.252c-0.135,0.153-0.263,0.305-0.379,0.456c0.294,0.407,0.558,0.856,0.657,1.349
				c0.119,0.596-0.099,1.247-0.308,1.8c0.045-0.025,0.115-0.09,0.145-0.122c0.053-0.057,0.094-0.122,0.132-0.189
				c0.372-0.675,0.478-1.336,0.281-2.078C79.376,93.586,79.24,93.264,79.079,92.957z"/>
			<path fill="#1E120D" stroke="#1E120D" stroke-width="0.1149" stroke-miterlimit="10" d="M80.168,75.83
				c-0.015-0.011-0.03-0.023-0.046-0.034c-0.166,0.104-0.331,0.208-0.493,0.313c-0.355,0.231-0.681,0.446-0.983,0.65
				c1.549,1.08,2.398,1.918,2.442,3c0.035,0.867-1.16,2.159-2.5,3.49c0.123,0.122,0.246,0.242,0.368,0.362
				c0.197,0.193,0.395,0.389,0.592,0.584c0.217-0.191,0.411-0.359,0.564-0.487c0.921-0.769,2.561-2.536,2.69-3.929
				S81.55,76.869,80.168,75.83z"/>
			<g>
				<path fill="#1E120D" stroke="#1E120D" stroke-width="0.1149" stroke-miterlimit="10" d="M86.616,62.796
					c-0.147-1.351-1.105-2.307-1.363-2.474c-0.258-0.167-0.092-0.395-0.497-0.852c-0.405-0.457-1.474-0.956-2.818-0.935
					c-1.345,0.021-1.732,1.226-1.597,1.289c0.134,0.062,0.152,0.185,0.152,0.185c-0.327-0.052-0.231,0.355,0.432,0.854
					c0.663,0.499,1.861,1.081,2.211,0.977c0.25-0.074,0.512,0.058,0.676,0.276c0.07,0.093,0.123,0.201,0.149,0.316
					c0.022,0.097,0.026,0.198,0.009,0.297c-0.082,0.479-0.541,0.813-0.876,1.057c-0.49,0.359-1.012,0.656-1.507,1.006
					c-0.593,0.419-1.641,0.916-2.839,1.472c0.834,0.388,1.723,0.808,2.564,1.25c0.564-0.211,1.126-0.426,1.656-0.643
					C85.308,65.915,86.763,64.148,86.616,62.796z M81.997,59.588c-0.214,0-0.388-0.093-0.388-0.208c0-0.115,0.174-0.208,0.388-0.208
					s0.388,0.093,0.388,0.208C82.385,59.495,82.211,59.588,81.997,59.588z"/>
				<ellipse fill="#1E120D" cx="81.993" cy="59.396" rx="0.377" ry="0.195"/>
			</g>
		</g>
		<path fill="#FFFFFF" stroke="#000000" stroke-width="0.2676" stroke-miterlimit="10" d="M78.189,67.48
			c-0.274,0.08-0.558,0.162-0.845,0.246l-0.494-13.55c0.357,0.149,0.785,0.236,1.245,0.236s0.889-0.087,1.246-0.237l-0.334,13.067
			C78.745,67.319,78.472,67.399,78.189,67.48z"/>
		<g>
			<path fill="#FFFFFF" stroke="#1E120D" stroke-width="0.1149" stroke-miterlimit="10" d="M81.68,68.263
				c-2.432-1.393-5.637-2.598-6.871-3.471c-0.495-0.35-1.017-0.648-1.507-1.006c-0.334-0.245-0.793-0.579-0.876-1.057
				c-0.017-0.098-0.013-0.2,0.009-0.297c0.026-0.114,0.079-0.223,0.149-0.316c0.165-0.218,0.426-0.35,0.676-0.276
				c0.35,0.104,1.548-0.478,2.211-0.977c0.663-0.499,0.759-0.906,0.432-0.854c0,0,0.018-0.123,0.152-0.185
				c0.134-0.062-0.252-1.268-1.597-1.289c-1.345-0.021-2.413,0.478-2.818,0.935c-0.405,0.457-0.24,0.685-0.497,0.852
				c-0.258,0.167-1.216,1.123-1.363,2.474c-0.147,1.351,1.308,3.118,3.647,4.074c2.34,0.956,5.287,1.892,6.319,2.453
				c1.032,0.561,2.892,1.85,1.455,2.931c-1.437,1.081-3.592,2.536-4.974,3.575c-1.382,1.039-2.763,2.557-2.634,3.95
				c0.129,1.393,1.769,3.16,2.69,3.929c0.921,0.769,3.298,2.931,3.519,3.596c0.221,0.665,0.682,1.268-0.387,2.723
				c-0.074,0.1-0.15,0.199-0.226,0.297c-0.425,0.543-0.869,1.069-1.262,1.636c-0.446,0.642-0.832,1.333-1.064,2.083
				c-0.123,0.397-0.202,0.807-0.227,1.221c-0.014,0.219-0.013,0.439,0.003,0.658c0.029,0.416,0.141,0.859,0.341,1.226
				c0.122,0.224,0.252,0.453,0.266,0.438c0.031-0.034-0.281-0.955-0.336-1.365c-0.091-0.682,0.094-1.975,1.06-3.243
				c0.966-1.268,2.679-2.578,3.048-3.534c0.368-0.956,0.866-1.933-0.94-3.908c-1.805-1.975-4.827-4.407-4.771-5.779
				c0.055-1.372,1.4-2.349,3.832-3.929c0.989-0.643,2.021-1.225,2.987-1.902c1.008-0.707,1.95-1.633,1.889-2.961
				C83.955,69.684,82.68,68.837,81.68,68.263z M74.397,59.172c0.214,0,0.388,0.093,0.388,0.208c0,0.115-0.174,0.208-0.388,0.208
				c-0.214,0-0.388-0.093-0.388-0.208C74.008,59.266,74.182,59.172,74.397,59.172z"/>
			<ellipse fill="#1E120D" cx="74.393" cy="59.387" rx="0.377" ry="0.195"/>
		</g>
		<g>
			<path fill="#FFFFFF" stroke="#1E120D" stroke-width="0.1149" stroke-miterlimit="10" d="M77.652,91.771
				c0.059-0.086,0.121-0.17,0.182-0.254c-0.179-0.238-0.363-0.472-0.548-0.703c-0.208-0.26-0.419-0.517-0.616-0.786
				c-1.068-1.455-0.608-2.058-0.387-2.723c0.112-0.336,0.774-1.054,1.52-1.782c-0.309-0.295-0.632-0.594-0.943-0.873
				c-0.301,0.302-0.59,0.6-0.853,0.887c-1.805,1.975-1.308,2.952-0.94,3.908c0.288,0.748,1.4,1.714,2.333,2.706
				C77.481,92.026,77.563,91.899,77.652,91.771z"/>
			<path fill="#FFFFFF" stroke="#1E120D" stroke-width="0.1149" stroke-miterlimit="10" d="M76.258,75.392
				c0.449-0.333,0.966-0.702,1.497-1.078c-1.007-0.711-2.054-1.445-2.871-2.06c-1.437-1.081,0.424-2.37,1.455-2.931
				c0.284-0.154,0.714-0.337,1.235-0.541c-0.352-0.131-0.729-0.268-1.121-0.411c-0.431-0.157-0.886-0.323-1.345-0.494
				c-0.239,0.127-0.475,0.255-0.703,0.386c-1.337,0.766-2.831,2.05-2.152,3.755c0.527,1.324,1.898,2.061,3.047,2.775
				C75.62,74.993,75.939,75.192,76.258,75.392z"/>
			<path fill="#FFFFFF" stroke="#1E120D" stroke-width="0.1149" stroke-miterlimit="10" d="M78.768,92.957
				c-0.045-0.085-0.092-0.168-0.14-0.252c-0.135,0.153-0.263,0.305-0.379,0.456c0.294,0.407,0.558,0.856,0.657,1.349
				c0.119,0.596-0.099,1.247-0.308,1.8c0.045-0.025,0.115-0.09,0.145-0.122c0.053-0.057,0.094-0.122,0.132-0.189
				c0.372-0.675,0.478-1.336,0.281-2.078C79.065,93.586,78.929,93.264,78.768,92.957z"/>
			<path fill="#FFFFFF" stroke="#1E120D" stroke-width="0.1149" stroke-miterlimit="10" d="M79.857,75.83
				c-0.015-0.011-0.03-0.023-0.046-0.034c-0.166,0.104-0.331,0.208-0.493,0.313c-0.355,0.231-0.681,0.446-0.983,0.65
				c1.549,1.08,2.398,1.918,2.442,3c0.035,0.867-1.16,2.159-2.5,3.49c0.123,0.122,0.246,0.242,0.368,0.362
				c0.197,0.193,0.395,0.389,0.592,0.584c0.217-0.191,0.411-0.359,0.564-0.487c0.921-0.769,2.561-2.536,2.69-3.929
				S81.239,76.869,79.857,75.83z"/>
			<g>
				<path fill="#FFFFFF" stroke="#1E120D" stroke-width="0.1149" stroke-miterlimit="10" d="M86.305,62.796
					c-0.147-1.351-1.105-2.307-1.363-2.474c-0.258-0.167-0.092-0.395-0.497-0.852c-0.405-0.457-1.474-0.956-2.818-0.935
					c-1.345,0.021-1.732,1.226-1.597,1.289c0.134,0.062,0.152,0.185,0.152,0.185c-0.327-0.052-0.231,0.355,0.432,0.854
					c0.663,0.499,1.861,1.081,2.211,0.977c0.25-0.074,0.512,0.058,0.676,0.276c0.07,0.093,0.123,0.201,0.149,0.316
					c0.022,0.097,0.026,0.198,0.009,0.297c-0.082,0.479-0.541,0.813-0.876,1.057c-0.49,0.359-1.012,0.656-1.507,1.006
					c-0.593,0.419-1.641,0.916-2.839,1.472c0.834,0.388,1.723,0.808,2.564,1.25c0.564-0.211,1.126-0.426,1.656-0.643
					C84.997,65.915,86.452,64.148,86.305,62.796z M81.686,59.588c-0.214,0-0.388-0.093-0.388-0.208c0-0.115,0.174-0.208,0.388-0.208
					s0.388,0.093,0.388,0.208C82.074,59.495,81.9,59.588,81.686,59.588z"/>
				<ellipse fill="#1E120D" cx="81.682" cy="59.396" rx="0.377" ry="0.195"/>
			</g>
		</g>
		<circle fill="#FFFFFF" stroke="#000000" stroke-width="0.2676" stroke-miterlimit="10" cx="78.065" cy="51.181" r="3.72"/>
	</g>
</g>
</svg>
