<?xml version="1.0" encoding="utf-8"?>
<!-- Generator: Adobe Illustrator 17.0.0, SVG Export Plug-In . SVG Version: 6.00 Build 0)  -->
<!DOCTYPE svg PUBLIC "-//W3C//DTD SVG 1.1//EN" "http://www.w3.org/Graphics/SVG/1.1/DTD/svg11.dtd">
<svg version="1.1" id="Capa_1" xmlns="http://www.w3.org/2000/svg" xmlns:xlink="http://www.w3.org/1999/xlink" x="0px" y="0px"
	 width="144.48px" height="132.67px" viewBox="0 0 144.48 132.67" enable-background="new 0 0 144.48 132.67" xml:space="preserve">
<g>
	<g>
		<path fill="#003F42" d="M97.739,58.911c0,0.061,0,0.103,0,0.146c-0.025,8.155-0.05,16.31-0.076,24.465
			c0,0.043-0.001,0.088-0.013,0.129c-0.303,1.049-0.645,2.083-1.199,3.034c-1.022,1.756-2.41,3.141-4.197,4.115
			c-0.747,0.407-1.553,0.668-2.369,0.895c-0.025,0.007-0.051,0.014-0.075,0.023c-0.37,0.136-0.751,0.163-1.144,0.163
			c-11.13-0.005-22.26-0.004-33.39-0.006c-0.116,0-0.236-0.016-0.346-0.05c-0.645-0.2-1.296-0.387-1.929-0.619
			c-0.913-0.335-1.704-0.881-2.429-1.523c-0.689-0.61-1.331-1.265-1.914-1.978c-0.751-0.918-1.238-1.967-1.574-3.095
			c-0.024-0.079-0.045-0.16-0.074-0.237c-0.157-0.409-0.195-0.831-0.196-1.269c-0.019-7.997-0.046-15.995-0.072-23.992
			c0-0.061,0-0.121,0-0.201c0.055,0,0.101,0,0.147,0c3.968,0.002,7.936,0.002,11.904,0.009c0.8,0.001,1.601,0.028,2.401,0.048
			c0.157,0.004,0.313,0.027,0.469,0.05c0.157,0.023,0.185,0.068,0.112,0.211c-0.136,0.264-0.277,0.526-0.431,0.779
			c-0.805,1.322-1.361,2.742-1.652,4.259c-0.094,0.491-0.128,0.998-0.134,1.499c-0.009,0.782,0.002,1.567,0.053,2.347
			c0.072,1.09,0.376,2.127,0.827,3.121c0.452,0.995,0.922,1.981,1.573,2.866c1.095,1.487,2.454,2.674,4.074,3.562
			c1.116,0.612,2.293,1.063,3.534,1.343c1.071,0.241,2.154,0.359,3.252,0.283c2.404-0.168,4.622-0.896,6.596-2.285
			c2.583-1.817,4.27-4.275,5.07-7.333c0.306-1.17,0.42-2.365,0.365-3.573c-0.102-2.236-0.75-4.304-1.954-6.195
			c-0.138-0.217-0.256-0.447-0.37-0.677c-0.071-0.142-0.043-0.192,0.119-0.206c0.396-0.033,0.793-0.075,1.19-0.076
			c4.576-0.014,9.152-0.022,13.728-0.032C97.649,58.911,97.684,58.911,97.739,58.911z"/>
		<path fill="#003F42" d="M46.736,57.675c0-0.051,0-0.093,0-0.136c0.028-2.139,0.045-4.278,0.09-6.417
			c0.016-0.768,0.083-1.536,0.155-2.301c0.049-0.52,0.227-1.013,0.447-1.485c0.256-0.55,0.523-1.095,0.795-1.637
			c0.265-0.529,0.634-0.985,1.052-1.399c0.485-0.479,0.985-0.944,1.479-1.413c0.057-0.054,0.122-0.1,0.186-0.145
			c0.207-0.147,0.288-0.113,0.31,0.145c0.027,0.318,0.051,0.637,0.053,0.955c0.013,2.288,0.017,4.576,0.031,6.864
			c0.004,0.673,0.032,1.347,0.052,2.02c0.002,0.083,0.016,0.165,0.026,0.248c0.031,0.247,0.095,0.316,0.346,0.343
			c0.178,0.019,0.358,0.029,0.536,0.026c0.226-0.004,0.453-0.025,0.693-0.04c0-0.052,0-0.095,0-0.137
			c0.037-3.688,0.075-7.375,0.113-11.063c0.002-0.175,0.01-0.35,0.009-0.525c-0.001-0.069,0.027-0.1,0.089-0.12
			c0.381-0.124,0.76-0.254,1.142-0.376c0.236-0.075,0.37-0.014,0.426,0.223c0.055,0.232,0.095,0.472,0.103,0.71
			c0.022,0.66,0.031,1.321,0.034,1.981c0.011,2.59,0.014,5.18,0.028,7.77c0.002,0.423,0.047,0.846,0.074,1.269
			c0.009,0.149,0.082,0.249,0.238,0.264c0.199,0.019,0.399,0.04,0.599,0.044c0.166,0.003,0.331-0.02,0.497-0.028
			c0.077-0.003,0.105-0.034,0.105-0.113c-0.002-0.262,0.003-0.525,0.005-0.787c0.018-3.824,0.036-7.647,0.054-11.471
			c0-0.043,0-0.086,0-0.137c0.62,0,1.23,0,1.859,0c0,0.056,0,0.111,0,0.167c0.003,3.364,0.002,6.728,0.011,10.093
			c0.002,0.616,0.041,1.232,0.071,1.848c0.015,0.317,0.071,0.386,0.39,0.406c0.347,0.022,0.696,0.005,1.063,0.005
			c0.02-4.194,0.041-8.356,0.061-12.536c0.212,0,0.412,0,0.611,0c2.542,0.005,5.083,0.009,7.625,0.014
			c3.797,0.009,7.594,0.018,11.392,0.028c3.154,0.008,6.308,0.018,9.462,0.021c0.3,0,0.587,0.035,0.873,0.128
			c0.693,0.224,1.391,0.429,2.049,0.75c0.805,0.393,1.512,0.924,2.165,1.53c0.793,0.736,1.554,1.503,2.156,2.409
			c0.617,0.929,1.001,1.956,1.224,3.041c0.081,0.395,0.104,0.807,0.112,1.212c0.037,1.758,0.06,3.517,0.086,5.275
			c0.011,0.77,0.018,1.54,0.027,2.31c0.001,0.052,0,0.104,0,0.175c-0.054,0-0.1,0-0.146,0c-5.394,0-10.788,0-16.182-0.003
			c-0.074,0-0.163-0.034-0.219-0.083c-0.855-0.753-1.751-1.448-2.754-1.998c-1.126-0.618-2.304-1.108-3.556-1.401
			c-1.009-0.236-2.039-0.283-3.073-0.278c-1.679,0.009-3.264,0.414-4.788,1.096c-1.264,0.566-2.388,1.343-3.434,2.241
			c-0.076,0.065-0.163,0.129-0.213,0.212c-0.07,0.117-0.165,0.135-0.283,0.137c-0.949,0.017-1.898,0.049-2.847,0.052
			c-4.458,0.013-8.916,0.018-13.373,0.025C46.833,57.682,46.79,57.678,46.736,57.675z M88.288,45.391c0-0.009,0-0.018,0-0.027
			c-0.888,0-1.776-0.002-2.664,0.003c-0.069,0-0.152,0.034-0.205,0.08c-0.249,0.214-0.487,0.439-0.734,0.655
			c-0.072,0.063-0.102,0.128-0.103,0.224c-0.014,1.553-0.037,3.105-0.045,4.658c-0.002,0.462-0.016,0.934,0.066,1.385
			c0.14,0.773,0.52,1.128,1.141,1.23c0.357,0.058,0.72,0.101,1.081,0.108c1.071,0.021,2.143,0.032,3.215,0.024
			c0.497-0.004,0.998-0.031,1.489-0.104c0.722-0.106,1.049-0.442,1.147-1.158c0.065-0.475,0.1-0.957,0.102-1.437
			c0.007-1.233-0.006-2.467-0.024-3.7c-0.006-0.392-0.03-0.79-0.237-1.142c-0.216-0.367-0.476-0.687-0.939-0.741
			c-0.23-0.027-0.461-0.055-0.692-0.057C90.019,45.387,89.153,45.391,88.288,45.391z"/>
		<path fill="#003F42" d="M82.334,66.436c0.005,1.339-0.165,2.645-0.677,3.896c-0.932,2.28-2.468,4.017-4.634,5.191
			c-1.033,0.56-2.136,0.921-3.297,1.098c-0.868,0.132-1.74,0.151-2.615,0.064c-1.102-0.109-2.163-0.373-3.18-0.813
			c-0.833-0.36-1.552-0.889-2.213-1.501c-0.777-0.72-1.531-1.462-2.139-2.337c-0.665-0.958-1.075-2.022-1.297-3.161
			c-0.169-0.87-0.227-1.751-0.207-2.635c0.047-2.029,0.687-3.864,1.859-5.511c1.277-1.795,2.96-3.06,5.047-3.775
			c1.008-0.346,2.046-0.51,3.115-0.486c0.7,0.016,1.397,0.039,2.089,0.156c2.036,0.346,3.739,1.302,5.161,2.787
			c0.545,0.569,1.084,1.14,1.525,1.798c0.556,0.829,0.905,1.746,1.176,2.7C82.283,64.735,82.322,65.584,82.334,66.436z
			 M72.273,73.742c0.279-0.019,0.56-0.025,0.836-0.061c0.905-0.117,1.757-0.4,2.552-0.85c1.401-0.794,2.443-1.921,3.125-3.379
			c0.34-0.728,0.516-1.496,0.564-2.298c0.04-0.671,0.031-1.34-0.128-1.994c-0.265-1.087-0.758-2.069-1.43-2.962
			c-0.442-0.588-0.941-1.113-1.598-1.472c-0.664-0.363-1.344-0.688-2.057-0.939c-0.575-0.203-1.17-0.33-1.779-0.348
			c-1.017-0.03-1.992,0.197-2.907,0.621c-2.546,1.178-4.028,3.147-4.314,5.963c-0.106,1.042,0.057,2.058,0.436,3.033
			c0.716,1.842,1.97,3.177,3.782,3.987C70.286,73.458,71.242,73.746,72.273,73.742z"/>
	</g>
</g>
</svg>
