<?xml version="1.0" encoding="utf-8"?>
<!-- Generator: Adobe Illustrator 17.0.0, SVG Export Plug-In . SVG Version: 6.00 Build 0)  -->
<!DOCTYPE svg PUBLIC "-//W3C//DTD SVG 1.1//EN" "http://www.w3.org/Graphics/SVG/1.1/DTD/svg11.dtd">
<svg version="1.1" id="Capa_1" xmlns="http://www.w3.org/2000/svg" xmlns:xlink="http://www.w3.org/1999/xlink" x="0px" y="0px"
	 width="148.571px" height="114.286px" viewBox="0 0 148.571 114.286" enable-background="new 0 0 148.571 114.286"
	 xml:space="preserve">
<g>
	<path fill="#78380F" d="M105.216,48.139c0,0.073,0,0.125,0,0.177c-0.031,9.892-0.061,19.784-0.092,29.675
		c0,0.052-0.001,0.107-0.016,0.157c-0.367,1.273-0.783,2.527-1.454,3.68c-1.24,2.13-2.923,3.811-5.091,4.991
		c-0.906,0.493-1.883,0.81-2.874,1.086c-0.031,0.009-0.061,0.017-0.091,0.028c-0.449,0.165-0.911,0.198-1.387,0.198
		c-13.501-0.006-27.001-0.004-40.502-0.007c-0.14,0-0.286-0.019-0.42-0.061c-0.782-0.243-1.572-0.469-2.34-0.751
		c-1.108-0.407-2.067-1.069-2.946-1.848c-0.835-0.74-1.614-1.535-2.322-2.399c-0.911-1.113-1.502-2.386-1.909-3.754
		c-0.029-0.096-0.054-0.194-0.09-0.288c-0.19-0.496-0.236-1.008-0.238-1.539c-0.023-9.701-0.056-19.402-0.087-29.102
		c0-0.074,0-0.147,0-0.243c0.067,0,0.123,0,0.179,0c4.813,0.003,9.627,0.002,14.44,0.01c0.971,0.002,1.942,0.034,2.912,0.058
		c0.19,0.005,0.38,0.033,0.568,0.061c0.19,0.028,0.225,0.082,0.135,0.256c-0.165,0.32-0.335,0.637-0.522,0.945
		c-0.977,1.603-1.651,3.326-2.004,5.166c-0.114,0.595-0.156,1.211-0.163,1.818c-0.011,0.949,0.002,1.9,0.065,2.847
		c0.087,1.322,0.456,2.58,1.003,3.786c0.548,1.207,1.118,2.403,1.908,3.476c1.328,1.804,2.976,3.243,4.942,4.321
		c1.354,0.742,2.781,1.29,4.287,1.629c1.299,0.292,2.612,0.436,3.945,0.343c2.916-0.203,5.607-1.087,8.001-2.771
		c3.134-2.204,5.18-5.185,6.15-8.894c0.371-1.42,0.51-2.869,0.443-4.333c-0.124-2.713-0.909-5.22-2.371-7.514
		c-0.167-0.263-0.31-0.542-0.449-0.821c-0.086-0.172-0.052-0.233,0.144-0.249c0.48-0.041,0.962-0.091,1.443-0.092
		c5.551-0.018,11.101-0.027,16.652-0.038C105.107,48.139,105.149,48.139,105.216,48.139z"/>
	<path fill="#78380F" d="M43.35,46.64c0-0.061-0.001-0.113,0-0.164c0.034-2.595,0.055-5.189,0.109-7.784
		c0.019-0.931,0.101-1.863,0.188-2.791c0.059-0.631,0.275-1.228,0.542-1.801c0.311-0.667,0.634-1.328,0.964-1.986
		c0.322-0.642,0.769-1.195,1.276-1.697c0.588-0.582,1.194-1.145,1.795-1.714c0.069-0.065,0.148-0.121,0.225-0.176
		c0.251-0.178,0.35-0.138,0.376,0.176c0.033,0.385,0.062,0.772,0.065,1.159c0.016,2.775,0.02,5.551,0.038,8.326
		c0.005,0.817,0.039,1.634,0.062,2.45c0.003,0.1,0.019,0.2,0.032,0.3c0.038,0.299,0.116,0.384,0.42,0.416
		c0.216,0.023,0.434,0.035,0.65,0.031c0.275-0.005,0.549-0.031,0.841-0.049c0-0.064,0-0.115,0-0.166
		c0.045-4.473,0.091-8.946,0.137-13.419c0.002-0.212,0.013-0.424,0.011-0.637c-0.001-0.084,0.032-0.121,0.108-0.146
		c0.462-0.151,0.922-0.308,1.386-0.456c0.286-0.091,0.448-0.017,0.517,0.27c0.067,0.282,0.115,0.573,0.125,0.862
		c0.027,0.801,0.038,1.602,0.041,2.403c0.013,3.141,0.017,6.283,0.034,9.424c0.003,0.513,0.057,1.026,0.09,1.539
		c0.012,0.181,0.099,0.302,0.288,0.32c0.242,0.023,0.484,0.048,0.727,0.053c0.201,0.004,0.402-0.025,0.603-0.034
		c0.093-0.004,0.128-0.041,0.127-0.137c-0.002-0.318,0.004-0.637,0.006-0.955c0.022-4.638,0.044-9.276,0.066-13.914
		c0-0.052,0-0.104,0-0.166c0.752,0,1.492,0,2.255,0c0,0.068,0,0.135,0,0.202c0.003,4.081,0.002,8.161,0.014,12.242
		c0.002,0.747,0.05,1.494,0.086,2.241c0.019,0.384,0.086,0.468,0.473,0.492c0.42,0.026,0.844,0.006,1.29,0.006
		c0.025-5.087,0.049-10.136,0.074-15.205c0.257,0,0.499,0,0.742,0c3.083,0.006,6.166,0.01,9.249,0.017
		c4.606,0.01,9.212,0.022,13.818,0.034c3.826,0.01,7.652,0.022,11.478,0.026c0.364,0,0.712,0.042,1.059,0.155
		c0.84,0.271,1.688,0.521,2.485,0.91c0.976,0.477,1.834,1.12,2.626,1.856c0.962,0.893,1.885,1.823,2.615,2.922
		c0.748,1.126,1.214,2.373,1.485,3.689c0.099,0.479,0.126,0.979,0.136,1.47c0.045,2.133,0.073,4.265,0.104,6.398
		c0.014,0.934,0.022,1.868,0.032,2.802c0.001,0.063,0,0.126,0,0.213c-0.065,0-0.121,0-0.177,0c-6.543,0-13.086,0-19.629-0.004
		c-0.089,0-0.198-0.042-0.265-0.101c-1.037-0.914-2.124-1.756-3.34-2.424c-1.366-0.75-2.795-1.344-4.313-1.699
		c-1.224-0.286-2.473-0.344-3.728-0.337c-2.037,0.011-3.959,0.502-5.808,1.33c-1.533,0.686-2.897,1.629-4.166,2.718
		c-0.092,0.079-0.198,0.156-0.258,0.257c-0.085,0.142-0.2,0.163-0.343,0.166c-1.151,0.02-2.302,0.06-3.453,0.063
		c-5.407,0.016-10.814,0.022-16.222,0.031C43.467,46.648,43.416,46.643,43.35,46.64z M93.751,31.74c0-0.011,0-0.022,0-0.033
		c-1.077,0-2.154-0.002-3.231,0.004c-0.084,0-0.185,0.042-0.249,0.097c-0.302,0.259-0.591,0.532-0.89,0.794
		c-0.087,0.076-0.124,0.155-0.125,0.272c-0.017,1.883-0.045,3.767-0.055,5.65c-0.003,0.561-0.02,1.133,0.08,1.68
		c0.17,0.938,0.631,1.369,1.384,1.491c0.433,0.071,0.873,0.123,1.311,0.132c1.299,0.026,2.6,0.039,3.899,0.029
		c0.603-0.005,1.21-0.038,1.806-0.126c0.875-0.129,1.272-0.536,1.392-1.405c0.079-0.576,0.121-1.161,0.124-1.743
		c0.008-1.496-0.008-2.992-0.029-4.488c-0.007-0.476-0.036-0.958-0.288-1.385c-0.262-0.445-0.578-0.833-1.138-0.899
		c-0.279-0.033-0.559-0.067-0.839-0.069C95.852,31.735,94.801,31.74,93.751,31.74z"/>
	<path fill="#78380F" d="M86.529,57.267c0.006,1.624-0.2,3.208-0.821,4.726c-1.131,2.765-2.993,4.873-5.62,6.297
		c-1.253,0.679-2.591,1.117-4,1.332c-1.053,0.16-2.11,0.183-3.172,0.078c-1.337-0.133-2.624-0.453-3.858-0.986
		c-1.01-0.437-1.883-1.079-2.684-1.821c-0.942-0.873-1.857-1.774-2.595-2.835c-0.807-1.162-1.304-2.453-1.574-3.834
		c-0.206-1.055-0.275-2.123-0.251-3.196c0.056-2.461,0.833-4.687,2.255-6.685c1.549-2.177,3.59-3.711,6.121-4.579
		c1.223-0.419,2.482-0.619,3.778-0.59c0.849,0.019,1.695,0.047,2.534,0.19c2.47,0.42,4.536,1.579,6.261,3.381
		c0.661,0.691,1.315,1.383,1.85,2.181c0.674,1.006,1.097,2.118,1.427,3.275C86.468,55.204,86.515,56.233,86.529,57.267z
		 M74.326,66.129c0.338-0.023,0.679-0.03,1.015-0.074c1.098-0.142,2.131-0.485,3.096-1.031c1.7-0.963,2.963-2.33,3.79-4.099
		c0.413-0.883,0.626-1.815,0.684-2.788c0.048-0.814,0.037-1.625-0.156-2.418c-0.321-1.319-0.92-2.51-1.734-3.593
		c-0.536-0.713-1.142-1.35-1.938-1.786c-0.805-0.44-1.63-0.834-2.495-1.139c-0.698-0.246-1.419-0.4-2.158-0.422
		c-1.233-0.037-2.417,0.239-3.526,0.753c-3.088,1.429-4.886,3.817-5.233,7.233c-0.128,1.264,0.069,2.497,0.528,3.679
		c0.868,2.235,2.39,3.854,4.588,4.837C71.916,65.784,73.075,66.134,74.326,66.129z"/>
</g>
</svg>
