<?xml version="1.0" encoding="utf-8"?>
<!-- Generator: Adobe Illustrator 19.0.0, SVG Export Plug-In . SVG Version: 6.00 Build 0)  -->
<svg version="1.1" id="Capa_1" xmlns="http://www.w3.org/2000/svg" xmlns:xlink="http://www.w3.org/1999/xlink" x="0px" y="0px"
	 viewBox="0 0 182.71 61.75" style="enable-background:new 0 0 182.71 61.75;" xml:space="preserve">
<style type="text/css">
	.st0{fill:#FFFFFF;}
	.st1{fill:none;stroke:#FFFFFF;stroke-width:1.183;stroke-miterlimit:10;}
	.st2{fill:none;stroke:#FFFFFF;stroke-width:1.175;stroke-miterlimit:10;}
</style>
<g id="XMLID_815_">
	<path id="XMLID_870_" class="st0" d="M66.86,32.62h-3.52c-0.39,0-0.71-0.13-0.96-0.4c-0.25-0.27-0.38-0.59-0.38-0.98V1.43
		c0-0.38,0.13-0.71,0.38-0.98c0.25-0.27,0.57-0.4,0.96-0.4h3.52c0.38,0,0.71,0.13,0.98,0.4c0.27,0.27,0.4,0.6,0.4,0.98v29.82
		c0,0.39-0.13,0.71-0.4,0.98C67.58,32.49,67.25,32.62,66.86,32.62"/>
	<path id="XMLID_867_" class="st0" d="M77.6,32.62c-0.39,0-0.71-0.13-0.96-0.4c-0.25-0.27-0.38-0.59-0.38-0.98V1.38
		c0-0.39,0.13-0.71,0.38-0.98C76.9,0.13,77.22,0,77.6,0h11.5c4.66,0,8.5,1.37,11.5,4.1c1.6,1.48,2.81,3.24,3.61,5.26
		c0.83,2.17,1.25,4.49,1.25,6.95c0,1.31-0.11,2.53-0.31,3.68c-0.21,1.14-0.52,2.24-0.93,3.27c-0.77,2.05-1.98,3.82-3.61,5.3
		c-1.51,1.37-3.22,2.38-5.13,3.03c-1.96,0.68-4.08,1.03-6.37,1.03H77.6z M83.84,27.1h5.3c1.13,0,2.3-0.13,3.52-0.4
		c1.16-0.27,2.23-0.8,3.21-1.61c0.95-0.74,1.75-1.83,2.41-3.25c0.62-1.37,0.93-3.19,0.93-5.48c0-2.26-0.31-4.1-0.93-5.53
		c-0.65-1.43-1.46-2.51-2.41-3.25c-0.98-0.77-2.06-1.29-3.25-1.56c-1.22-0.27-2.38-0.4-3.48-0.4h-5.3c-0.39,0-0.71,0.13-0.96,0.4
		C82.63,6.28,82.51,6.61,82.51,7v18.72c0,0.39,0.13,0.71,0.38,0.98C83.14,26.96,83.45,27.1,83.84,27.1"/>
	<path id="XMLID_866_" class="st0" d="M116.6,32.62h-3.52c-0.39,0-0.71-0.13-0.96-0.4c-0.25-0.27-0.38-0.59-0.38-0.98V1.43
		c0-0.38,0.13-0.71,0.38-0.98c0.25-0.27,0.57-0.4,0.96-0.4h3.52c0.38,0,0.71,0.13,0.98,0.4c0.27,0.27,0.4,0.6,0.4,0.98v29.82
		c0,0.39-0.13,0.71-0.4,0.98C117.31,32.49,116.98,32.62,116.6,32.62"/>
	<rect id="XMLID_865_" x="15.56" y="44.28" class="st0" width="0.97" height="7.51"/>
	<path id="XMLID_864_" class="st0" d="M18.22,51.78v-7.51h1.06l2.41,3.8c0.56,0.88,0.99,1.67,1.35,2.44l0.02-0.01
		c-0.09-1-0.11-1.92-0.11-3.08v-3.14h0.91v7.51h-0.98l-2.38-3.81c-0.52-0.83-1.03-1.69-1.4-2.5l-0.03,0.01
		c0.06,0.95,0.08,1.85,0.08,3.09v3.21H18.22z"/>
	<path id="XMLID_863_" class="st0" d="M25.42,50.6c0.43,0.27,1.07,0.49,1.74,0.49c0.99,0,1.57-0.52,1.57-1.28
		c0-0.7-0.4-1.1-1.41-1.49c-1.22-0.43-1.98-1.07-1.98-2.13c0-1.17,0.97-2.04,2.43-2.04c0.77,0,1.32,0.18,1.66,0.37l-0.27,0.79
		c-0.25-0.13-0.75-0.35-1.43-0.35c-1.03,0-1.41,0.61-1.41,1.12c0,0.7,0.46,1.05,1.49,1.45c1.27,0.49,1.92,1.1,1.92,2.21
		c0,1.16-0.86,2.16-2.63,2.16c-0.72,0-1.51-0.21-1.92-0.48L25.42,50.6z"/>
	<polygon id="XMLID_862_" class="st0" points="32.47,45.1 30.19,45.1 30.19,44.28 35.75,44.28 35.75,45.1 33.45,45.1 33.45,51.78 
		32.47,51.78 	"/>
	<rect id="XMLID_861_" x="36.58" y="44.28" class="st0" width="0.97" height="7.51"/>
	<polygon id="XMLID_860_" class="st0" points="40.67,45.1 38.39,45.1 38.39,44.28 43.95,44.28 43.95,45.1 41.65,45.1 41.65,51.78 
		40.67,51.78 	"/>
	<path id="XMLID_859_" class="st0" d="M45.75,44.28v4.44c0,1.68,0.75,2.39,1.75,2.39c1.11,0,1.83-0.74,1.83-2.39v-4.44h0.98v4.38
		c0,2.31-1.21,3.25-2.84,3.25c-1.54,0-2.7-0.88-2.7-3.21v-4.42H45.75z"/>
	<polygon id="XMLID_857_" class="st0" points="53.42,45.1 51.14,45.1 51.14,44.28 56.69,44.28 56.69,45.1 54.4,45.1 54.4,51.78 
		53.42,51.78 	"/>
	<path id="XMLID_850_" class="st0" d="M63.64,47.95c0,2.58-1.57,3.95-3.49,3.95c-1.98,0-3.37-1.54-3.37-3.81
		c0-2.38,1.48-3.94,3.48-3.94C62.32,44.15,63.64,45.72,63.64,47.95 M57.82,48.07c0,1.6,0.87,3.04,2.39,3.04
		c1.54,0,2.41-1.41,2.41-3.12c0-1.49-0.78-3.05-2.39-3.05C58.62,44.94,57.82,46.43,57.82,48.07"/>
	<path id="XMLID_847_" class="st0" d="M67.27,44.38c0.59-0.09,1.29-0.16,2.06-0.16c1.39,0,2.38,0.32,3.04,0.94
		c0.67,0.61,1.06,1.48,1.06,2.7c0,1.22-0.38,2.23-1.08,2.92c-0.7,0.7-1.86,1.08-3.32,1.08c-0.69,0-1.27-0.03-1.76-0.09V44.38z
		 M68.24,51.01c0.25,0.04,0.6,0.06,0.98,0.06c2.07,0,3.2-1.16,3.2-3.18c0.01-1.77-0.99-2.89-3.04-2.89c-0.5,0-0.88,0.04-1.14,0.1
		V51.01z"/>
	<polygon id="XMLID_846_" class="st0" points="78.58,48.26 75.66,48.26 75.66,50.97 78.91,50.97 78.91,51.78 74.69,51.78 
		74.69,44.28 78.74,44.28 78.74,45.09 75.66,45.09 75.66,47.46 78.58,47.46 	"/>
	<rect id="XMLID_845_" x="82.53" y="44.28" class="st0" width="0.97" height="7.51"/>
	<path id="XMLID_844_" class="st0" d="M85.2,51.78v-7.51h1.06l2.41,3.8c0.56,0.88,0.99,1.67,1.35,2.44l0.02-0.01
		c-0.09-1-0.11-1.92-0.11-3.08v-3.14h0.91v7.51h-0.98l-2.38-3.81c-0.52-0.83-1.03-1.69-1.4-2.5l-0.03,0.01
		c0.06,0.95,0.08,1.85,0.08,3.09v3.21H85.2z"/>
	<path id="XMLID_843_" class="st0" d="M94.17,51.78l-2.45-7.51h1.05l1.17,3.7c0.32,1.01,0.6,1.93,0.8,2.81h0.02
		c0.21-0.87,0.52-1.82,0.86-2.79l1.27-3.71h1.03l-2.68,7.51H94.17z"/>
	<polygon id="XMLID_842_" class="st0" points="102.63,48.26 99.71,48.26 99.71,50.97 102.96,50.97 102.96,51.78 98.74,51.78 
		98.74,44.28 102.8,44.28 102.8,45.09 99.71,45.09 99.71,47.46 102.63,47.46 	"/>
	<path id="XMLID_841_" class="st0" d="M104.09,50.6c0.43,0.27,1.07,0.49,1.74,0.49c0.99,0,1.57-0.52,1.57-1.28
		c0-0.7-0.4-1.1-1.41-1.49c-1.22-0.43-1.98-1.07-1.98-2.13c0-1.17,0.97-2.04,2.43-2.04c0.77,0,1.32,0.18,1.66,0.37l-0.27,0.79
		c-0.25-0.13-0.75-0.35-1.43-0.35c-1.03,0-1.41,0.61-1.41,1.12c0,0.7,0.46,1.05,1.49,1.45c1.27,0.49,1.92,1.1,1.92,2.21
		c0,1.16-0.86,2.16-2.63,2.16c-0.72,0-1.51-0.21-1.92-0.48L104.09,50.6z"/>
	<polygon id="XMLID_840_" class="st0" points="111.14,45.1 108.86,45.1 108.86,44.28 114.42,44.28 114.42,45.1 112.12,45.1 
		112.12,51.78 111.14,51.78 	"/>
	<rect id="XMLID_836_" x="115.25" y="44.28" class="st0" width="0.97" height="7.51"/>
	<path id="XMLID_835_" class="st0" d="M123.63,51.45c-0.43,0.16-1.29,0.41-2.31,0.41c-1.14,0-2.07-0.29-2.81-0.99
		c-0.64-0.62-1.05-1.63-1.05-2.79c0.01-2.24,1.55-3.88,4.06-3.88c0.87,0,1.55,0.19,1.87,0.35l-0.23,0.79
		c-0.4-0.18-0.9-0.32-1.66-0.32c-1.83,0-3.02,1.13-3.02,3.02c0,1.9,1.15,3.03,2.89,3.03c0.64,0,1.07-0.09,1.29-0.2v-2.24h-1.53
		v-0.78h2.47V51.45z"/>
	<path id="XMLID_832_" class="st0" d="M126.33,49.42l-0.78,2.36h-1l2.55-7.51h1.17l2.56,7.51h-1.04l-0.8-2.36H126.33z M128.79,48.66
		l-0.74-2.16c-0.17-0.49-0.28-0.93-0.39-1.37h-0.02c-0.11,0.45-0.23,0.9-0.38,1.36l-0.74,2.17H128.79z"/>
	<path id="XMLID_831_" class="st0" d="M137.01,51.54c-0.36,0.18-1.07,0.36-1.98,0.36c-2.12,0-3.71-1.34-3.71-3.8
		c0-2.35,1.59-3.94,3.92-3.94c0.93,0,1.52,0.2,1.78,0.33l-0.23,0.79c-0.37-0.18-0.89-0.31-1.51-0.31c-1.76,0-2.93,1.12-2.93,3.1
		c0,1.84,1.06,3.02,2.89,3.02c0.59,0,1.19-0.12,1.58-0.31L137.01,51.54z"/>
	<rect id="XMLID_830_" x="138.23" y="44.28" class="st0" width="0.97" height="7.51"/>
	<path id="XMLID_823_" class="st0" d="M147.31,47.95c0,2.58-1.57,3.95-3.49,3.95c-1.98,0-3.37-1.54-3.37-3.81
		c0-2.38,1.48-3.94,3.48-3.94C145.98,44.15,147.31,45.72,147.31,47.95 M141.48,48.07c0,1.6,0.87,3.04,2.39,3.04
		c1.54,0,2.41-1.41,2.41-3.12c0-1.49-0.78-3.05-2.39-3.05C142.29,44.94,141.48,46.43,141.48,48.07"/>
	<path id="XMLID_822_" class="st0" d="M148.57,51.78v-7.51h1.06l2.41,3.8c0.56,0.88,0.99,1.67,1.35,2.44l0.02-0.01
		c-0.09-1-0.11-1.92-0.11-3.08v-3.14h0.91v7.51h-0.98l-2.38-3.81c-0.52-0.83-1.03-1.69-1.4-2.5l-0.03,0.01
		c0.06,0.95,0.08,1.85,0.08,3.09v3.21H148.57z"/>
	<polygon id="XMLID_819_" class="st0" points="159.79,48.26 156.87,48.26 156.87,50.97 160.12,50.97 160.12,51.78 155.9,51.78 
		155.9,44.28 159.95,44.28 159.95,45.09 156.87,45.09 156.87,47.46 159.79,47.46 	"/>
	<path id="XMLID_818_" class="st0" d="M161.25,50.6c0.43,0.27,1.07,0.49,1.74,0.49c0.99,0,1.57-0.52,1.57-1.28
		c0-0.7-0.4-1.1-1.41-1.49c-1.22-0.43-1.98-1.07-1.98-2.13c0-1.17,0.97-2.04,2.43-2.04c0.77,0,1.32,0.18,1.66,0.37l-0.27,0.79
		c-0.25-0.13-0.75-0.35-1.43-0.35c-1.03,0-1.41,0.61-1.41,1.12c0,0.7,0.46,1.05,1.49,1.45c1.27,0.49,1.92,1.1,1.92,2.21
		c0,1.16-0.86,2.16-2.63,2.16c-0.72,0-1.51-0.21-1.92-0.48L161.25,50.6z"/>
	<line id="XMLID_817_" class="st1" x1="0" y1="37.91" x2="182.71" y2="37.91"/>
	<line id="XMLID_816_" class="st2" x1="10.54" y1="57.41" x2="172.62" y2="57.41"/>
</g>
</svg>
