<?xml version="1.0" encoding="utf-8"?>
<!-- Generator: Adobe Illustrator 17.0.0, SVG Export Plug-In . SVG Version: 6.00 Build 0)  -->
<!DOCTYPE svg PUBLIC "-//W3C//DTD SVG 1.1//EN" "http://www.w3.org/Graphics/SVG/1.1/DTD/svg11.dtd">
<svg version="1.1" id="Capa_1" xmlns="http://www.w3.org/2000/svg" xmlns:xlink="http://www.w3.org/1999/xlink" x="0px" y="0px"
	 width="148.571px" height="114.286px" viewBox="0 0 148.571 114.286" enable-background="new 0 0 148.571 114.286"
	 xml:space="preserve">
<g>
	<g>
		<path opacity="0.9" fill="#00B2D6" enable-background="new    " d="M95.774,26.268H52.79c-5.181,0-9.38,4.2-9.38,9.38v42.984
			c0,5.187,4.2,9.387,9.38,9.387h42.984c5.187,0,9.387-4.2,9.387-9.387V35.649C105.161,30.468,100.962,26.268,95.774,26.268z
			 M92.314,50.027c0.013,0.347,0.02,0.7,0.02,1.047c0,10.695-8.138,23.019-23.02,23.019c-4.566,0-8.818-1.341-12.403-3.631
			c0.635,0.072,1.276,0.111,1.93,0.111c3.794,0,7.281-1.295,10.048-3.467c-3.539-0.065-6.528-2.401-7.555-5.619
			c0.491,0.098,1.001,0.15,1.524,0.15c0.733,0,1.452-0.105,2.126-0.288c-3.696-0.739-6.483-4.01-6.483-7.935v-0.098
			c1.086,0.602,2.335,0.968,3.663,1.014c-2.172-1.452-3.598-3.931-3.598-6.738c0-1.478,0.399-2.872,1.092-4.069
			c3.99,4.9,9.95,8.118,16.674,8.458c-0.137-0.595-0.209-1.21-0.209-1.845c0-4.468,3.624-8.092,8.092-8.092
			c2.322,0,4.429,0.981,5.907,2.558c1.845-0.366,3.572-1.04,5.135-1.962c-0.602,1.884-1.891,3.474-3.559,4.474
			c1.635-0.196,3.199-0.635,4.644-1.276C95.257,47.462,93.89,48.888,92.314,50.027z"/>
	</g>
</g>
</svg>
