<?xml version="1.0" encoding="utf-8"?>
<!-- Generator: Adobe Illustrator 17.0.0, SVG Export Plug-In . SVG Version: 6.00 Build 0)  -->
<!DOCTYPE svg PUBLIC "-//W3C//DTD SVG 1.1//EN" "http://www.w3.org/Graphics/SVG/1.1/DTD/svg11.dtd">
<svg version="1.1" id="Capa_1" xmlns="http://www.w3.org/2000/svg" xmlns:xlink="http://www.w3.org/1999/xlink" x="0px" y="0px"
	 width="144.48px" height="132.67px" viewBox="0 0 144.48 132.67" enable-background="new 0 0 144.48 132.67" xml:space="preserve">
<g>
	<g>
		<path opacity="0.9" fill="#003F42" d="M89.204,41.961H55.271c-4.09,0-7.405,3.315-7.405,7.405v33.933
			c0,4.095,3.315,7.41,7.405,7.41h33.933c4.095,0,7.41-3.315,7.41-7.41V49.366C96.614,45.276,93.299,41.961,89.204,41.961z
			 M86.472,60.717c0.01,0.274,0.015,0.553,0.015,0.826c0,8.443-6.424,18.172-18.172,18.172c-3.604,0-6.961-1.059-9.791-2.866
			c0.501,0.057,1.007,0.088,1.523,0.088c2.995,0,5.748-1.022,7.932-2.737c-2.794-0.052-5.154-1.895-5.964-4.436
			c0.387,0.077,0.79,0.119,1.203,0.119c0.578,0,1.146-0.083,1.678-0.227c-2.918-0.584-5.118-3.165-5.118-6.264v-0.077
			c0.857,0.475,1.844,0.764,2.892,0.8c-1.714-1.146-2.84-3.104-2.84-5.319c0-1.167,0.315-2.267,0.862-3.212
			c3.15,3.868,7.854,6.409,13.163,6.677c-0.108-0.47-0.165-0.955-0.165-1.456c0-3.527,2.861-6.388,6.388-6.388
			c1.833,0,3.496,0.775,4.663,2.019c1.456-0.289,2.82-0.821,4.054-1.549c-0.475,1.487-1.492,2.742-2.809,3.532
			c1.291-0.155,2.525-0.501,3.666-1.007C88.796,58.692,87.716,59.818,86.472,60.717z"/>
	</g>
</g>
</svg>
