<?xml version="1.0" encoding="utf-8"?>
<!-- Generator: Adobe Illustrator 17.0.0, SVG Export Plug-In . SVG Version: 6.00 Build 0)  -->
<!DOCTYPE svg PUBLIC "-//W3C//DTD SVG 1.1//EN" "http://www.w3.org/Graphics/SVG/1.1/DTD/svg11.dtd">
<svg version="1.1" id="Capa_1" xmlns="http://www.w3.org/2000/svg" xmlns:xlink="http://www.w3.org/1999/xlink" x="0px" y="0px"
	 width="144.48px" height="132.67px" viewBox="0 0 144.48 132.67" enable-background="new 0 0 144.48 132.67" xml:space="preserve">
<g>
	<g>
		<path fill="#003F42" d="M71.466,52.731c-0.628,0-0.926,0.492-0.926,1.485v4.513c0,0.994,0.298,1.49,0.926,1.49
			c0.628,0,0.931-0.497,0.931-1.49v-4.513C72.397,53.223,72.094,52.731,71.466,52.731z M71.466,52.731
			c-0.628,0-0.926,0.492-0.926,1.485v4.513c0,0.994,0.298,1.49,0.926,1.49c0.628,0,0.931-0.497,0.931-1.49v-4.513
			C72.397,53.223,72.094,52.731,71.466,52.731z M58.362,67.498v2.008h2.264v12.247h2.139V69.507h2.306v-2.008H58.362z
			 M68.961,71.133v8.121c-0.424,0.601-0.831,0.899-1.218,0.899c-0.256,0-0.403-0.152-0.45-0.45
			c-0.016-0.063-0.016-0.298-0.016-0.748v-7.823h-1.924v8.398c0,0.753,0.063,1.255,0.167,1.579c0.193,0.539,0.622,0.79,1.239,0.79
			c0.711,0,1.438-0.429,2.201-1.302v1.156h1.924V71.133H68.961z M71.466,52.731c-0.628,0-0.926,0.492-0.926,1.485v4.513
			c0,0.994,0.298,1.49,0.926,1.49c0.628,0,0.931-0.497,0.931-1.49v-4.513C72.397,53.223,72.094,52.731,71.466,52.731z
			 M78.003,72.205c-0.256-0.8-0.769-1.203-1.537-1.203c-0.706,0-1.365,0.392-1.987,1.156v-4.659h-1.924v14.255h1.924v-1.025
			c0.643,0.795,1.302,1.171,1.987,1.171c0.769,0,1.281-0.403,1.537-1.192c0.131-0.45,0.193-1.156,0.193-2.139v-4.23
			C78.196,73.334,78.133,72.628,78.003,72.205z M76.272,78.72c0,0.957-0.282,1.433-0.837,1.433c-0.314,0-0.638-0.152-0.957-0.476
			v-6.474c0.319-0.314,0.643-0.465,0.957-0.465c0.554,0,0.837,0.492,0.837,1.448V78.72z M85.46,76.796v-2.201
			c0-1.135-0.193-1.966-0.596-2.5c-0.539-0.732-1.302-1.093-2.27-1.093c-0.983,0-1.752,0.361-2.306,1.093
			c-0.408,0.533-0.591,1.365-0.591,2.5v3.723c0,1.124,0.209,1.966,0.617,2.494c0.554,0.727,1.318,1.088,2.327,1.088
			c1.009,0,1.794-0.376,2.327-1.15c0.235-0.34,0.387-0.727,0.45-1.15c0.021-0.193,0.042-0.622,0.042-1.245v-0.277h-1.961
			c0,0.774-0.026,1.198-0.042,1.302c-0.11,0.512-0.387,0.774-0.863,0.774c-0.659,0-0.983-0.492-0.983-1.475v-1.883H85.46z
			 M81.611,74.213c0-0.983,0.324-1.475,0.967-1.475c0.638,0,0.957,0.492,0.957,1.475v0.978h-1.924V74.213z M85.46,76.796v-2.201
			c0-1.135-0.193-1.966-0.596-2.5c-0.539-0.732-1.302-1.093-2.27-1.093c-0.983,0-1.752,0.361-2.306,1.093
			c-0.408,0.533-0.591,1.365-0.591,2.5v3.723c0,1.124,0.209,1.966,0.617,2.494c0.554,0.727,1.318,1.088,2.327,1.088
			c1.009,0,1.794-0.376,2.327-1.15c0.235-0.34,0.387-0.727,0.45-1.15c0.021-0.193,0.042-0.622,0.042-1.245v-0.277h-1.961
			c0,0.774-0.026,1.198-0.042,1.302c-0.11,0.512-0.387,0.774-0.863,0.774c-0.659,0-0.983-0.492-0.983-1.475v-1.883H85.46z
			 M81.611,74.213c0-0.983,0.324-1.475,0.967-1.475c0.638,0,0.957,0.492,0.957,1.475v0.978h-1.924V74.213z M76.465,71.002
			c-0.706,0-1.365,0.392-1.987,1.156v-4.659h-1.924v14.255h1.924v-1.025c0.643,0.795,1.302,1.171,1.987,1.171
			c0.769,0,1.281-0.403,1.537-1.192c0.131-0.45,0.193-1.156,0.193-2.139v-4.23c0-1.004-0.063-1.71-0.193-2.134
			C77.746,71.405,77.234,71.002,76.465,71.002z M76.272,78.72c0,0.957-0.282,1.433-0.837,1.433c-0.314,0-0.638-0.152-0.957-0.476
			v-6.474c0.319-0.314,0.643-0.465,0.957-0.465c0.554,0,0.837,0.492,0.837,1.448V78.72z M68.961,79.254
			c-0.424,0.601-0.831,0.899-1.218,0.899c-0.256,0-0.403-0.152-0.45-0.45c-0.016-0.063-0.016-0.298-0.016-0.748v-7.823h-1.924v8.398
			c0,0.753,0.063,1.255,0.167,1.579c0.193,0.539,0.622,0.79,1.239,0.79c0.711,0,1.438-0.429,2.201-1.302v1.156h1.924V71.133h-1.924
			V79.254z M58.362,69.507h2.264v12.247h2.139V69.507h2.306v-2.008h-6.709V69.507z M71.466,52.731c-0.628,0-0.926,0.492-0.926,1.485
			v4.513c0,0.994,0.298,1.49,0.926,1.49c0.628,0,0.931-0.497,0.931-1.49v-4.513C72.397,53.223,72.094,52.731,71.466,52.731z
			 M89.679,41.279H54.801c-4.204,0-7.614,3.409-7.614,7.619v34.879c0,4.204,3.409,7.614,7.614,7.614h34.879
			c4.204,0,7.614-3.409,7.614-7.614V48.898C97.293,44.689,93.884,41.279,89.679,41.279z M75.942,51.11h1.94v7.896
			c0,0.46,0,0.695,0.021,0.758c0.042,0.303,0.194,0.455,0.455,0.455c0.392,0,0.8-0.298,1.229-0.91V51.11h1.945v10.73h-1.945v-1.171
			c-0.774,0.889-1.511,1.318-2.222,1.318c-0.622,0-1.056-0.251-1.25-0.795c-0.11-0.324-0.173-0.842-0.173-1.6V51.11z M68.595,54.603
			c0-1.145,0.193-1.982,0.607-2.526c0.539-0.732,1.297-1.098,2.264-1.098c0.978,0,1.731,0.366,2.269,1.098
			c0.408,0.544,0.607,1.38,0.607,2.526v3.76c0,1.145-0.199,1.987-0.607,2.526c-0.539,0.732-1.292,1.098-2.269,1.098
			c-0.967,0-1.726-0.366-2.264-1.098c-0.413-0.539-0.607-1.381-0.607-2.526V54.603z M63.397,47.439l1.527,5.653l1.475-5.653h2.181
			l-2.599,8.565v5.836h-2.154v-5.836c-0.194-1.03-0.627-2.547-1.318-4.555c-0.455-1.333-0.931-2.677-1.386-4.011H63.397z
			 M87.274,82.391c-0.387,1.694-1.773,2.944-3.441,3.132c-3.948,0.439-7.948,0.439-11.923,0.439c-3.979,0-7.975,0-11.928-0.439
			c-1.668-0.188-3.049-1.438-3.441-3.132c-0.554-2.411-0.554-5.041-0.554-7.525s0.005-5.114,0.565-7.53
			c0.387-1.694,1.773-2.939,3.441-3.127c3.948-0.444,7.943-0.444,11.923-0.444s7.975,0,11.923,0.444
			c1.668,0.188,3.054,1.433,3.441,3.127c0.554,2.416,0.554,5.046,0.554,7.53S87.834,79.981,87.274,82.391z M82.594,71.002
			c-0.983,0-1.752,0.361-2.306,1.093c-0.408,0.533-0.591,1.365-0.591,2.5v3.723c0,1.124,0.209,1.966,0.617,2.494
			c0.554,0.727,1.318,1.088,2.327,1.088c1.009,0,1.794-0.376,2.327-1.15c0.235-0.34,0.387-0.727,0.45-1.15
			c0.021-0.193,0.042-0.622,0.042-1.245v-0.277h-1.961c0,0.774-0.026,1.198-0.042,1.302c-0.11,0.512-0.387,0.774-0.863,0.774
			c-0.659,0-0.983-0.492-0.983-1.475v-1.883h3.849v-2.201c0-1.135-0.193-1.966-0.596-2.5C84.325,71.363,83.561,71.002,82.594,71.002
			z M83.535,75.191h-1.924v-0.978c0-0.983,0.324-1.475,0.967-1.475c0.638,0,0.957,0.492,0.957,1.475V75.191z M76.465,71.002
			c-0.706,0-1.365,0.392-1.987,1.156v-4.659h-1.924v14.255h1.924v-1.025c0.643,0.795,1.302,1.171,1.987,1.171
			c0.769,0,1.281-0.403,1.537-1.192c0.131-0.45,0.193-1.156,0.193-2.139v-4.23c0-1.004-0.063-1.71-0.193-2.134
			C77.746,71.405,77.234,71.002,76.465,71.002z M76.272,78.72c0,0.957-0.282,1.433-0.837,1.433c-0.314,0-0.638-0.152-0.957-0.476
			v-6.474c0.319-0.314,0.643-0.465,0.957-0.465c0.554,0,0.837,0.492,0.837,1.448V78.72z M71.466,60.219
			c0.628,0,0.931-0.497,0.931-1.49v-4.513c0-0.994-0.303-1.485-0.931-1.485c-0.628,0-0.926,0.492-0.926,1.485v4.513
			C70.54,59.723,70.839,60.219,71.466,60.219z M68.961,79.254c-0.424,0.601-0.831,0.899-1.218,0.899c-0.256,0-0.403-0.152-0.45-0.45
			c-0.016-0.063-0.016-0.298-0.016-0.748v-7.823h-1.924v8.398c0,0.753,0.063,1.255,0.167,1.579c0.193,0.539,0.622,0.79,1.239,0.79
			c0.711,0,1.438-0.429,2.201-1.302v1.156h1.924V71.133h-1.924V79.254z M58.362,69.507h2.264v12.247h2.139V69.507h2.306v-2.008
			h-6.709V69.507z M71.466,52.731c-0.628,0-0.926,0.492-0.926,1.485v4.513c0,0.994,0.298,1.49,0.926,1.49
			c0.628,0,0.931-0.497,0.931-1.49v-4.513C72.397,53.223,72.094,52.731,71.466,52.731z M58.362,67.498v2.008h2.264v12.247h2.139
			V69.507h2.306v-2.008H58.362z M68.961,71.133v8.121c-0.424,0.601-0.831,0.899-1.218,0.899c-0.256,0-0.403-0.152-0.45-0.45
			c-0.016-0.063-0.016-0.298-0.016-0.748v-7.823h-1.924v8.398c0,0.753,0.063,1.255,0.167,1.579c0.193,0.539,0.622,0.79,1.239,0.79
			c0.711,0,1.438-0.429,2.201-1.302v1.156h1.924V71.133H68.961z M78.003,72.205c-0.256-0.8-0.769-1.203-1.537-1.203
			c-0.706,0-1.365,0.392-1.987,1.156v-4.659h-1.924v14.255h1.924v-1.025c0.643,0.795,1.302,1.171,1.987,1.171
			c0.769,0,1.281-0.403,1.537-1.192c0.131-0.45,0.193-1.156,0.193-2.139v-4.23C78.196,73.334,78.133,72.628,78.003,72.205z
			 M76.272,78.72c0,0.957-0.282,1.433-0.837,1.433c-0.314,0-0.638-0.152-0.957-0.476v-6.474c0.319-0.314,0.643-0.465,0.957-0.465
			c0.554,0,0.837,0.492,0.837,1.448V78.72z M85.46,76.796v-2.201c0-1.135-0.193-1.966-0.596-2.5
			c-0.539-0.732-1.302-1.093-2.27-1.093c-0.983,0-1.752,0.361-2.306,1.093c-0.408,0.533-0.591,1.365-0.591,2.5v3.723
			c0,1.124,0.209,1.966,0.617,2.494c0.554,0.727,1.318,1.088,2.327,1.088c1.009,0,1.794-0.376,2.327-1.15
			c0.235-0.34,0.387-0.727,0.45-1.15c0.021-0.193,0.042-0.622,0.042-1.245v-0.277h-1.961c0,0.774-0.026,1.198-0.042,1.302
			c-0.11,0.512-0.387,0.774-0.863,0.774c-0.659,0-0.983-0.492-0.983-1.475v-1.883H85.46z M81.611,74.213
			c0-0.983,0.324-1.475,0.967-1.475c0.638,0,0.957,0.492,0.957,1.475v0.978h-1.924V74.213z M85.46,76.796v-2.201
			c0-1.135-0.193-1.966-0.596-2.5c-0.539-0.732-1.302-1.093-2.27-1.093c-0.983,0-1.752,0.361-2.306,1.093
			c-0.408,0.533-0.591,1.365-0.591,2.5v3.723c0,1.124,0.209,1.966,0.617,2.494c0.554,0.727,1.318,1.088,2.327,1.088
			c1.009,0,1.794-0.376,2.327-1.15c0.235-0.34,0.387-0.727,0.45-1.15c0.021-0.193,0.042-0.622,0.042-1.245v-0.277h-1.961
			c0,0.774-0.026,1.198-0.042,1.302c-0.11,0.512-0.387,0.774-0.863,0.774c-0.659,0-0.983-0.492-0.983-1.475v-1.883H85.46z
			 M81.611,74.213c0-0.983,0.324-1.475,0.967-1.475c0.638,0,0.957,0.492,0.957,1.475v0.978h-1.924V74.213z M78.003,72.205
			c-0.256-0.8-0.769-1.203-1.537-1.203c-0.706,0-1.365,0.392-1.987,1.156v-4.659h-1.924v14.255h1.924v-1.025
			c0.643,0.795,1.302,1.171,1.987,1.171c0.769,0,1.281-0.403,1.537-1.192c0.131-0.45,0.193-1.156,0.193-2.139v-4.23
			C78.196,73.334,78.133,72.628,78.003,72.205z M76.272,78.72c0,0.957-0.282,1.433-0.837,1.433c-0.314,0-0.638-0.152-0.957-0.476
			v-6.474c0.319-0.314,0.643-0.465,0.957-0.465c0.554,0,0.837,0.492,0.837,1.448V78.72z M71.466,52.731
			c-0.628,0-0.926,0.492-0.926,1.485v4.513c0,0.994,0.298,1.49,0.926,1.49c0.628,0,0.931-0.497,0.931-1.49v-4.513
			C72.397,53.223,72.094,52.731,71.466,52.731z M68.961,71.133v8.121c-0.424,0.601-0.831,0.899-1.218,0.899
			c-0.256,0-0.403-0.152-0.45-0.45c-0.016-0.063-0.016-0.298-0.016-0.748v-7.823h-1.924v8.398c0,0.753,0.063,1.255,0.167,1.579
			c0.193,0.539,0.622,0.79,1.239,0.79c0.711,0,1.438-0.429,2.201-1.302v1.156h1.924V71.133H68.961z M58.362,67.498v2.008h2.264
			v12.247h2.139V69.507h2.306v-2.008H58.362z M71.466,52.731c-0.628,0-0.926,0.492-0.926,1.485v4.513c0,0.994,0.298,1.49,0.926,1.49
			c0.628,0,0.931-0.497,0.931-1.49v-4.513C72.397,53.223,72.094,52.731,71.466,52.731z M71.466,52.731
			c-0.628,0-0.926,0.492-0.926,1.485v4.513c0,0.994,0.298,1.49,0.926,1.49c0.628,0,0.931-0.497,0.931-1.49v-4.513
			C72.397,53.223,72.094,52.731,71.466,52.731z"/>
		<polygon fill="#003F42" points="58.362,67.498 65.071,67.498 65.071,69.507 62.765,69.507 62.765,81.753 60.626,81.753 
			60.626,69.507 58.362,69.507 		"/>
		<path fill="#003F42" d="M68.961,71.133h1.924v10.621h-1.924v-1.156c-0.763,0.873-1.49,1.302-2.201,1.302
			c-0.617,0-1.046-0.251-1.239-0.79c-0.105-0.324-0.167-0.826-0.167-1.579v-8.398h1.924v7.823c0,0.45,0,0.685,0.016,0.748
			c0.047,0.298,0.194,0.45,0.45,0.45c0.387,0,0.795-0.298,1.218-0.899V71.133z"/>
		<path fill="#003F42" d="M78.003,72.205c-0.256-0.8-0.769-1.203-1.537-1.203c-0.706,0-1.365,0.392-1.987,1.156v-4.659h-1.924
			v14.255h1.924v-1.025c0.643,0.795,1.302,1.171,1.987,1.171c0.769,0,1.281-0.403,1.537-1.192c0.131-0.45,0.193-1.156,0.193-2.139
			v-4.23C78.196,73.334,78.133,72.628,78.003,72.205z M76.272,78.72c0,0.957-0.282,1.433-0.837,1.433
			c-0.314,0-0.638-0.152-0.957-0.476v-6.474c0.319-0.314,0.643-0.465,0.957-0.465c0.554,0,0.837,0.492,0.837,1.448V78.72z"/>
		<path fill="#003F42" d="M85.46,76.796v-2.201c0-1.135-0.193-1.966-0.596-2.5c-0.539-0.732-1.302-1.093-2.27-1.093
			c-0.983,0-1.752,0.361-2.306,1.093c-0.408,0.533-0.591,1.365-0.591,2.5v3.723c0,1.124,0.209,1.966,0.617,2.494
			c0.554,0.727,1.318,1.088,2.327,1.088c1.009,0,1.794-0.376,2.327-1.15c0.235-0.34,0.387-0.727,0.45-1.15
			c0.021-0.193,0.042-0.622,0.042-1.245v-0.277h-1.961c0,0.774-0.026,1.198-0.042,1.302c-0.11,0.512-0.387,0.774-0.863,0.774
			c-0.659,0-0.983-0.492-0.983-1.475v-1.883H85.46z M81.611,74.213c0-0.983,0.324-1.475,0.967-1.475
			c0.638,0,0.957,0.492,0.957,1.475v0.978h-1.924V74.213z"/>
		<path fill="#003F42" d="M58.362,67.498v2.008h2.264v12.247h2.139V69.507h2.306v-2.008H58.362z M68.961,71.133v8.121
			c-0.424,0.601-0.831,0.899-1.218,0.899c-0.256,0-0.403-0.152-0.45-0.45c-0.016-0.063-0.016-0.298-0.016-0.748v-7.823h-1.924v8.398
			c0,0.753,0.063,1.255,0.167,1.579c0.193,0.539,0.622,0.79,1.239,0.79c0.711,0,1.438-0.429,2.201-1.302v1.156h1.924V71.133H68.961z
			 M78.003,72.205c-0.256-0.8-0.769-1.203-1.537-1.203c-0.706,0-1.365,0.392-1.987,1.156v-4.659h-1.924v14.255h1.924v-1.025
			c0.643,0.795,1.302,1.171,1.987,1.171c0.769,0,1.281-0.403,1.537-1.192c0.131-0.45,0.193-1.156,0.193-2.139v-4.23
			C78.196,73.334,78.133,72.628,78.003,72.205z M76.272,78.72c0,0.957-0.282,1.433-0.837,1.433c-0.314,0-0.638-0.152-0.957-0.476
			v-6.474c0.319-0.314,0.643-0.465,0.957-0.465c0.554,0,0.837,0.492,0.837,1.448V78.72z M85.46,76.796v-2.201
			c0-1.135-0.193-1.966-0.596-2.5c-0.539-0.732-1.302-1.093-2.27-1.093c-0.983,0-1.752,0.361-2.306,1.093
			c-0.408,0.533-0.591,1.365-0.591,2.5v3.723c0,1.124,0.209,1.966,0.617,2.494c0.554,0.727,1.318,1.088,2.327,1.088
			c1.009,0,1.794-0.376,2.327-1.15c0.235-0.34,0.387-0.727,0.45-1.15c0.021-0.193,0.042-0.622,0.042-1.245v-0.277h-1.961
			c0,0.774-0.026,1.198-0.042,1.302c-0.11,0.512-0.387,0.774-0.863,0.774c-0.659,0-0.983-0.492-0.983-1.475v-1.883H85.46z
			 M81.611,74.213c0-0.983,0.324-1.475,0.967-1.475c0.638,0,0.957,0.492,0.957,1.475v0.978h-1.924V74.213z"/>
	</g>
</g>
</svg>
