<?xml version="1.0" encoding="utf-8"?>
<!-- Generator: Adobe Illustrator 17.0.0, SVG Export Plug-In . SVG Version: 6.00 Build 0)  -->
<!DOCTYPE svg PUBLIC "-//W3C//DTD SVG 1.1//EN" "http://www.w3.org/Graphics/SVG/1.1/DTD/svg11.dtd">
<svg version="1.1" id="Capa_1" xmlns="http://www.w3.org/2000/svg" xmlns:xlink="http://www.w3.org/1999/xlink" x="0px" y="0px"
	 width="148.571px" height="114.286px" viewBox="0 0 148.571 114.286" enable-background="new 0 0 148.571 114.286"
	 xml:space="preserve">
<g>
	<path fill="#E5352F" d="M73.331,40.368c-0.774,0-1.141,0.606-1.141,1.831v5.565c0,1.225,0.368,1.838,1.141,1.838
		c0.774,0,1.148-0.613,1.148-1.838v-5.565C74.479,40.974,74.105,40.368,73.331,40.368z M73.331,40.368
		c-0.774,0-1.141,0.606-1.141,1.831v5.565c0,1.225,0.368,1.838,1.141,1.838c0.774,0,1.148-0.613,1.148-1.838v-5.565
		C74.479,40.974,74.105,40.368,73.331,40.368z M57.172,58.578v2.476h2.792v15.102h2.637V61.054h2.844v-2.476
		C65.445,58.578,57.172,58.578,57.172,58.578z M70.243,63.06v10.014c-0.522,0.742-1.025,1.109-1.502,1.109
		c-0.316,0-0.497-0.187-0.555-0.555c-0.019-0.077-0.019-0.368-0.019-0.922v-9.647h-2.373v10.357c0,0.929,0.077,1.548,0.206,1.947
		c0.239,0.664,0.767,0.974,1.528,0.974c0.877,0,1.773-0.529,2.715-1.606v1.425h2.373V63.06H70.243z M73.331,40.368
		c-0.774,0-1.141,0.606-1.141,1.831v5.565c0,1.225,0.368,1.838,1.141,1.838c0.774,0,1.148-0.613,1.148-1.838v-5.565
		C74.479,40.974,74.105,40.368,73.331,40.368z M81.392,64.382c-0.316-0.987-0.948-1.483-1.896-1.483
		c-0.871,0-1.683,0.484-2.45,1.425v-5.746h-2.373v17.578h2.373v-1.264c0.793,0.98,1.606,1.444,2.45,1.444
		c0.948,0,1.58-0.497,1.896-1.47c0.161-0.555,0.239-1.425,0.239-2.637v-5.217C81.631,65.775,81.553,64.904,81.392,64.382z
		 M79.258,72.417c0,1.18-0.348,1.767-1.032,1.767c-0.387,0-0.787-0.187-1.18-0.587v-7.983c0.393-0.387,0.793-0.574,1.18-0.574
		c0.684,0,1.032,0.606,1.032,1.786V72.417z M90.587,70.044v-2.715c0-1.399-0.239-2.425-0.735-3.082
		c-0.664-0.903-1.606-1.348-2.799-1.348c-1.212,0-2.16,0.445-2.844,1.348c-0.503,0.658-0.729,1.683-0.729,3.082v4.591
		c0,1.386,0.258,2.425,0.761,3.076c0.683,0.896,1.625,1.341,2.87,1.341c1.245,0,2.212-0.464,2.87-1.419
		c0.29-0.419,0.477-0.896,0.555-1.419c0.026-0.239,0.052-0.767,0.052-1.535v-0.342H88.17c0,0.954-0.032,1.477-0.052,1.606
		c-0.135,0.632-0.477,0.954-1.064,0.954c-0.813,0-1.212-0.606-1.212-1.818v-2.321L90.587,70.044L90.587,70.044z M85.841,66.858
		c0-1.212,0.4-1.818,1.193-1.818c0.787,0,1.18,0.606,1.18,1.818v1.206h-2.373V66.858z M90.587,70.044v-2.715
		c0-1.399-0.239-2.425-0.735-3.082c-0.664-0.903-1.606-1.348-2.799-1.348c-1.212,0-2.16,0.445-2.844,1.348
		c-0.503,0.658-0.729,1.683-0.729,3.082v4.591c0,1.386,0.258,2.425,0.761,3.076c0.683,0.896,1.625,1.341,2.87,1.341
		c1.245,0,2.212-0.464,2.87-1.419c0.29-0.419,0.477-0.896,0.555-1.419c0.026-0.239,0.052-0.767,0.052-1.535v-0.342H88.17
		c0,0.954-0.032,1.477-0.052,1.606c-0.135,0.632-0.477,0.954-1.064,0.954c-0.813,0-1.212-0.606-1.212-1.818v-2.321L90.587,70.044
		L90.587,70.044z M85.841,66.858c0-1.212,0.4-1.818,1.193-1.818c0.787,0,1.18,0.606,1.18,1.818v1.206h-2.373V66.858z M79.496,62.899
		c-0.871,0-1.683,0.484-2.45,1.425v-5.746h-2.373v17.578h2.373v-1.264c0.793,0.98,1.606,1.444,2.45,1.444
		c0.948,0,1.58-0.497,1.896-1.47c0.161-0.555,0.239-1.425,0.239-2.637v-5.217c0-1.238-0.077-2.109-0.239-2.631
		C81.076,63.395,80.444,62.899,79.496,62.899z M79.258,72.417c0,1.18-0.348,1.767-1.032,1.767c-0.387,0-0.787-0.187-1.18-0.587
		v-7.983c0.393-0.387,0.793-0.574,1.18-0.574c0.684,0,1.032,0.606,1.032,1.786V72.417z M70.243,73.074
		c-0.522,0.742-1.025,1.109-1.502,1.109c-0.316,0-0.497-0.187-0.555-0.555c-0.019-0.077-0.019-0.368-0.019-0.922v-9.647h-2.373
		v10.357c0,0.929,0.077,1.548,0.206,1.947c0.239,0.664,0.767,0.974,1.528,0.974c0.877,0,1.773-0.529,2.715-1.606v1.425h2.373V63.06
		h-2.373V73.074z M57.172,61.054h2.792v15.102h2.637V61.054h2.844v-2.476h-8.273C57.172,58.578,57.172,61.054,57.172,61.054z
		 M73.331,40.368c-0.774,0-1.141,0.606-1.141,1.831v5.565c0,1.225,0.368,1.838,1.141,1.838c0.774,0,1.148-0.613,1.148-1.838v-5.565
		C74.479,40.974,74.105,40.368,73.331,40.368z M95.791,26.246H52.78c-5.185,0-9.389,4.204-9.389,9.395v43.011
		c0,5.185,4.204,9.389,9.389,9.389h43.011c5.185,0,9.389-4.204,9.389-9.389V35.641C105.18,30.45,100.976,26.246,95.791,26.246z
		 M78.851,38.369h2.392v9.737c0,0.567,0,0.858,0.026,0.935c0.052,0.374,0.239,0.561,0.561,0.561c0.484,0,0.987-0.368,1.515-1.122
		V38.369h2.399v13.232h-2.399v-1.444c-0.954,1.096-1.864,1.625-2.741,1.625c-0.767,0-1.303-0.31-1.541-0.98
		c-0.135-0.4-0.213-1.038-0.213-1.973L78.851,38.369L78.851,38.369z M69.791,42.676c0-1.412,0.239-2.444,0.748-3.115
		c0.664-0.903,1.599-1.354,2.792-1.354c1.206,0,2.134,0.451,2.799,1.354c0.503,0.671,0.748,1.702,0.748,3.115v4.636
		c0,1.412-0.245,2.45-0.748,3.115c-0.664,0.903-1.593,1.354-2.799,1.354c-1.193,0-2.128-0.451-2.792-1.354
		c-0.509-0.664-0.748-1.702-0.748-3.115V42.676z M63.381,33.842l1.883,6.971l1.818-6.971h2.689l-3.205,10.563v7.196h-2.657v-7.196
		c-0.239-1.27-0.774-3.14-1.625-5.617c-0.561-1.644-1.148-3.302-1.709-4.946C60.575,33.842,63.381,33.842,63.381,33.842z
		 M92.825,76.943c-0.477,2.089-2.186,3.63-4.243,3.863c-4.869,0.542-9.802,0.542-14.702,0.542c-4.907,0-9.834,0-14.709-0.542
		c-2.057-0.232-3.759-1.773-4.243-3.863c-0.683-2.973-0.683-6.216-0.683-9.279s0.006-6.307,0.696-9.286
		c0.477-2.089,2.186-3.624,4.243-3.856c4.869-0.548,9.795-0.548,14.702-0.548s9.834,0,14.702,0.548
		c2.057,0.232,3.766,1.767,4.243,3.856c0.683,2.979,0.683,6.223,0.683,9.286C93.515,70.727,93.515,73.971,92.825,76.943z
		 M87.054,62.899c-1.212,0-2.16,0.445-2.844,1.348c-0.503,0.658-0.729,1.683-0.729,3.082v4.591c0,1.386,0.258,2.425,0.761,3.076
		c0.683,0.896,1.625,1.341,2.87,1.341c1.245,0,2.212-0.464,2.87-1.419c0.29-0.419,0.477-0.896,0.555-1.419
		c0.026-0.239,0.052-0.767,0.052-1.535v-0.342h-2.418c0,0.954-0.032,1.477-0.052,1.606c-0.135,0.632-0.477,0.954-1.064,0.954
		c-0.813,0-1.212-0.606-1.212-1.818v-2.321h4.746v-2.715c0-1.399-0.239-2.425-0.735-3.082
		C89.188,63.344,88.247,62.899,87.054,62.899z M88.214,68.064h-2.373v-1.206c0-1.212,0.4-1.818,1.193-1.818
		c0.787,0,1.18,0.606,1.18,1.818V68.064z M79.496,62.899c-0.871,0-1.683,0.484-2.45,1.425v-5.746h-2.373v17.578h2.373v-1.264
		c0.793,0.98,1.606,1.444,2.45,1.444c0.948,0,1.58-0.497,1.896-1.47c0.161-0.555,0.239-1.425,0.239-2.637v-5.217
		c0-1.238-0.077-2.109-0.239-2.631C81.076,63.395,80.444,62.899,79.496,62.899z M79.258,72.417c0,1.18-0.348,1.767-1.032,1.767
		c-0.387,0-0.787-0.187-1.18-0.587v-7.983c0.393-0.387,0.793-0.574,1.18-0.574c0.684,0,1.032,0.606,1.032,1.786V72.417z
		 M73.331,49.602c0.774,0,1.148-0.613,1.148-1.838v-5.565c0-1.225-0.374-1.831-1.148-1.831s-1.141,0.606-1.141,1.831v5.565
		C72.19,48.989,72.558,49.602,73.331,49.602z M70.243,73.074c-0.522,0.742-1.025,1.109-1.502,1.109
		c-0.316,0-0.497-0.187-0.555-0.555c-0.019-0.077-0.019-0.368-0.019-0.922v-9.647h-2.373v10.357c0,0.929,0.077,1.548,0.206,1.947
		c0.239,0.664,0.767,0.974,1.528,0.974c0.877,0,1.773-0.529,2.715-1.606v1.425h2.373V63.06h-2.373V73.074z M57.172,61.054h2.792
		v15.102h2.637V61.054h2.844v-2.476h-8.273C57.172,58.578,57.172,61.054,57.172,61.054z M73.331,40.368
		c-0.774,0-1.141,0.606-1.141,1.831v5.565c0,1.225,0.368,1.838,1.141,1.838c0.774,0,1.148-0.613,1.148-1.838v-5.565
		C74.479,40.974,74.105,40.368,73.331,40.368z M57.172,58.578v2.476h2.792v15.102h2.637V61.054h2.844v-2.476
		C65.445,58.578,57.172,58.578,57.172,58.578z M70.243,63.06v10.014c-0.522,0.742-1.025,1.109-1.502,1.109
		c-0.316,0-0.497-0.187-0.555-0.555c-0.019-0.077-0.019-0.368-0.019-0.922v-9.647h-2.373v10.357c0,0.929,0.077,1.548,0.206,1.947
		c0.239,0.664,0.767,0.974,1.528,0.974c0.877,0,1.773-0.529,2.715-1.606v1.425h2.373V63.06H70.243z M81.392,64.382
		c-0.316-0.987-0.948-1.483-1.896-1.483c-0.871,0-1.683,0.484-2.45,1.425v-5.746h-2.373v17.578h2.373v-1.264
		c0.793,0.98,1.606,1.444,2.45,1.444c0.948,0,1.58-0.497,1.896-1.47c0.161-0.555,0.239-1.425,0.239-2.637v-5.217
		C81.631,65.775,81.553,64.904,81.392,64.382z M79.258,72.417c0,1.18-0.348,1.767-1.032,1.767c-0.387,0-0.787-0.187-1.18-0.587
		v-7.983c0.393-0.387,0.793-0.574,1.18-0.574c0.684,0,1.032,0.606,1.032,1.786V72.417z M90.587,70.044v-2.715
		c0-1.399-0.239-2.425-0.735-3.082c-0.664-0.903-1.606-1.348-2.799-1.348c-1.212,0-2.16,0.445-2.844,1.348
		c-0.503,0.658-0.729,1.683-0.729,3.082v4.591c0,1.386,0.258,2.425,0.761,3.076c0.683,0.896,1.625,1.341,2.87,1.341
		c1.245,0,2.212-0.464,2.87-1.419c0.29-0.419,0.477-0.896,0.555-1.419c0.026-0.239,0.052-0.767,0.052-1.535v-0.342H88.17
		c0,0.954-0.032,1.477-0.052,1.606c-0.135,0.632-0.477,0.954-1.064,0.954c-0.813,0-1.212-0.606-1.212-1.818v-2.321L90.587,70.044
		L90.587,70.044z M85.841,66.858c0-1.212,0.4-1.818,1.193-1.818c0.787,0,1.18,0.606,1.18,1.818v1.206h-2.373V66.858z M90.587,70.044
		v-2.715c0-1.399-0.239-2.425-0.735-3.082c-0.664-0.903-1.606-1.348-2.799-1.348c-1.212,0-2.16,0.445-2.844,1.348
		c-0.503,0.658-0.729,1.683-0.729,3.082v4.591c0,1.386,0.258,2.425,0.761,3.076c0.683,0.896,1.625,1.341,2.87,1.341
		c1.245,0,2.212-0.464,2.87-1.419c0.29-0.419,0.477-0.896,0.555-1.419c0.026-0.239,0.052-0.767,0.052-1.535v-0.342H88.17
		c0,0.954-0.032,1.477-0.052,1.606c-0.135,0.632-0.477,0.954-1.064,0.954c-0.813,0-1.212-0.606-1.212-1.818v-2.321L90.587,70.044
		L90.587,70.044z M85.841,66.858c0-1.212,0.4-1.818,1.193-1.818c0.787,0,1.18,0.606,1.18,1.818v1.206h-2.373V66.858z M81.392,64.382
		c-0.316-0.987-0.948-1.483-1.896-1.483c-0.871,0-1.683,0.484-2.45,1.425v-5.746h-2.373v17.578h2.373v-1.264
		c0.793,0.98,1.606,1.444,2.45,1.444c0.948,0,1.58-0.497,1.896-1.47c0.161-0.555,0.239-1.425,0.239-2.637v-5.217
		C81.631,65.775,81.553,64.904,81.392,64.382z M79.258,72.417c0,1.18-0.348,1.767-1.032,1.767c-0.387,0-0.787-0.187-1.18-0.587
		v-7.983c0.393-0.387,0.793-0.574,1.18-0.574c0.684,0,1.032,0.606,1.032,1.786V72.417z M73.331,40.368
		c-0.774,0-1.141,0.606-1.141,1.831v5.565c0,1.225,0.368,1.838,1.141,1.838c0.774,0,1.148-0.613,1.148-1.838v-5.565
		C74.479,40.974,74.105,40.368,73.331,40.368z M70.243,63.06v10.014c-0.522,0.742-1.025,1.109-1.502,1.109
		c-0.316,0-0.497-0.187-0.555-0.555c-0.019-0.077-0.019-0.368-0.019-0.922v-9.647h-2.373v10.357c0,0.929,0.077,1.548,0.206,1.947
		c0.239,0.664,0.767,0.974,1.528,0.974c0.877,0,1.773-0.529,2.715-1.606v1.425h2.373V63.06H70.243z M57.172,58.578v2.476h2.792
		v15.102h2.637V61.054h2.844v-2.476C65.445,58.578,57.172,58.578,57.172,58.578z M73.331,40.368c-0.774,0-1.141,0.606-1.141,1.831
		v5.565c0,1.225,0.368,1.838,1.141,1.838c0.774,0,1.148-0.613,1.148-1.838v-5.565C74.479,40.974,74.105,40.368,73.331,40.368z
		 M73.331,40.368c-0.774,0-1.141,0.606-1.141,1.831v5.565c0,1.225,0.368,1.838,1.141,1.838c0.774,0,1.148-0.613,1.148-1.838v-5.565
		C74.479,40.974,74.105,40.368,73.331,40.368z"/>
	<polygon fill="#E5352F" points="57.172,58.578 65.445,58.578 65.445,61.054 62.601,61.054 62.601,76.157 59.964,76.157 
		59.964,61.054 57.172,61.054 	"/>
	<path fill="#E5352F" d="M70.243,63.06h2.373v13.097h-2.373v-1.425c-0.941,1.077-1.838,1.606-2.715,1.606
		c-0.761,0-1.29-0.31-1.528-0.974c-0.129-0.4-0.206-1.019-0.206-1.947V63.06h2.373v9.647c0,0.555,0,0.845,0.019,0.922
		c0.058,0.368,0.239,0.555,0.555,0.555c0.477,0,0.98-0.368,1.502-1.109V63.06z"/>
	<path fill="#E5352F" d="M81.392,64.382c-0.316-0.987-0.948-1.483-1.896-1.483c-0.871,0-1.683,0.484-2.45,1.425v-5.746h-2.373
		v17.578h2.373v-1.264c0.793,0.98,1.606,1.444,2.45,1.444c0.948,0,1.58-0.497,1.896-1.47c0.161-0.555,0.239-1.425,0.239-2.637
		v-5.217C81.631,65.775,81.553,64.904,81.392,64.382z M79.258,72.417c0,1.18-0.348,1.767-1.032,1.767
		c-0.387,0-0.787-0.187-1.18-0.587v-7.983c0.393-0.387,0.793-0.574,1.18-0.574c0.684,0,1.032,0.606,1.032,1.786V72.417z"/>
	<path fill="#E5352F" d="M90.587,70.044v-2.715c0-1.399-0.239-2.425-0.735-3.082c-0.664-0.903-1.606-1.348-2.799-1.348
		c-1.212,0-2.16,0.445-2.844,1.348c-0.503,0.658-0.729,1.683-0.729,3.082v4.591c0,1.386,0.258,2.425,0.761,3.076
		c0.683,0.896,1.625,1.341,2.87,1.341c1.245,0,2.212-0.464,2.87-1.419c0.29-0.419,0.477-0.896,0.555-1.419
		c0.026-0.239,0.052-0.767,0.052-1.535v-0.342H88.17c0,0.954-0.032,1.477-0.052,1.606c-0.135,0.632-0.477,0.954-1.064,0.954
		c-0.813,0-1.212-0.606-1.212-1.818v-2.321L90.587,70.044L90.587,70.044z M85.841,66.858c0-1.212,0.4-1.818,1.193-1.818
		c0.787,0,1.18,0.606,1.18,1.818v1.206h-2.373V66.858z"/>
	<path fill="#E5352F" d="M57.172,58.578v2.476h2.792v15.102h2.637V61.054h2.844v-2.476C65.445,58.578,57.172,58.578,57.172,58.578z
		 M70.243,63.06v10.014c-0.522,0.742-1.025,1.109-1.502,1.109c-0.316,0-0.497-0.187-0.555-0.555
		c-0.019-0.077-0.019-0.368-0.019-0.922v-9.647h-2.373v10.357c0,0.929,0.077,1.548,0.206,1.947c0.239,0.664,0.767,0.974,1.528,0.974
		c0.877,0,1.773-0.529,2.715-1.606v1.425h2.373V63.06H70.243z M81.392,64.382c-0.316-0.987-0.948-1.483-1.896-1.483
		c-0.871,0-1.683,0.484-2.45,1.425v-5.746h-2.373v17.578h2.373v-1.264c0.793,0.98,1.606,1.444,2.45,1.444
		c0.948,0,1.58-0.497,1.896-1.47c0.161-0.555,0.239-1.425,0.239-2.637v-5.217C81.631,65.775,81.553,64.904,81.392,64.382z
		 M79.258,72.417c0,1.18-0.348,1.767-1.032,1.767c-0.387,0-0.787-0.187-1.18-0.587v-7.983c0.393-0.387,0.793-0.574,1.18-0.574
		c0.684,0,1.032,0.606,1.032,1.786V72.417z M90.587,70.044v-2.715c0-1.399-0.239-2.425-0.735-3.082
		c-0.664-0.903-1.606-1.348-2.799-1.348c-1.212,0-2.16,0.445-2.844,1.348c-0.503,0.658-0.729,1.683-0.729,3.082v4.591
		c0,1.386,0.258,2.425,0.761,3.076c0.683,0.896,1.625,1.341,2.87,1.341c1.245,0,2.212-0.464,2.87-1.419
		c0.29-0.419,0.477-0.896,0.555-1.419c0.026-0.239,0.052-0.767,0.052-1.535v-0.342H88.17c0,0.954-0.032,1.477-0.052,1.606
		c-0.135,0.632-0.477,0.954-1.064,0.954c-0.813,0-1.212-0.606-1.212-1.818v-2.321L90.587,70.044L90.587,70.044z M85.841,66.858
		c0-1.212,0.4-1.818,1.193-1.818c0.787,0,1.18,0.606,1.18,1.818v1.206h-2.373V66.858z"/>
</g>
</svg>
